<svg id="Layer_2" data-name="Layer 2" xmlns="http://www.w3.org/2000/svg" viewBox="0 0 1417.32 645.37"><defs><style>.cls-1,.cls-10,.cls-5,.cls-6,.cls-7,.cls-8,.cls-9{fill:none;}.cls-1{stroke:#1d1d1b;}.cls-1,.cls-10{stroke-linejoin:round;}.cls-2{fill:#263674;}.cls-3{fill:#07488e;}.cls-4{fill:#0468a9;}.cls-10,.cls-5{stroke:#07488e;}.cls-5,.cls-6,.cls-7,.cls-9{stroke-miterlimit:10;}.cls-6{stroke:#0468a9;}.cls-7{stroke:#253673;}.cls-9{stroke:#263674;}.cls-10{stroke-linecap:round;}</style></defs><title>aktiviteter_edit</title><path class="cls-1" d="M91.88,183.73h0"/><path class="cls-2" d="M1293.58,494.14l.19,51a7.54,7.54,0,0,1-3.58-1.54s2.71-36.3,1.62-41.75c0,0-35.28,11.06-45.43,15.8s21.11-37.46,21.11-37.46l-23.92,7.69,28.62-42.45-24,12.13,26.33-45.15-18.34,10,36.91-62.81c-5.68,23.49-26.1,52.39-26.43,52.86.34-.15,12.51-5.44,15.19-4.61s-21.26,38.28-21.61,38.84c.35-.19,14.69-7.72,18.52-7s-20.12,37.94-20.46,38.48c.4-.15,17.66-6.6,17.93-3.24s-23.94,31.64-20.57,33.49C1258.74,510.13,1286.37,495.77,1293.58,494.14Z"/><path class="cls-3" d="M1308.42,460.64c-.54,4.25,17.45,27.09,17.45,27.09l-22.38-2.47.82,10.48c.46,15.24,8.89,47.39,8.89,47.39-10.16,2.92-16.14,2.75-19.43,2h0l-.19-51c-7.21,1.63-34.84,16-37.93,14.3-3.37-1.85,20.83-30.08,20.57-33.49s-17.53,3.09-17.93,3.24c.34-.54,24.3-37.73,20.46-38.48s-18.17,6.79-18.52,7c.35-.56,24.29-38,21.61-38.84s-14.85,4.46-15.19,4.61c.33-.47,20.75-29.37,26.43-52.86a14.47,14.47,0,0,0,0,2.79c1.18,12.71,16.22,36,16.22,36s-11.54-1.21-12.32,3.61,27.14,31,27.71,31.54c-.52-.1-21.82-4.57-22-.92s23.68,29.61,24.26,30.25C1326.55,462.72,1309,456.43,1308.42,460.64Z"/><path class="cls-4" d="M1364.63,503.8c-10.75-3.11-50-4.12-50-4.12-.55,18.22,9.44,39.7,9.44,39.7-4.07,1.61-7.68,2.83-10.88,3.75,0,0-8.43-32.15-8.89-47.39l-.82-10.48,22.38,2.47s-18-22.83-17.45-27.09,18.13,2.08,18.57,2.23c-.59-.64-24.41-26.59-24.26-30.24s21.45.81,22,.91c-.57-.53-28.48-26.77-27.71-31.54s12.32-3.61,12.32-3.61-17.5-27.1-16.23-38.79l46.07,56.33-19.67-7,33,40.52-25.6-8.26,34.86,37.5-24.84-3.89S1375.39,506.92,1364.63,503.8Z"/><path class="cls-1" d="M1324.7,433.54h0"/><path class="cls-1" d="M1327,462.88h0"/><path class="cls-3" d="M1293.77,545.14l-.19-51a3,3,0,0,1,1.44-.1C1298.31,495.09,1293.82,544.53,1293.77,545.14Z"/><path class="cls-3" d="M1293.09,362.39l.49,131.75c-7.21,1.63-34.84,16-37.93,14.3-3.37-1.85,20.83-30.08,20.57-33.49s-17.53,3.09-17.93,3.24c.34-.54,24.3-37.73,20.46-38.48s-18.17,6.79-18.52,7c.35-.56,24.29-38,21.61-38.84s-14.85,4.46-15.19,4.61c.33-.47,20.75-29.37,26.43-52.86Z"/><path class="cls-2" d="M790.11,496.11l-1.52,12a1.44,1.44,0,0,1-.64-.47s1.63-8.43,1.59-9.74c0,0-7.09,1.5-9.18,2.29s5.18-8.12,5.18-8.12l-4.81,1.06,6.78-9.07-5,2.1,6.42-9.77-3.82,1.78,9-13.58c-1.8,5.33-6.6,11.47-6.68,11.57s2.57-.89,3-.61-5.24,8.31-5.32,8.43c.07,0,3.05-1.35,3.76-1.05s-5,8.27-5.1,8.38c.09,0,3.59-1,3.54-.2s-5.56,6.67-5,7.21S788.68,496.27,790.11,496.11Z"/><path class="cls-3" d="M794,488.71c-.23,1,2.51,6.9,2.51,6.9l-4.21-1.28-.16,2.49a89,89,0,0,0,.25,11.38,6.46,6.46,0,0,1-3.78-.13h0l1.52-12c-1.43.16-7.16,2.66-7.7,2.17s4.91-6.4,5-7.21-3.45.18-3.54.2c.09-.11,5.81-8.09,5.1-8.38s-3.69,1-3.76,1.05c.08-.12,5.81-8.15,5.32-8.43s-3,.59-3,.61,4.88-6.24,6.68-11.57a4,4,0,0,0-.08.65c-.16,3,2,8.95,2,8.95s-2.17-.64-2.47.46,4.25,8.11,4.35,8.26c-.1,0-4-1.75-4.18-.9s3.63,7.68,3.72,7.85C797.39,489.77,794.21,487.74,794,488.71Z"/><path class="cls-4" d="M803.43,500.58c-2-1.06-9.45-2.52-9.45-2.52a30.11,30.11,0,0,0,.59,9.6,21.32,21.32,0,0,1-2.2.55,89.18,89.18,0,0,1-.25-11.39l.16-2.48,4.21,1.27s-2.74-5.91-2.51-6.9,3.41,1.06,3.49,1.11c-.09-.17-3.86-7-3.72-7.85s4.08.86,4.18.9c-.1-.15-4.64-7.17-4.35-8.26s2.47-.46,2.47-.46-2.52-6.9-1.92-9.6l7.1,14.64-3.55-2.26,5.09,10.53-4.66-2.74,5.54,9.88L799,492.91S805.39,501.65,803.43,500.58Z"/><path class="cls-1" d="M797.93,482.87h0"/><path class="cls-1" d="M797.47,489.82h0"/><path class="cls-3" d="M788.59,508.07l1.52-12a.45.45,0,0,1,.28,0C791,496.48,788.62,507.93,788.59,508.07Z"/><path class="cls-3" d="M794.05,465.2l-3.94,30.91c-1.43.16-7.16,2.66-7.7,2.17s4.91-6.4,5-7.21-3.45.18-3.54.2c.09-.11,5.81-8.09,5.1-8.38s-3.69,1-3.76,1.05c.08-.12,5.81-8.15,5.32-8.43s-3,.59-3,.61,4.88-6.24,6.68-11.57Z"/><path class="cls-2" d="M777.83,499.46l-.43,12.05a1.46,1.46,0,0,1-.68-.41s.86-8.54.7-9.84c0,0-6.93,2.13-8.94,3.11s4.43-8.56,4.43-8.56l-4.7,1.49,5.92-9.64-4.75,2.54,5.51-10.31L771.24,482,779,467.66c-1.31,5.48-5.53,12-5.6,12.14s2.47-1.12,3-.89-4.46,8.76-4.53,8.88c.07,0,2.91-1.62,3.65-1.39s-4.24,8.69-4.31,8.81c.08,0,3.48-1.32,3.5-.52s-4.93,7.15-4.29,7.63S776.42,499.75,777.83,499.46Z"/><path class="cls-3" d="M781,491.74c-.14,1,3.13,6.64,3.13,6.64l-4.31-.88.06,2.48a89.24,89.24,0,0,0,1.29,11.32,6.51,6.51,0,0,1-3.78.21h0l.43-12.05c-1.41.29-6.89,3.3-7.47,2.86s4.31-6.82,4.29-7.63-3.42.49-3.5.52c.07-.12,5-8.58,4.31-8.81s-3.58,1.36-3.65,1.39c.07-.12,5.05-8.64,4.53-8.88s-2.91.86-3,.89,4.29-6.66,5.6-12.14a4.66,4.66,0,0,0,0,.66c.11,3,2.81,8.73,2.81,8.73s-2.22-.44-2.42.68,5,7.7,5.08,7.83c-.1,0-4.19-1.37-4.25-.51s4.32,7.31,4.42,7.47C784.5,492.48,781.15,490.76,781,491.74Z"/><path class="cls-4" d="M791.49,502.7c-2-.88-9.63-1.65-9.63-1.65a29.85,29.85,0,0,0,1.46,9.51,19.75,19.75,0,0,1-2.14.74A89.24,89.24,0,0,1,779.89,500l-.06-2.48,4.31.88s-3.27-5.64-3.13-6.64,3.49.74,3.57.78c-.1-.16-4.48-6.61-4.42-7.47s4.15.48,4.25.51c-.11-.13-5.27-6.71-5.08-7.83s2.42-.68,2.42-.68-3.14-6.64-2.79-9.39l8.4,13.94-3.74-1.93,6,10-4.88-2.3,6.41,9.33-4.77-1.25S793.55,503.59,791.49,502.7Z"/><path class="cls-1" d="M784.41,485.56h0"/><path class="cls-1" d="M784.58,492.52h0"/><path class="cls-3" d="M777.4,511.51l.43-12.05a.54.54,0,0,1,.28,0C778.74,499.75,777.42,511.37,777.4,511.51Z"/><path class="cls-3" d="M778.94,468.32l-1.11,31.14c-1.41.29-6.89,3.3-7.47,2.86s4.31-6.82,4.29-7.63-3.42.49-3.5.52c.07-.12,5-8.58,4.31-8.81s-3.58,1.36-3.65,1.39c.07-.12,5.05-8.64,4.53-8.88s-2.91.86-3,.89,4.29-6.66,5.6-12.14Z"/><path class="cls-2" d="M1268.44,516.08c-15.13,0-335.68,52.24-348.19,54.28l-.2,0-.1,0h0c65.6-14.23,114.63-28.06,122.69-36.13,29.88-5.09,67.88-10.65,108.59-14.39h0C1189.4,516.38,1230,514.47,1268.44,516.08Z"/><path class="cls-2" d="M1357.54,498.3l-8.34,50.32a7.51,7.51,0,0,1-3.26-2.12s8.73-35.33,8.57-40.89c0,0-36.63,5-47.43,8s27.07-33.41,27.07-33.41l-24.88,3.59,35.32-37.07-25.7,8,33.51-40.13-19.76,6.8,46.89-55.76c-9.53,22.21-34.49,47.29-34.89,47.7.36-.09,13.24-3.27,15.74-2s-27.35,34.18-27.79,34.67c.37-.12,15.77-5.14,19.42-3.78s-26.17,34-26.6,34.52c.42-.08,18.52-3.56,18.22-.2s-28.89,27.2-25.87,29.58C1320.52,508.24,1350.16,498.71,1357.54,498.3Z"/><path class="cls-3" d="M1377.77,467.75c-1.25,4.11,12.68,29.63,12.68,29.63l-21.66-6.17-.94,10.46c-2.09,15.11.85,48.21.85,48.21-10.51,1.19-16.37,0-19.5-1.26h0l8.34-50.32c-7.38.41-37,9.94-39.78,7.76-3-2.38,25.56-26.17,25.87-29.58s-17.8.12-18.22.2c.43-.47,30.26-33.14,26.6-34.52s-19,3.66-19.42,3.78c.44-.49,30.3-33.4,27.79-34.67s-15.38,1.91-15.74,2c.4-.41,25.36-25.49,34.89-47.7a14,14,0,0,0-.46,2.75c-1,12.73,10,38.2,10,38.2s-11.17-3.11-12.74,1.5,21.57,35.11,22,35.74c-.49-.19-20.75-8.16-21.5-4.58s18.4,33.15,18.86,33.88C1395.3,472.83,1379,463.69,1377.77,467.75Z"/><path class="cls-1" d="M1398.34,443.76h0"/><path class="cls-1" d="M1395.71,473.06h0"/><path class="cls-3" d="M1349.2,548.62l8.34-50.32a3,3,0,0,1,1.43.14C1362,500,1349.36,548,1349.2,548.62Z"/><path class="cls-3" d="M1379.07,368.32l-21.53,130c-7.38.41-37,9.94-39.78,7.76-3-2.38,25.56-26.17,25.87-29.58s-17.8.12-18.22.2c.43-.47,30.26-33.14,26.6-34.52s-19,3.66-19.42,3.78c.44-.49,30.3-33.4,27.79-34.67s-15.38,1.91-15.74,2c.4-.41,25.36-25.49,34.89-47.7Z"/><path class="cls-5" d="M954,551.31c-.42.08-.85.16-1.28.22"/><path class="cls-2" d="M787.12,506c-109.44,17.9-237.8,68.47-239.8,69.25h0q-19-.64-37.8-1.54S706.55,505.7,787.12,506Z"/><path class="cls-3" d="M946.85,551.91c-23.13,1-38.94-5.16-38.94-5.16-32.34-14-106.73-38.47-106.73-38.47s-13.53,3.06-7.66,11.49c6.9,9.89,44.13,43.23,77.84,43.83l-.36,0q-6.21.75-12.45,1.45l-5.82.65-7.26.77c-.29,0-.59.07-.89.09l-5.91.61L831,568l-5.69.54-6.45.58-5.37.47-9,.75q-4.66.39-9.34.73-5,.39-10,.73l-6.88.47-2.6.17c-1.65.11-3.3.22-4.95.31q-3.56.24-7.13.44c-5.79.36-11.59.66-17.39,1-1.25.07-2.49.14-3.74.18-2.13.11-4.25.22-6.38.3l-1.88.09-8.34.35q-8.43.36-16.84.61c-2.1.08-4.19.13-6.29.2-2.83.08-5.66.17-8.49.23-5.55.15-11.09.26-16.62.36-1.84,0-3.69.08-5.54.09l-6.93.1-7.81.1-3.32,0-8.41,0c-32.78.14-65.29-.4-97.29-1.48l-1,0h0c2-.78,130.36-51.35,239.8-69.25h0c8.05,0,14.93.74,20.33,2.27,36.73,10.39,73.59,26.37,102.79,35.83C924.61,548.77,937.12,551.85,946.85,551.91Z"/><path class="cls-2" d="M132.74,493l-5.49,81C124,572.67,123,571,123,571s7.46-57.27,6.72-66.07c0,0-45.41,12.77-58.65,18.93s30.64-56.63,30.64-56.63l-30.82,9,40.61-63.52L80,428.73l38.05-68.13L94,374l53.27-94.72c-9.75,36.53-38.56,79.65-39,80.35.44-.18,16.28-6.93,19.53-5.25s-30.92,57.89-31.42,58.73c.46-.24,19.26-10.25,24-8.56S90.85,462,90.36,462.86c.52-.19,22.86-8.1,22.81-2.72s-33.52,47-29.51,50.39C87.33,513.63,123.54,494.58,132.74,493Z"/><path class="cls-3" d="M155.09,441.78c-1.15,6.68,18.8,45.38,18.8,45.38l-27.74-7L146,497c-1.13,24.26,5.8,76.45,5.8,76.45-13.05,3.27-20.51,2.18-24.55.57h0l5.49-81c-9.2,1.62-45.41,20.67-49.08,17.57-4-3.39,29.46-44.95,29.51-50.39s-22.29,2.53-22.81,2.72c.49-.82,34.67-56.62,29.94-58.33s-23.51,8.32-24,8.56c.5-.84,34.69-57,31.42-58.73s-19.09,5.07-19.53,5.25c.47-.7,29.28-43.82,39-80.35a28.84,28.84,0,0,0-.3,4.43C147,304,163.2,343.05,163.2,343.05s-14.31-3.48-15.82,4.06S177.86,400,178.51,401c-.63-.24-26.8-10.22-27.39-4.44s26.31,50.22,27,51.32C177.56,447.54,156.23,435.17,155.09,441.78Z"/><path class="cls-4" d="M220.61,517.94c-13.12-6.4-62.12-13.33-62.12-13.33-2.74,28.87,7.35,64.32,7.35,64.32a127.07,127.07,0,0,1-14,4.49S144.87,521.23,146,497l.16-16.75,27.74,7s-20-38.7-18.8-45.39,22.47,5.76,23,6.06c-.65-1.09-27.56-45.53-27-51.31s26.76,4.2,27.39,4.43c-.65-.93-32.64-46.38-31.14-53.85s15.83-4.06,15.83-4.06-18.86-45.4-15.95-63.79L198.59,375l-23.84-13.83,36.78,68.82-31.12-16.58,39.43,64.26-30.65-9.54S233.72,524.34,220.61,517.94Z"/><path class="cls-1" d="M178.51,401h0"/><path class="cls-1" d="M178.09,447.85h0"/><path class="cls-3" d="M127.25,574l5.49-81a3.2,3.2,0,0,1,1.82,0C138.56,495.11,127.38,573,127.25,574Z"/><path class="cls-3" d="M147,283.69,132.74,493c-9.2,1.62-45.41,20.67-49.08,17.57-4-3.39,29.46-44.95,29.51-50.39s-22.29,2.53-22.81,2.72c.49-.82,34.67-56.62,29.94-58.33s-23.51,8.32-24,8.56c.5-.84,34.69-57,31.42-58.73s-19.09,5.07-19.53,5.25c.47-.7,29.28-43.82,39-80.35Z"/><path class="cls-2" d="M460.24,568.12l.48,31.88a3.92,3.92,0,0,1-1.91-1s1.16-22.67.55-26.09c0,0-18.62,6.65-24,9.54s10.91-23.26,10.91-23.26l-12.63,4.63,14.86-26.32-12.64,7.4,13.62-28L439.87,523,459,484c-2.84,14.65-13.44,32.56-13.62,32.85.18-.09,6.6-3.3,8-2.76s-11,23.76-11.16,24.11c.18-.11,7.73-4.71,9.76-4.22s-10.38,23.57-10.56,23.9c.22-.09,9.32-4,9.48-1.89s-12.45,19.6-10.65,20.78C441.89,577.85,456.43,569.08,460.24,568.12Z"/><path class="cls-3" d="M467.85,547.28c-.25,2.66,9.45,17.07,9.45,17.07l-11.88-1.71.52,6.56c.36,9.53,5.06,29.69,5.06,29.69-5.36,1.75-8.53,1.6-10.28,1.11h0l-.48-31.88c-3.81,1-18.35,9.73-20,8.65-1.8-1.18,10.82-18.65,10.65-20.78s-9.26,1.8-9.48,1.89c.18-.33,12.6-23.4,10.56-23.9s-9.58,4.11-9.76,4.22c.18-.35,12.59-23.57,11.16-24.11s-7.84,2.67-8,2.76c.18-.29,10.78-18.2,13.62-32.85a10.38,10.38,0,0,0,0,1.75c.71,7.95,8.86,22.62,8.86,22.62s-6.13-.84-6.5,2.17,14.61,19.58,14.92,19.93c-.27-.07-11.6-3-11.65-.74s12.77,18.68,13.08,19.09C477.48,548.72,468.11,544.66,467.85,547.28Z"/><path class="cls-4" d="M498,574.69c-5.72-2-26.53-3-26.53-3-.15,11.39,5.3,24.89,5.3,24.89a55.91,55.91,0,0,1-5.74,2.26s-4.7-20.16-5.06-29.69l-.52-6.56,11.88,1.71s-9.7-14.41-9.45-17.07,9.63,1.44,9.86,1.54c-.31-.4-13.13-16.81-13.08-19.09s11.38.67,11.65.74c-.31-.34-15.3-17-14.92-19.93s6.5-2.17,6.5-2.17S458.38,491.3,459,484l24.84,35.56L473.33,515l17.8,25.58-13.63-5.35L496.26,559l-13.19-2.62S503.69,576.72,498,574.69Z"/><path class="cls-1" d="M476.28,530.47h0"/><path class="cls-1" d="M477.72,548.82h0"/><path class="cls-3" d="M460.72,600l-.48-31.88a1.41,1.41,0,0,1,.76-.06C462.75,568.75,460.74,599.62,460.72,600Z"/><path class="cls-3" d="M459,485.75l1.24,82.37c-3.81,1-18.35,9.73-20,8.65-1.8-1.18,10.82-18.65,10.65-20.78s-9.26,1.8-9.48,1.89c.18-.33,12.6-23.4,10.56-23.9s-9.58,4.11-9.76,4.22c.18-.35,12.59-23.57,11.16-24.11s-7.84,2.67-8,2.76c.18-.29,10.78-18.2,13.62-32.85Z"/><path class="cls-4" d="M173.71,483.48c-20-8.76-92.24-13.75-92.24-13.75.09,47.43,19.75,104,19.75,104a169.92,169.92,0,0,1-19.79,9.12S64,498.58,62.22,458.86l-2.14-27.34,41.34,7.78s-34.48-60.56-33.74-71.61,33.5,6.51,34.3,6.93c-1.11-1.7-46.51-70.72-46.45-80.23s39.53,3.4,40.48,3.71c-1.08-1.44-54-71.44-52.89-83.82s22.46-8.66,22.46-8.66S31.75,134,33.39,103.62l88.16,149.47L84.93,233.6l63.2,107.52-47.62-23.05,66.42,99.74L121,406.2S193.7,492.23,173.71,483.48Z"/><path class="cls-1" d="M96,298.1h0"/><path class="cls-1" d="M102,374.63h0"/><path class="cls-3" d="M45.78,586.87,42.37,454a4.05,4.05,0,0,1,2.65-.18C51.14,456.8,45.85,585.29,45.78,586.87Z"/><path class="cls-4" d="M1042.62,534.28h0C1017.94,558.91,612.75,637,517.78,617.05S.12,579.78.12,579.78v-71.5s230.24,52.07,509.39,65.44q18.76.88,37.8,1.54h0l1,0c32,1.08,64.51,1.62,97.29,1.48l8.41,0,3.32,0,7.81-.1,6.93-.1c1.84,0,3.69,0,5.54-.09,5.53-.1,11.07-.21,16.62-.36,2.83-.06,5.66-.15,8.49-.23,2.09-.06,4.19-.12,6.29-.2q8.41-.25,16.84-.61l8.34-.35,1.88-.09c2.13-.08,4.25-.19,6.38-.3,1.25,0,2.49-.11,3.74-.18,5.8-.29,11.59-.59,17.39-1q3.57-.2,7.13-.44c1.65-.09,3.3-.2,4.95-.31l2.6-.17,6.88-.47q5-.35,10-.73,4.68-.35,9.34-.73l9-.75,5.37-.47,6.45-.58L831,568l7.68-.75,5.91-.61c.3,0,.6-.05.89-.09l7.26-.77,5.82-.65q6.24-.69,12.45-1.45l.36,0q41.14-5,81.4-12.07l1.27-.23q12.57-2.24,25-4.72l2.19-.49.62-.14,3.65-.79,1-.22.63-.13,1-.21.27-.06.9-.19,1.89-.39,1.84-.39,2.36-.48,1-.2q3.12-.64,6.73-1.35l1.22-.24.21,0,1.85-.37.45-.09,1.29-.25.17,0,3.87-.75,3.25-.61,2.06-.39,2.3-.43,2.66-.49c4.13-.76,8.51-1.55,13.11-2.35l3.64-.63,2.63-.45Z"/><path class="cls-4" d="M1151.21,519.89c-15.61,1.43-30.83,3.14-45.34,5-19.62,1-62.38-28.12-63.24-28.71,1.27-.09,2.49-.13,3.66-.13C1086.11,496,1133.58,514.64,1151.21,519.89Z"/><path class="cls-2" d="M1042.63,496.16c-18.64,5.07-61.87,27.57-61.87,27.57C940.84,541.45,953.54,551,954,551.3l-1.27.23c-10.33,1.58-25-1.76-42.5-7.42C910.26,544.11,1000.88,498.82,1042.63,496.16Z"/><path class="cls-3" d="M1105.87,524.87c-23.33,3-44.83,6.28-63.25,9.41h0l-.78.13-2.63.45-3.64.63c-4.6.8-9,1.59-13.11,2.35l-2.66.49-2.3.43-2.06.39-3.25.61-3.87.75-.17,0-1.29.25-.45.09-1.85.37-.21,0-1.22.24q-3.61.71-6.73,1.35l-1,.2-2.36.48-1.84.39-1.89.39-.9.19-.27.06-1,.21-.63.13-1,.22-3.65.79-.62.14-2.19.49q-12.45,2.49-25,4.72c-.49-.35-13.19-9.85,26.73-27.57,0,0,43.23-22.5,61.87-27.57C1043.49,496.75,1086.25,525.87,1105.87,524.87Z"/><line class="cls-5" x1="1151.22" y1="519.89" x2="1151.21" y2="519.89"/><path class="cls-4" d="M952.76,551.53c-26.78,4.77-54,8.77-81.38,12.07h0c-33.71-.6-70.82-34-77.84-43.83-6.64-9.25,8.62-11.93,8.62-11.93s73.43,24.95,105.77,38.91c0,0,15.81,6.12,38.94,5.16A35.88,35.88,0,0,0,952.76,551.53Z"/><path class="cls-6" d="M952.76,551.53q-3,.27-5.91.38"/><path class="cls-4" d="M302,569.4a37.47,37.47,0,0,0-23.55-1.63s-51.07-3.92-48.9-27.13,20.81-129.93,6.32-174.79-3.28-103.33-1.12-114S230.65,175.11,255.57,136c1.84,1.52,3.94,3.22,6.33,5.08,0,0-33.7,79.21,0,186.23,0,0,131-34.61,204.78-25.7a42,42,0,0,0-3.35,8c-.43,1.82.77,4.11,1.83,5.73-22.39-8.54-73.17-.89-73.17-.89-23.58.51-126.43,36.19-126.43,36.19,2.26,4.18-.22,4.81-.76,5.5h0V364c10.46,28.32,4.35,167.21,4.35,167.21"/><path class="cls-3" d="M466.68,317.34c-75.85-16.56-192,34.37-201.88,38.81.54-.7-.76,1.9-.76-6.2,0,0,104.37-35,128-35.5,0,0,50.78-7.65,73.17.89h0A19.81,19.81,0,0,0,466.68,317.34Z"/><path class="cls-3" d="M193.34,543.68c8.83,6.72-5.09,1.32,12.67,8.44,3.89,1.55.62,1.53,5.38,5.64l.05.57,17,4.65s-.35-1.13,9-3.41c0,0-9.47-1.23-1.66-24.45,7.32-21.73,20.49-128.51,6-173.37s-9.28-99.23-7.12-109.87S230.65,175.11,255.57,136c-6.39-5.26-9.68-8.4-10.92-9.65.59.88.76,2.42.41,4.76-2.92,18.9-24.71,15.21-24.71,15.21-2.51,8.66-3.75,37.93-4.32,56.79h0c0,1.47-.08,2.85-.12,4.18-.18,7.44-.25,12.47-.25,12.47-3.26,16.79-3.72,62.42-3.72,62.42-3.48,17.84,3.48,44.59,3.48,44.59a484.31,484.31,0,0,1,4.72,81.91s24.63-4.33,29.85,23.2-27.88,26.57-27.88,26.57,0,7.86-7,62.16"/><path class="cls-7" d="M244.65,126.34c-.35-.34-.52-.54-.57-.58v0"/><path class="cls-2" d="M222.11,458.45c-29.4-36.6-2-49.77-2-49.77s24.63-4.33,29.85,23.2S222.11,458.45,222.11,458.45Z"/><path class="cls-2" d="M245.06,131.1c-2.92,18.9-24.71,15.21-24.71,15.21-3.65-.23,18.31-24.13,23.72-20.57v0a2,2,0,0,1,.57.58C245.24,127.22,245.41,128.76,245.06,131.1Z"/><path class="cls-3" d="M476.4,311.83c-2.76,10.11-9.72,5.51-9.72,5.51a19.81,19.81,0,0,1-1.51-2h0c-1.06-1.62-2.26-3.91-1.83-5.73a42,42,0,0,1,3.35-8S479.15,301.73,476.4,311.83Z"/><line class="cls-7" x1="216.05" y1="203.1" x2="216.03" y2="203.1"/><path class="cls-2" d="M215.91,207.29c-.18,7.44-.25,12.47-.25,12.47s-16.4-9.87-26-10.82a0,0,0,0,0,0,0c-.17-.24-1.42-2,0-3.26S209.51,210.89,215.91,207.29Z"/><path class="cls-3" d="M215.66,219.76s.07-5,.25-12.47c-6.4,3.6-24.74-3-26.27-1.63s-.19,3,0,3.26a11.55,11.55,0,0,0-2.56,0s-7.4-5.52,0-8.46c0,0,22.88,6.76,29,2.66Z"/><path class="cls-8" d="M264.8,356.15h0"/><path class="cls-3" d="M1268.67,516.09,920.25,570.36c12.51-2,333.06-54.28,348.19-54.28Z"/><path class="cls-8" d="M547.31,575.26h0"/><path class="cls-6" d="M1042.63,496.16h0"/><path class="cls-6" d="M954,551.31h0"/><path class="cls-4" d="M1417.44,538.66V557.3c-23.4-19.53-58.27-30.86-98.3-36.68C1323,521.1,1405.64,531.43,1417.44,538.66Z"/><path class="cls-9" d="M1319,520.6l.14,0"/><path class="cls-3" d="M217.18,524.63c-.34,7.15-14.62,25.5-14.62,25.5"/><line class="cls-6" x1="418.22" y1="314.55" x2="425.18" y2="464.03"/><polygon class="cls-2" points="434.16 468.14 427.31 470.51 367.45 470.87 373.32 468.14 434.16 468.14"/><line class="cls-10" x1="375.65" y1="466.37" x2="367.36" y2="318.08"/><polygon class="cls-2" points="373.32 463.31 373.32 468.14 367.45 470.87 367.27 467.79 373.32 463.31"/><polygon class="cls-3" points="435.97 463.31 434.16 468.14 373.32 468.14 373.32 463.31 435.97 463.31"/><path class="cls-3" d="M1417.44,645.37V557.31c-23.4-19.54-58.27-30.87-98.3-36.69l-.14,0a502,502,0,0,0-50.33-4.51h-.23c-15.13,0-335.68,52.25-348.19,54.28l-.2,0-.1,0h-.08c-134.38,29.16-338.27,60-402.09,46.64C422.8,597.13.12,579.78.12,579.78v65.59Z"/><path class="cls-3" d="M67.68,367.68c.73-10.92,33.5,6.51,34.3,6.93-1.1-1.7-46.51-70.72-46.45-80.23s39.53,3.41,40.48,3.71c-1.08-1.44-54-71.44-52.88-83.82s22.45-8.66,22.45-8.66-29.07-61.55-32-94.72a50.43,50.43,0,0,1-.19-7.27C27.48,143.4,10.1,188.83-1.38,215.84l.07,18c6.58-3.28,14.23-6.49,16.9-5.24,2.51,1.17-6.79,26-16.75,50.58L-1,315.34c5.35-2.79,10.31-4.7,12.85-3.93,3.3,1-3.94,22.08-12.71,44.53l.16,45.34C4.7,399.9,9,399.83,9.28,403c.22,2.88-4.14,12.42-9.92,24.17L-.46,478C15.84,468.48,35,456.19,42.37,454l3.41,132.83h0c6.12,2.11,17.12,2.93,35.65-4.07,0,0-17.44-84.23-19.21-124l-2.14-27.33,41.34,7.77S66.94,378.74,67.68,367.68Z"/><path class="cls-2" d="M9.28,403c-.25-3.2-4.58-3.13-10-1.75l.09,25.92C5.14,415.45,9.5,405.91,9.28,403Z"/><path class="cls-2" d="M11.82,311.41c-2.54-.77-7.5,1.14-12.85,3.93l0,11.32,1.08-.75L-1,328.24l.1,27.7C7.88,333.49,15.12,312.42,11.82,311.41Z"/><path class="cls-2" d="M42.37,454C35,456.19,15.84,468.48-.46,478l0,13.33c20.56-9.22,40-17.29,40-17.29,2.32,14.26-.47,108.63-.47,108.63s1.76,2.53,6.66,4.22Z"/><path class="cls-2" d="M-1.46,191.26l.08,24.58c11.48-27,28.86-72.44,34.77-112.22Z"/><path class="cls-2" d="M15.59,228.62c-2.67-1.25-10.32,2-16.9,5.24l0,8.94L2.39,240l-3.65,9.24.1,29.92C8.8,254.6,18.1,229.79,15.59,228.62Z"/><path class="cls-3" d="M-1.31,233.86c6.58-3.28,14.23-6.49,16.9-5.24,2.51,1.17-6.79,26-16.75,50.58L-1,315.34c5.35-2.79,10.31-4.7,12.85-3.93,3.3,1-3.94,22.08-12.71,44.53l.16,45.34C4.7,399.9,9,399.83,9.28,403c.22,2.88-4.14,12.42-9.92,24.17L-.46,478C15.84,468.48,35,456.19,42.37,454L33.58,110.89l-.19-7.27C27.48,143.4,10.1,188.83-1.38,215.84Z"/><path class="cls-4" d="M1377.38,507.28s25.08,4.92,40.06,9.38V503.5c-6.62-8.49-13.93-17.05-13.93-17.05l13.93,4.66V479.34l-18.2-27.7,18.2,9.47v-7l-20.12-35.48,18.22,10.22-36-63.24c-3.21,11.31,9.51,41,9.51,41s-11.17-3.12-12.74,1.5,21.57,35.1,22,35.73c-.49-.19-20.75-8.15-21.5-4.58s18.39,33.15,18.86,33.88c-.4-.22-16.7-9.36-17.93-5.31s12.67,29.63,12.67,29.63l-21.65-6.17-.94,10.47c-2.09,15.1.85,48.21.85,48.21,3.3-.38,7.07-1,11.35-1.89C1380.05,548,1373.79,525.16,1377.38,507.28Z"/></svg>