<svg id="Layer_1" data-name="Layer 1" xmlns="http://www.w3.org/2000/svg" viewBox="0 0 271.33 94.32"><defs><style>.cls-1{fill:#0468a9;}.cls-2{fill:#263674;}.cls-3{fill:#07488e;}.cls-4,.cls-5,.cls-6,.cls-7,.cls-8{fill:none;}.cls-4{stroke:#1d1d1b;stroke-linejoin:round;}.cls-5{stroke:#253673;}.cls-5,.cls-7,.cls-8{stroke-miterlimit:10;}.cls-7{stroke:#07488e;}.cls-8{stroke:#0468a9;}</style></defs><title>count_mountain</title><path class="cls-1" d="M209.8,69.27a58.15,58.15,0,0,1-1.73,14.09,40.1,40.1,0,0,1-6.45-9.62C183.28,29.5,125,16.56,125,16.56a89.85,89.85,0,0,1,11.21-.7c35.31,0,64.93,20.45,73,48a15.48,15.48,0,0,1-1-2.07C208.57,64.23,209.8,66.78,209.8,69.27Z"/><path class="cls-2" d="M97.7,24.75C73.19,39.25,70.39,63.41,70.34,63.89c-.13,0-5.17,1.36-2.91-10.48.27-.51.55-1,.83-1.51q1.38-2.43,3-4.74A70.64,70.64,0,0,1,97.7,24.75Z"/><path class="cls-2" d="M198.27,38.36l-3.8,3.22a.83.83,0,0,1-.19-.38,36.24,36.24,0,0,0,3.26-2.49s-3.89-2-5.13-2.53,4.64-.71,4.64-.71l-2.66-1.38,5.67-.44-3-1.1,5.67-.79-2.35-.8,7.91-1.07A21.82,21.82,0,0,1,202,31.15a8.13,8.13,0,0,1,1.67.89c.17.26-4.72.75-4.79.76a9.54,9.54,0,0,1,2.13,1c.28.34-4.58.82-4.66.83s2,.95,1.81,1.18-4.45.13-4.3.51S197.52,37.91,198.27,38.36Z"/><path class="cls-3" d="M202.07,37.41c-.37.23-.51,3.06-.51,3.06l-1.76-1.89-.71.72A23.75,23.75,0,0,0,196.32,43a6.06,6.06,0,0,1-1.85-1.38h0l3.8-3.22c-.75-.45-4.22-1.69-4.37-2s4.07-.27,4.3-.51-1.76-1.16-1.81-1.18,4.94-.49,4.66-.83a9.54,9.54,0,0,0-2.13-1c.07,0,5-.5,4.79-.76a8.13,8.13,0,0,0-1.67-.89,21.82,21.82,0,0,0,6.25-1.26.79.79,0,0,0-.2.17c-.85.89-1.29,3.52-1.29,3.52s-.91-1-1.34-.73,0,4,0,4.12-1.55-2-1.84-1.76-.15,3.7-.15,3.78S202.43,37.19,202.07,37.41Z"/><path class="cls-1" d="M203.73,44.48a49.83,49.83,0,0,0-4-4.14,8.07,8.07,0,0,0-2.15,3.23c-.47-.22-.88-.42-1.22-.61a23.75,23.75,0,0,1,2.77-3.66l.71-.72,1.76,1.89s.14-2.83.51-3.06S203.49,39,203.52,39s-.14-3.56.15-3.78,1.81,1.72,1.84,1.76-.47-3.88,0-4.12,1.34.73,1.34.73.51-3.06,1.49-3.69l-.2,7.1-1.19-2-.16,5.11-1.61-2.51.23,5.06-1.87-2.17S204.44,45.51,203.73,44.48Z"/><path class="cls-4" d="M205.51,37h0"/><path class="cls-4" d="M203.52,39h0"/><path class="cls-3" d="M194.47,41.58l3.8-3.22a.67.67,0,0,1,.14.11C198.61,38.79,194.52,41.54,194.47,41.58Z"/><path class="cls-3" d="M208.09,30.06l-9.82,8.3c-.75-.45-4.22-1.69-4.37-2s4.07-.27,4.3-.51-1.76-1.16-1.81-1.18,4.94-.49,4.66-.83a9.54,9.54,0,0,0-2.13-1c.07,0,5-.5,4.79-.76a8.13,8.13,0,0,0-1.67-.89,21.82,21.82,0,0,0,6.25-1.26Z"/><path class="cls-2" d="M90.38,24.43l2.1,5a1.4,1.4,0,0,1-.55,0,34.52,34.52,0,0,0-1.47-4.14s-4.37,2.63-5.57,3.54,1.36-4.58,1.36-4.58l-3,1.8,2.18-5.39-2.79,2.24,1.76-5.55-2.1,1.78,2.49-7.74c.18,2.54-1.43,6.25-1.46,6.31a9.12,9.12,0,0,1,1.89-1.12c.4,0-1.35,4.66-1.37,4.73a10.25,10.25,0,0,1,2.24-1.49c.56-.1-1.2,4.57-1.23,4.64s2.15-1.42,2.32-1.1-2,4.13-1.45,4.16S89.47,24.91,90.38,24.43Z"/><path class="cls-3" d="M91.05,20.52c.1.44,3.48,1.87,3.48,1.87l-3.15.75.53,1a27.45,27.45,0,0,0,3.15,4.22,7.74,7.74,0,0,1-2.58,1.05h0l-2.1-5c-.91.48-4.11,3.09-4.6,3.06s1.63-3.84,1.45-4.16S85,24.4,84.91,24.43s1.79-4.74,1.23-4.64a10.25,10.25,0,0,0-2.24,1.49c0-.07,1.77-4.77,1.37-4.73a9.12,9.12,0,0,0-1.89,1.12c0-.06,1.64-3.77,1.46-6.31a.8.8,0,0,0,.12.27c.67,1.19,3.68,2.79,3.68,2.79s-1.63.39-1.54.9,5,1.82,5.07,1.85c-.08,0-3.17.51-3,.88s4.44,1.84,4.54,1.87C93.61,19.93,91,20.09,91.05,20.52Z"/><path class="cls-1" d="M100.48,22.25c-1.59.17-7,1.8-7,1.8a9.58,9.58,0,0,0,2.9,3.45c-.49.33-.93.61-1.33.84a27.45,27.45,0,0,1-3.15-4.22l-.53-1,3.15-.75S91.15,21,91.05,20.52s2.56-.59,2.62-.6c-.1,0-4.41-1.51-4.54-1.87s3-.87,3-.88c-.1,0-5-1.36-5.07-1.85s1.54-.9,1.54-.9-3.5-1.87-3.8-3.06l8.59,3.46-3,.18,6.16,2.49-3.83.32,6.29,2.12-3.55.72S102.08,22.08,100.48,22.25Z"/><path class="cls-4" d="M92.17,17.17h0"/><path class="cls-4" d="M93.68,19.92h0"/><path class="cls-3" d="M92.48,29.39l-2.1-5,.2-.07C91.07,24.32,92.47,29.33,92.48,29.39Z"/><path class="cls-3" d="M85,11.63l5.42,12.8c-.91.48-4.11,3.09-4.6,3.06s1.63-3.84,1.45-4.16S85,24.4,84.91,24.43s1.79-4.74,1.23-4.64a10.25,10.25,0,0,0-2.24,1.49c0-.07,1.77-4.77,1.37-4.73a9.12,9.12,0,0,0-1.89,1.12c0-.06,1.64-3.77,1.46-6.31Z"/><path class="cls-2" d="M102.47,19.93l2.16,7.56a1.54,1.54,0,0,1-.68-.11,58.45,58.45,0,0,0-1.47-6.24S96.84,24,95.28,25s2.09-6.27,2.09-6.27L93.55,20.7l3.18-7.26-3.65,2.61,2.67-7.59L93,10.57,96.76,0c0,3.68-2.33,8.65-2.36,8.74a9.3,9.3,0,0,1,2.43-1.2c.5,0-2.08,6.39-2.12,6.49s2.22-1.64,2.92-1.66-1.9,6.3-1.94,6.4,2.78-1.58,3-1.09-2.82,5.5-2.16,5.66S101.29,20.42,102.47,19.93Z"/><path class="cls-3" d="M103.64,14.46c.08.65,4.15,3.43,4.15,3.43l-4,.39.58,1.53a45.34,45.34,0,0,0,3.52,6.72,8,8,0,0,1-3.28,1h0l-2.16-7.56c-1.18.49-5.36,3.56-6,3.41s2.35-5.17,2.16-5.66-2.9,1.05-3,1.09,2.63-6.42,1.94-6.4S94.77,14,94.71,14s2.62-6.46,2.12-6.49a9.3,9.3,0,0,0-2.43,1.2c0-.09,2.36-5.06,2.36-8.74a1.71,1.71,0,0,0,.12.41c.73,1.85,4.31,4.79,4.31,4.79s-2,.21-2,1,6,3.68,6.11,3.74c-.09,0-4,.06-3.84.61s5.33,3.59,5.46,3.66C106.86,14.16,103.55,13.82,103.64,14.46Z"/><path class="cls-1" d="M115.17,19c-2-.1-8.83,1.08-8.83,1.08a15.81,15.81,0,0,0,3.29,5.57c-.63.37-1.21.68-1.72.92a45.34,45.34,0,0,1-3.52-6.72l-.58-1.53,4-.39s-4.07-2.78-4.15-3.43,3.22-.3,3.3-.3c-.13-.07-5.33-3.11-5.46-3.66s3.75-.61,3.84-.61c-.12-.06-6-3-6.11-3.74s2-1,2-1S97,1.78,96.76,0l10.33,6.79-3.7-.37,7.41,4.88L106,11l7.6,4.37-4.46.27S117.16,19.05,115.17,19Z"/><path class="cls-4" d="M105.32,9.89h0"/><path class="cls-4" d="M106.94,14.16h0"/><path class="cls-3" d="M104.63,27.49l-2.16-7.56a.81.81,0,0,1,.24-.06C103.32,19.91,104.61,27.4,104.63,27.49Z"/><path class="cls-3" d="M96.88.41l5.59,19.52c-1.18.49-5.36,3.56-6,3.41s2.35-5.17,2.16-5.66-2.9,1.05-3,1.09,2.63-6.42,1.94-6.4S94.77,14,94.71,14s2.62-6.46,2.12-6.49a9.3,9.3,0,0,0-2.43,1.2c0-.09,2.36-5.06,2.36-8.74Z"/><path class="cls-2" d="M187.48,29.24l-3.12,3.46a.78.78,0,0,1-.21-.33,36.26,36.26,0,0,0,2.7-2.71s-3.72-1.42-4.88-1.73,4.12-1.23,4.12-1.23l-2.53-.95,5.07-1.1L185.82,24l5.05-1.43-2.2-.45,7-2a20.06,20.06,0,0,1-5.52,1.94,6.84,6.84,0,0,1,1.59.62c.18.22-4.19,1.28-4.25,1.3a8.2,8.2,0,0,1,2,.66c.29.29-4.07,1.33-4.13,1.34s1.93.64,1.74.88-4,.67-3.83,1S186.76,28.91,187.48,29.24Z"/><path class="cls-3" d="M190.82,27.9c-.31.25-.16,2.89-.16,2.89l-1.78-1.54-.57.76a23.28,23.28,0,0,0-2.15,3.74,5,5,0,0,1-1.8-1h0l3.12-3.46c-.72-.33-4-1-4.15-1.36s3.65-.75,3.83-1-1.69-.86-1.74-.88,4.42-1.05,4.13-1.34a8.2,8.2,0,0,0-2-.66c.06,0,4.43-1.08,4.25-1.3a6.84,6.84,0,0,0-1.59-.62,20.06,20.06,0,0,0,5.52-1.94,1.08,1.08,0,0,0-.17.19,8.89,8.89,0,0,0-.82,3.42s-.91-.79-1.28-.51.43,3.75.45,3.83-1.6-1.65-1.84-1.41.22,3.45.23,3.53S191.12,27.64,190.82,27.9Z"/><path class="cls-1" d="M193,34.26A45,45,0,0,0,189,30.91a7.87,7.87,0,0,0-1.63,3.26c-.45-.14-.83-.28-1.16-.42A23.28,23.28,0,0,1,188.31,30l.57-.76,1.78,1.54s-.15-2.64.16-2.89,1.43,1.25,1.46,1.29-.47-3.3-.23-3.53,1.8,1.37,1.84,1.41-.81-3.56-.45-3.83,1.28.51,1.28.51.16-2.9,1-3.61l.51,6.62L195,25.08l.36,4.76-1.7-2.12.69,4.66-1.9-1.78S193.74,35.13,193,34.26Z"/><path class="cls-4" d="M193.89,27.07h0"/><path class="cls-4" d="M192.28,29.19h0"/><path class="cls-3" d="M184.36,32.7l3.12-3.46a.4.4,0,0,1,.13.09C187.83,29.6,184.4,32.66,184.36,32.7Z"/><path class="cls-3" d="M195.54,20.33l-8.06,8.91c-.72-.33-4-1-4.15-1.36s3.65-.75,3.83-1-1.69-.86-1.74-.88,4.42-1.05,4.13-1.34a8.2,8.2,0,0,0-2-.66c.06,0,4.43-1.08,4.25-1.3a6.84,6.84,0,0,0-1.59-.62,20.06,20.06,0,0,0,5.52-1.94Z"/><path class="cls-2" d="M191.14,34.46l-4.73,4a.87.87,0,0,1-.2-.43s3.64-2.63,4-3.16c0,0-4.46-2.24-5.89-2.76s5.54-1.1,5.54-1.1l-3-1.51,6.74-.82-3.46-1.16,6.76-1.25-2.71-.83,9.43-1.7a27.52,27.52,0,0,1-7.49,1.84,8.26,8.26,0,0,1,1.91,1c.18.3-5.63,1.15-5.72,1.16a9.7,9.7,0,0,1,2.45,1.09c.3.39-5.49,1.22-5.57,1.23s2.33,1,2,1.33-5.27.38-5.11.83S190.29,34,191.14,34.46Z"/><path class="cls-3" d="M195.71,33.12c-.45.29-.83,3.68-.83,3.68l-1.95-2.17-.89.9a33.1,33.1,0,0,0-3.55,4.53,6,6,0,0,1-2.08-1.56h0l4.73-4c-.85-.51-4.87-1.82-5-2.22s4.82-.54,5.11-.83-2-1.31-2-1.33,5.87-.84,5.57-1.23a9.7,9.7,0,0,0-2.45-1.09c.09,0,5.9-.86,5.72-1.16a8.26,8.26,0,0,0-1.91-1,27.52,27.52,0,0,0,7.49-1.84,1.64,1.64,0,0,0-.25.22c-1.07,1.11-1.78,4.28-1.78,4.28s-1-1.12-1.53-.8-.25,4.84-.25,4.94c0-.06-1.69-2.29-2.05-2s-.45,4.44-.46,4.54S196.15,32.84,195.71,33.12Z"/><path class="cls-1" d="M197.15,41.5a49.72,49.72,0,0,0-4.47-4.74,11.1,11.1,0,0,0-2.78,4c-.55-.24-1-.46-1.41-.67A33.1,33.1,0,0,1,192,35.53l.89-.9,1.95,2.17s.38-3.39.83-3.68,1.57,1.77,1.59,1.82.11-4.26.46-4.54,2,2,2.05,2c0-.1-.27-4.64.25-4.94s1.53.8,1.53.8.82-3.69,2-4.5l-.76,8.52L201.6,30,201,36.13l-1.72-2.92-.1,6-2.06-2.5S197.91,42.69,197.15,41.5Z"/><path class="cls-4" d="M199.81,32.42h0"/><path class="cls-4" d="M197.3,34.94h0"/><path class="cls-3" d="M186.41,38.5l4.73-4c.08,0,.14.08.15.12C191.52,35,186.48,38.46,186.41,38.5Z"/><path class="cls-3" d="M203.37,24,191.14,34.46c-.85-.51-4.87-1.82-5-2.22s4.82-.54,5.11-.83-2-1.31-2-1.33,5.87-.84,5.57-1.23a9.7,9.7,0,0,0-2.45-1.09c.09,0,5.9-.86,5.72-1.16a8.26,8.26,0,0,0-1.91-1,27.52,27.52,0,0,0,7.49-1.84Z"/><path class="cls-1" d="M63.93,62.87a3.29,3.29,0,0,0-1.73.73s-2.52.89-3.31-.54-4.27-8.4-7.13-10.49a22.83,22.83,0,0,1-5.55-5.73c-.28-.7-3.42-4.31-3.25-7.45l.65.07s.85,5.77,7.6,10.79c0,0,7.86-6.62,13.44-8.7a2.21,2.21,0,0,0,.09.58.59.59,0,0,0,.37.27c-1.94.3-5.22,2.53-5.22,2.53-1.65.86-7.47,6.54-7.47,6.54.33.17.18.29.17.35h0l.33.46c1.89,1.27,7.13,9.53,7.13,9.53"/><path class="cls-3" d="M65.29,42.47c-6,1.7-12.18,8.74-12.7,9.35,0-.06,0,.14-.3-.33,0,0,6-5.7,7.6-6.56,0,0,3.28-2.23,5.22-2.53h0Z"/><path class="cls-3" d="M55.79,63.1c-1.72-3.39-2-3.85-2-3.85s2.38-1.11.89-2.52a2.42,2.42,0,0,0-3.06-.3,31.74,31.74,0,0,0-3.68-4.57,8.71,8.71,0,0,1-2.07-2.47,36.29,36.29,0,0,1-2.28-3.74l-.49-.74-.16-.24h0a24,24,0,0,1-2-3.44s1.69-.56,1.12-1.76a.49.49,0,0,0-.22-.26c.14,0,.5.1,1.17.18-.17,3.14,3,6.75,3.25,7.45a22.83,22.83,0,0,0,5.55,5.73c2.86,2.09,6.34,9.07,7.13,10.49s3.31.54,3.31.54a3,3,0,0,0-.82,1l.19.27-1.48.34c-2.52.4-3.21,1.1-3.56,1.68"/><path class="cls-5" d="M41.79,39.21h-.07"/><path class="cls-2" d="M53.75,59.25c-3.58-1.09-2.17-2.82-2.17-2.82a2.42,2.42,0,0,1,3.06.3C56.13,58.14,53.75,59.25,53.75,59.25Z"/><path class="cls-2" d="M42,39.47c.57,1.2-1.12,1.76-1.12,1.76-.27.11.31-2,.83-2h.07A.49.49,0,0,1,42,39.47Z"/><path class="cls-3" d="M65.76,41.8a.47.47,0,0,1-.47.67l-.18-.07h0a.59.59,0,0,1-.37-.27,2.21,2.21,0,0,1-.09-.58S65.54,41.12,65.76,41.8Z"/><line class="cls-5" x1="42.9" y1="44.67" x2="42.9" y2="44.67"/><path class="cls-2" d="M43.06,44.91l.49.74a8.74,8.74,0,0,0-2.28.28h0s-.18-.06-.14-.19S42.75,45.35,43.06,44.91Z"/><path class="cls-3" d="M43.55,45.65l-.49-.74c-.31.44-1.87.7-1.93.83s.11.19.14.19l-.19.09s-.74-.06-.34-.49c0,0,1.89-.41,2.16-.86Z"/><path class="cls-6" d="M52.59,51.82h0"/><path class="cls-1" d="M211.37,79.05a54.08,54.08,0,0,1-.5,7.34c-1-1-2-2.06-2.8-3a58.15,58.15,0,0,0,1.73-14.09c0-2.49-1.23-5-1.57-7.45a15.48,15.48,0,0,0,1,2.07,52.8,52.8,0,0,1,1.67,7.8h0A52.55,52.55,0,0,1,211.37,79.05Z"/><path class="cls-2" d="M246.81,76.91s-13.87,1-21.11,3.73l-1.31-.88A87.54,87.54,0,0,1,237,77.31,63.54,63.54,0,0,1,246.81,76.91Z"/><path class="cls-3" d="M254.43,80.2c-.66,2.52-1,6.53,1.25,13-13.27-3.41-23-8-30-12.61,7.24-2.76,21.11-3.73,21.11-3.73a63.46,63.46,0,0,1,9,1,6.39,6.39,0,0,1,2,.79C257.68,78.69,255,78,254.43,80.2Z"/><path class="cls-7" d="M224.39,79.76l-.22,0"/><path class="cls-1" d="M237,77.31a84.06,84.06,0,0,0-10.73,2c-4.76-8.37.42-7.52.76-7.46h0A42.91,42.91,0,0,1,237,77.31Z"/><path class="cls-2" d="M219.2,70.32a16.16,16.16,0,0,0-5.22.32l-.75-.88S215.59,69.88,219.2,70.32Z"/><path class="cls-3" d="M226.27,79.28l-1.88.48A56.57,56.57,0,0,1,214,70.64a16.16,16.16,0,0,1,5.22-.32c1.4.17,3,.39,4.68.67a17.67,17.67,0,0,1,3.15.83C226.69,71.76,221.51,70.91,226.27,79.28Z"/><polyline class="cls-8" points="70.34 63.89 70.34 63.9 70.34 63.89 70.34 63.89"/><path class="cls-2" d="M93.35,24.88a5,5,0,0,0-.73.73c-4.92,5.93-9.23,29.94-9.23,29.94l-3.7,1.88S79.43,51,87.21,32.7A17.05,17.05,0,0,1,93.35,24.88Z"/><path class="cls-1" d="M116.11,25.88h0c-.17.08-3.56,1.77-2.09,5.05a5.75,5.75,0,0,1-4.47-1.46c-6.44-5.63-16.92-3.86-16.92-3.86a5,5,0,0,1,.73-.73C102.73,18.62,116.11,25.88,116.11,25.88Z"/><path class="cls-1" d="M138.2,27.73l-7.07,3.59c-1.82.5-14.39-2.92-14.39-2.92-1.45-.34-1.13-2.11-1.13-2.11.15-.14.32-.27.49-.41h0S120.24,23.43,138.2,27.73Z"/><path class="cls-3" d="M131.13,31.32,83.39,55.55s4.31-24,9.23-29.94c0,0,10.48-1.77,16.92,3.86A5.75,5.75,0,0,0,114,30.93c-1.47-3.28,1.92-5,2.09-5.05-.17.14-.34.27-.49.41,0,0-.32,1.77,1.13,2.11C116.74,28.4,129.31,31.82,131.13,31.32Z"/><path class="cls-2" d="M115.61,26.29a4.61,4.61,0,0,0-1.6,4.64c-1.47-3.28,1.92-5,2.09-5.05C115.93,26,115.76,26.15,115.61,26.29Z"/><path class="cls-2" d="M24.36,94.32C38,89,51.91,82.33,61.16,74.68c4.13-3.41,7.33-7,9.18-10.78h0c-.13,0-5.17,1.36-2.91-10.48C48,74.6,20.17,87.31,0,94.32Z"/><path class="cls-3" d="M208.07,83.36a40.1,40.1,0,0,1-6.45-9.62C189.29,21.38,125,16.56,125,16.56A84.07,84.07,0,0,0,97.7,24.75C73.19,39.25,70.39,63.41,70.34,63.89c-.13,0-5.17,1.36-2.91-10.48a54.86,54.86,0,0,0-6.27,21.27C61,76.13,61,77.59,61,79.05a53.56,53.56,0,0,0,2.23,15.27H209.14a53.09,53.09,0,0,0,1.73-7.93C209.83,85.34,208.9,84.33,208.07,83.36Z"/><path class="cls-1" d="M210.86,71.7a52.55,52.55,0,0,1,.51,7.35,54.08,54.08,0,0,1-.5,7.34,67.4,67.4,0,0,0,9.48,7.93h39.82c-16.5-3.67-27.94-9.15-35.78-14.56a55.46,55.46,0,0,1-11.16-10,34.68,34.68,0,0,1-4-5.87,52.8,52.8,0,0,1,1.67,7.8Z"/><path class="cls-3" d="M73.52,94.32a61.46,61.46,0,0,1-3.71-21.47,79.1,79.1,0,0,1,.53-8.95c-6,12.22-26.23,22.72-46,30.42Z"/><path class="cls-3" d="M220.35,94.32a67.4,67.4,0,0,1-9.48-7.93c-1-1-2-2.06-2.8-3a57.68,57.68,0,0,1-4,11Z"/><path class="cls-2" d="M24.36,94.32C38,89,51.91,82.33,61.16,74.68c4.13-3.41,7.33-7,9.18-10.78h0c-.13,0-5.17,1.36-2.91-10.48C48,74.6,20.17,87.31,0,94.32Z"/><path class="cls-2" d="M24.36,94.32C38,89,51.91,82.33,61.16,74.68c4.13-3.41,7.33-7,9.18-10.78h0c-.13,0-5.17,1.36-2.91-10.48C48,74.6,20.17,87.31,0,94.32Z"/><path class="cls-1" d="M260.19,94.32h11.14c-2.68-4.17-8.65-12.84-13.48-15.59h0c-.16,0-2.84-.73-3.41,1.47-.66,2.52-1,6.53,1.25,13C257.14,93.62,258.65,94,260.19,94.32Z"/></svg>