<svg id="Layer_1" data-name="Layer 1" xmlns="http://www.w3.org/2000/svg" viewBox="0 0 1417.32 645.37"><defs><style>.cls-1,.cls-5{fill:none;}.cls-2{fill:#263674;}.cls-3{fill:#07488e;}.cls-4{fill:#0468a9;}.cls-5{stroke:#1d1d1b;stroke-linejoin:round;}</style></defs><title>forest</title><line class="cls-1" x1="27.28" y1="199.6" x2="-45.46" y2="148.3"/><path class="cls-2" d="M334.34,477.33l-13.5,71.4c-3.86-1.55-5-3.13-5-3.13s13.92-50,13.74-58c0,0-56.63,5.81-73.34,9.67s42.22-46.63,42.22-46.63L260,454.88l55-51.55-39.78,10.4,52.24-56-30.59,9L370,289c-15,31.31-53.84,66.15-54.47,66.72.55-.11,20.49-4.18,24.33-2.29s-42.66,47.73-43.35,48.41c.59-.16,24.42-6.76,30-4.68S285.67,444.7,285,445.36c.66-.1,28.65-4.41,28.14.37S268.19,483.45,272.82,487C277.05,490.16,323,477.64,334.34,477.33Z"/><path class="cls-3" d="M366,434.52c-2,5.81,19.21,42.68,19.21,42.68l-33.36-9.58-1.59,14.89c-3.41,21.45.71,68.73.71,68.73-16.24,1.31-25.27-.58-30.09-2.51h0l13.5-71.4c-11.39.31-57.29,12.83-61.52,9.62-4.63-3.5,39.79-36.38,40.31-41.22s-27.48-.47-28.14-.37c.68-.66,47.15-46.13,41.51-48.23s-29.45,4.52-30,4.68c.69-.68,47.21-46.51,43.35-48.41s-23.78,2.18-24.33,2.29c.63-.57,39.48-35.41,54.47-66.72a18.6,18.6,0,0,0-.74,3.91c-1.64,18.1,14.93,54.8,14.93,54.8s-17.22-4.84-19.71,1.68,32.88,50.8,33.6,51.71c-.75-.28-31.94-12.36-33.15-7.29s28,47.9,28.71,49C393,442.4,367.91,428.79,366,434.52Z"/><path class="cls-4" d="M439.76,510.3c-15.51-7.3-74.89-19.46-74.89-19.46-5.76,25.35,3.62,58.13,3.62,58.13-6.62,1.13-12.45,1.86-17.56,2.27,0,0-4.12-47.28-.71-68.73l1.59-14.88,33.36,9.58S364,440.33,366,434.53s27,7.87,27.63,8.21c-.71-1.06-29.92-43.89-28.71-49s32.4,7,33.15,7.3c-.72-.91-36.07-45.26-33.6-51.72s19.7-1.68,19.7-1.68S364.85,305,370,289l54.82,91.41-28-15.22L436,430.9l-36.69-18.56,42.88,62L405.48,462.1S455.27,517.6,439.76,510.3Z"/><path class="cls-5" d="M398,401.08h0"/><path class="cls-5" d="M393.6,442.74h0"/><path class="cls-3" d="M320.84,548.73l13.5-71.4a5.2,5.2,0,0,1,2.22.25C341.28,480,321.09,547.89,320.84,548.73Z"/><path class="cls-3" d="M369.21,292.88,334.34,477.33c-11.39.31-57.29,12.83-61.52,9.62-4.63-3.5,39.79-36.38,40.31-41.22s-27.48-.47-28.14-.37c.68-.66,47.15-46.13,41.51-48.23s-29.45,4.52-30,4.68c.69-.68,47.21-46.51,43.35-48.41s-23.78,2.18-24.33,2.29c.63-.57,39.48-35.41,54.47-66.72Z"/><path class="cls-2" d="M226.44,444.71l-6.82,86.9c-4.32-1.38-5.74-3.13-5.74-3.13s9.59-61.44,8.54-70.89c0,0-60.36,13.81-77.95,20.44s40.43-60.8,40.43-60.8l-41,9.69,53.66-68.23-41.73,17.24,50.22-73.16-32,14.41,70.33-101.73C231.68,254.66,193.6,301,193,301.73c.59-.2,21.62-7.47,26-5.68s-40.79,62.17-41.46,63.07c.62-.26,25.57-11,31.85-9.24s-38.84,61.76-39.49,62.64c.7-.2,30.38-8.74,30.34-3s-44.33,50.49-39,54.11C166.12,467,214.2,446.47,226.44,444.71Z"/><path class="cls-3" d="M255.87,389.76c-1.49,7.17,25.3,48.64,25.3,48.64l-37-7.4-.11,18c-1.35,26,8.2,82,8.2,82-17.36,3.54-27.29,2.38-32.68.66h0l6.82-86.9c-12.24,1.76-60.32,22.27-65.22,19-5.37-3.62,38.93-48.27,39-54.11s-29.64,2.77-30.34,3c.65-.88,45.79-60.82,39.49-62.64s-31.23,9-31.85,9.24c.67-.9,45.82-61.27,41.46-63.07s-25.37,5.48-26,5.68c.62-.75,38.7-47.07,51.46-86.28a24.4,24.4,0,0,0-.37,4.76c.18,21.82,22,63.63,22,63.63s-19.07-3.7-21,4.39,40.9,56.69,41.78,57.69c-.84-.25-35.74-10.9-36.49-4.69s35.33,53.81,36.2,55C285.81,395.89,257.35,382.67,255.87,389.76Z"/><path class="cls-4" d="M343.54,471.3c-17.49-6.83-82.76-14.15-82.76-14.15-3.46,31,10.18,69,10.18,69-7,2.16-13.2,3.74-18.66,4.85,0,0-9.55-56-8.2-82l.1-18,37,7.39s-26.8-41.46-25.3-48.64,29.94,6.13,30.64,6.45c-.88-1.17-37-48.77-36.2-55s35.65,4.44,36.49,4.69c-.87-1-43.74-49.67-41.78-57.68s21-4.39,21-4.39-25.38-48.66-21.62-68.39L313.36,318,281.55,303.2l49.38,73.74L289.4,359.22l52.88,68.84L301.42,417.9S361,478.14,343.54,471.3Z"/><path class="cls-5" d="M286.8,345.92h0"/><path class="cls-5" d="M286.53,396.22h0"/><path class="cls-3" d="M219.62,531.61l6.82-86.9a5.1,5.1,0,0,1,2.41,0C234.2,447,219.8,530.59,219.62,531.61Z"/><path class="cls-3" d="M244.07,220.21l-17.63,224.5c-12.24,1.76-60.32,22.27-65.22,19-5.37-3.62,38.93-48.27,39-54.11s-29.64,2.77-30.34,3c.65-.88,45.79-60.82,39.49-62.64s-31.23,9-31.85,9.24c.67-.9,45.82-61.27,41.46-63.07s-25.37,5.48-26,5.68c.62-.75,38.7-47.07,51.46-86.28Z"/><path class="cls-2" d="M89.34,344.51l4.52,126c-4.55-1.57-6.21-4-6.21-4S89.27,377,87,363.49c0,0-59.21,25.73-76.11,37s32.88-91.62,32.88-91.62L3.61,326.8,48.89,223.19,9,252.08,50.13,141.69,19.69,165.56,77.43,12c-7.75,57.8-40.17,128.29-40.69,129.44.56-.35,20.87-12.87,25.5-10.7s-33.08,93.62-33.63,95c.59-.43,24.4-18.38,31-16.39S28.44,302.19,27.9,303.52c.68-.36,29.56-15.53,30.28-7.2S20,373.43,25.9,378.14C31.3,382.46,77.2,348.23,89.34,344.51Z"/><path class="cls-3" d="M111.88,262.4c-.57,10.5,32,67.74,32,67.74L105.5,323,107.76,349c2,37.69,19,117.51,19,117.51-17.08,6.77-27.27,6.06-32.95,4.1v0l-4.52-126c-12.14,3.72-58,37.95-63.44,33.63-5.9-4.71,33-73.39,32.28-81.82s-29.6,6.84-30.28,7.2c.54-1.33,38.3-92.15,31.69-94.17s-30.39,16-31,16.39c.55-1.36,38.27-92.8,33.63-95s-24.94,10.35-25.5,10.7C37.26,140.31,69.68,69.82,77.43,12a50.16,50.16,0,0,0,.24,6.9c3,31.46,30.6,89.69,30.6,89.69s-19.77-3.5-20.7,8.36,48.79,77.85,49.81,79.21c-.88-.28-37.56-12.28-37.5-3.26s42.78,74.23,43.82,75.84C143,268.37,112.44,252,111.88,262.4Z"/><path class="cls-4" d="M211.21,371.62c-18.58-8.18-85.52-12.46-85.52-12.46.57,45,19.35,98.53,19.35,98.53a155.48,155.48,0,0,1-18.23,8.79s-17-79.83-19-117.51L105.5,323l38.34,7.11s-32.54-57.25-32-67.74,31.07,6,31.82,6.36c-1-1.61-43.78-66.82-43.82-75.84s36.62,3,37.5,3.25c-1-1.35-50.73-67.45-49.81-79.2s20.69-8.37,20.69-8.37S76.21,40.85,77.43,12l83.13,141.28-34.1-18.26,59.61,101.63-44.31-21.57,62.49,94.23-42.64-10.72S229.8,379.79,211.21,371.62Z"/><path class="cls-5" d="M137.38,196.18l0,0"/><path class="cls-5" d="M143.71,268.78h0"/><path class="cls-3" d="M93.86,470.55l-4.52-126a3.73,3.73,0,0,1,2.45-.18C97.49,347.08,93.91,469.05,93.86,470.55Z"/><path class="cls-3" d="M77.67,18.92,89.34,344.51c-12.14,3.72-58,37.95-63.44,33.63-5.9-4.71,33-73.39,32.28-81.82s-29.6,6.84-30.28,7.2c.54-1.33,38.3-92.15,31.69-94.17s-30.39,16-31,16.39c.55-1.36,38.27-92.8,33.63-95s-24.94,10.35-25.5,10.7C37.26,140.31,69.68,69.82,77.43,12Z"/><path class="cls-3" d="M-16.33,199.31c-.08,11.95,35.48,76.36,35.48,76.36l-39.07-7.29,3.5,29.43C-12.58,340.62,8.36,431,8.36,431c-16.94,8.05-27.27,7.45-33.1,5.34v0l-10.49-143.2c-12.09,4.47-56.86,44.34-62.51,39.54-6.19-5.24,29.9-84.13,28.76-93.69s-29.59,8.39-30.26,8.81c.49-1.52,34.37-105.56,27.59-107.72s-29.95,18.78-30.53,19.28c.5-1.56,34.3-106.3,29.51-108.69S-97.38,63-97.93,63.36c.48-1.31,29.91-82.13,35-148a64.71,64.71,0,0,0,.58,7.84C-57.78-41.1-27.22,24.54-27.22,24.54S-47.34,21-47.73,34.47s53,87.5,54.05,89c-.91-.31-38.52-13.19-38-2.93S15,204.08,16.12,205.89C15.34,205.45-16.25,187.51-16.33,199.31Z"/><path class="cls-4" d="M89.16,321.43C70,312.51,2.18,309,2.18,309,4.87,360.2,26.36,420.66,26.36,420.66A146.68,146.68,0,0,1,8.36,431s-20.93-90.41-24.78-133.21l-3.5-29.43,39.07,7.29s-35.56-64.41-35.48-76.36c.08-11.8,31.67,6.14,32.45,6.57-1.13-1.8-47.37-75.06-47.84-85.32s37.13,2.63,38,2.93c-1.09-1.52-54.43-75.64-54-89s20.51-9.94,20.51-9.94S-62.78-51.83-62.92-84.63L27.72,74.28-7.59,54.22l65,114.31-45.78-23.6L79.2,250.77,35.62,239.46S108.32,330.34,89.16,321.43Z"/><path class="cls-5" d="M6.32,123.5s0,0,0,0"/><path class="cls-5" d="M16.13,205.91v0"/><path class="cls-2" d="M1395,498l4.8,52.94a7.9,7.9,0,0,1-3.85-1.27s-.47-37.94-2.09-43.5c0,0-35.63,14.66-45.74,20.51s18.53-40.81,18.53-40.81L1342.45,496l25.89-46.67-23.84,14.77,23.27-49.27-18.15,12,32.66-68.55c-3.78,24.9-22.37,56.76-22.67,57.28.34-.19,12.5-6.78,15.35-6.16s-18.61,41.66-18.93,42.28c.35-.23,14.56-9.34,18.6-8.92s-17.45,41.21-17.77,41.81c.41-.19,17.75-8.46,18.33-5s-22,35-18.33,36.63C1360.22,517.77,1387.62,500.37,1395,498Z"/><path class="cls-3" d="M1407.34,461.89c-.18,4.47,20.56,26.56,20.56,26.56l-23.46-.54,1.8,10.8c1.86,15.79,13.51,48.41,13.51,48.41-10.29,4-16.51,4.31-20,3.84h0L1395,498c-7.33,2.35-34.73,19.75-38.09,18.27-3.67-1.61,18.91-33.12,18.33-36.63s-17.92,4.8-18.33,5c.32-.6,21.83-41.38,17.77-41.81s-18.25,8.69-18.6,8.92c.32-.62,21.8-41.66,18.93-42.28s-15,6-15.35,6.16c.3-.52,18.89-32.38,22.67-57.28a14.29,14.29,0,0,0,.26,2.89c2.37,13.09,20.09,35.92,20.09,35.92s-12.09-.21-12.46,4.86,31,29.75,31.62,30.25c-.54-.06-23.07-2.77-22.89,1s27.26,28.6,27.92,29.21C1426.35,462.41,1407.51,457.47,1407.34,461.89Z"/><path class="cls-4" d="M1469.6,501.64c-11.44-2.26-52.28.23-52.28.23,1.08,19,13.39,40.37,13.39,40.37-4.08,2-7.72,3.64-11,4.88,0,0-11.65-32.62-13.52-48.41l-1.79-10.8,23.46.54s-20.74-22.09-20.56-26.56,19,.53,19.48.64c-.67-.61-27.75-25.4-27.92-29.21s22.35-1.1,22.89-1c-.64-.51-32-25.23-31.62-30.26s12.46-4.86,12.46-4.86-20.62-26.56-20.35-38.81l52.93,54.33-21.07-5.52,37.95,39.09L1424.76,440l39.59,35.78L1438.21,474S1481.06,503.9,1469.6,501.64Z"/><path class="cls-3" d="M1399.75,551,1395,498a3.22,3.22,0,0,1,1.48-.24C1400,498.58,1399.76,550.32,1399.75,551Z"/><path class="cls-3" d="M1382.54,361.25,1395,498c-7.33,2.35-34.73,19.75-38.09,18.27-3.67-1.61,18.91-33.12,18.33-36.63s-17.92,4.8-18.33,5c.32-.6,21.83-41.38,17.77-41.81s-18.25,8.69-18.6,8.92c.32-.62,21.8-41.66,18.93-42.28s-15,6-15.35,6.16c.3-.52,18.89-32.38,22.67-57.28Z"/><path class="cls-2" d="M1326.69,491.37l5.85,64.4c-3.4-.45-4.68-1.55-4.68-1.55s-.58-46.15-2.55-52.91c0,0-43.34,17.84-55.64,24.95s22.54-49.64,22.54-49.64L1262.84,489l31.49-56.77-29,18,28.3-59.93-22.07,14.64,39.72-83.39c-4.59,30.3-27.2,69.05-27.57,69.68.41-.22,15.21-8.24,18.67-7.49s-22.64,50.68-23,51.42c.42-.27,17.71-11.35,22.62-10.84s-21.23,50.13-21.61,50.85c.5-.23,21.59-10.28,22.29-6.06s-26.75,42.59-22.29,44.55C1284.45,515.4,1317.78,494.23,1326.69,491.37Z"/><path class="cls-3" d="M1341.76,447.43c-.21,5.43,25,32.3,25,32.3l-28.54-.66,2.18,13.15c2.27,19.2,16.44,58.88,16.44,58.88-12.51,4.81-20.08,5.24-24.32,4.67h0l-5.85-64.4c-8.91,2.86-42.24,24-46.32,22.23-4.46-2,23-40.28,22.29-44.55s-21.79,5.83-22.29,6.06c.38-.72,26.55-50.33,21.61-50.85s-22.2,10.57-22.62,10.84c.38-.74,26.51-50.66,23-51.42s-18.26,7.27-18.67,7.49c.37-.63,23-39.38,27.57-69.68a17.26,17.26,0,0,0,.33,3.53c2.88,15.92,24.43,43.68,24.43,43.68s-14.71-.25-15.16,5.91,37.68,36.19,38.46,36.81c-.66-.08-28.06-3.38-27.84,1.25s33.15,34.79,34,35.54C1364.89,448.07,1342,442.06,1341.76,447.43Z"/><path class="cls-4" d="M1417.5,495.77c-13.92-2.75-63.59.29-63.59.29,1.31,23.08,16.28,49.1,16.28,49.1-5,2.48-9.39,4.43-13.33,5.94,0,0-14.17-39.68-16.44-58.88l-2.18-13.14,28.54.66s-25.24-26.87-25-32.31,23.13.64,23.7.78c-.81-.74-33.75-30.9-34-35.54s27.18-1.33,27.84-1.25c-.78-.62-38.91-30.69-38.46-36.8s15.16-5.91,15.16-5.91S1311,336.4,1311.28,321.5l64.38,66.08L1350,380.87l46.16,47.55L1363,420.8l48.16,43.53-31.8-2.18S1431.43,498.52,1417.5,495.77Z"/><path class="cls-5" d="M1359.34,411.42h0"/><path class="cls-5" d="M1365.47,448.22a0,0,0,0,1,0,0"/><path class="cls-3" d="M1332.54,555.77l-5.85-64.4a3.94,3.94,0,0,1,1.81-.28C1332.78,492.05,1332.54,555,1332.54,555.77Z"/><path class="cls-3" d="M1311.61,325l15.08,166.35c-8.91,2.86-42.24,24-46.32,22.23-4.46-2,23-40.28,22.29-44.55s-21.79,5.83-22.29,6.06c.38-.72,26.55-50.33,21.61-50.85s-22.2,10.57-22.62,10.84c.38-.74,26.51-50.66,23-51.42s-18.26,7.27-18.67,7.49c.37-.63,23-39.38,27.57-69.68Z"/><path class="cls-4" d="M1224.75,548.45c-2.82,19.07-29.06,28.72-29.06,28.72l-47.13,4.1c-78.27-5.46-81.55-62.2-81.55-62.2a43.77,43.77,0,0,1,20.78,4.47C1118,538.41,1173.05,559.62,1224.75,548.45Z"/><path class="cls-2" d="M1067,519.07s-16.61,3.87-21.41,11.39-46.5,32.75-64.47,33.22-45.34-7.81-61-13c78.66-11.41,115-21.19,131.52-28.21A42.78,42.78,0,0,1,1067,519.07Z"/><path class="cls-4" d="M709.08,574.47c-23.11,8.35-50.18,17.08-82.11,26C409.52,661.15-61.51,441.06-61.51,441.06l-9.36-107.65S321.91,609.8,707.72,574.6Z"/><path class="cls-3" d="M1217.81,561.18c-2.43,2.33-18.43,18-17,27.87-60.75,6.34-127.8-1.2-127.8-1.2-10,10.26-41.28,10.43-87-14.1,3-.22-.5-14.78,2.13-14.85,18-.47,51.65-20.19,55.68-28.15,6.37-12.57,23.16-11.68,23.16-11.68s7.7,47.9,86,53.36l44-2.74S1209.51,568.6,1217.81,561.18Z"/><path class="cls-2" d="M1353.84,530.28c-27.14,6.09-53.25,15.79-69.72,31.22-17.16,16.08-49.25,24-83.33,27.55-1.41-9.92,14.59-25.54,17-27.87a1.09,1.09,0,0,0,.11-.1l.21-.19a20.67,20.67,0,0,0,6.62-12.44,126.61,126.61,0,0,0,13.17-3.6C1279.73,530.88,1322.58,529,1353.84,530.28Z"/><path class="cls-3" d="M1460.6,520.18l21.72,249.59c-92.79-45-191.44-53.15-282.19,18.31C908.91,1017.33,518.64,898.94,518.64,898.94S288.82,817.4-15.75,925.78L-19.06,929-61.51,441.06s471,220.09,688.48,159.4c31.93-8.91,59-17.64,82.11-26,92-8.41,160.32-16.44,211-23.8,13.38,4.44,35.37,1.33,52.71,0,45.67,24.54,90.2,47.4,100.17,37.14,0,0,163.38,18.38,211.13-26.35,16.47-15.43,42.58-25.13,69.72-31.22,28.25,1.19,47,5,47,5Z"/><line class="cls-1" x1="1224.75" y1="548.45" x2="1224.75" y2="548.44"/><line class="cls-1" x1="920.11" y1="550.67" x2="920.1" y2="550.67"/><path class="cls-3" d="M1460.6,520.18l21.72,249.59c-92.79-45-191.44-53.15-282.19,18.31C908.91,1017.33,518.64,898.94,518.64,898.94S288.82,817.4-15.75,925.78L-19.06,929-61.51,441.06s471,220.09,688.48,159.4c31.93-8.91,59-17.64,82.11-26C843.46,526,844.56,490.54,890.9,509.17c21.51,8.65,52,25.46,81.92,41.54,45.67,24.54,90.2,47.4,100.17,37.14,0,0,163.38,18.38,211.13-26.35,16.47-15.43,42.58-25.13,69.72-31.22C1405.36,518.72,1460.6,520.18,1460.6,520.18Z"/><path class="cls-4" d="M1085.05,594.64C1134.24,600,924.62,608,881.74,592c-32-11.94-23-56.5-16.44-78.27a11.39,11.39,0,0,1,15.54-7.13c25.9,11.54,90.57,41.27,135.18,69.65C1031.21,585.88,1010.1,586.52,1085.05,594.64Z"/></svg>