<svg id="Layer_1" data-name="Layer 1" xmlns="http://www.w3.org/2000/svg" xmlns:xlink="http://www.w3.org/1999/xlink" viewBox="0 0 480.83 179.98"><defs><style>.cls-1,.cls-3{fill:none;}.cls-2{clip-path:url(#clip-path);}.cls-3{stroke:#1d1d1b;stroke-miterlimit:5.16;stroke-width:2.58px;}.cls-4{fill:#fff;}</style><clipPath id="clip-path"><rect class="cls-1" x="-59.4" y="-23.3" width="675.8" height="203.29"/></clipPath></defs><title>logo_neg1</title><path d="M172.37,144.19V109.92h20.34v2.63a40.79,40.79,0,0,0-8.66-.71h-8.44v14.25h12.66V128H175.61v16.18Z"/><path d="M210.64,142.16a12.33,12.33,0,0,1-8.33,2.85c-6.91,0-12-5.32-12-13.1s4.77-13.66,12.28-13.66a9.22,9.22,0,0,1,9.43,9.43,20.69,20.69,0,0,1-.16,2.64h-18.2a9.5,9.5,0,0,0-.06,1.31c0,6.47,3.78,11.41,9.6,11.41a9.45,9.45,0,0,0,6.41-2.53Zm-1.81-13.65c0-5.76-3-8.45-6.8-8.45s-7.12,3.24-8.16,8.45Z"/><path d="M217.94,140.73a9.63,9.63,0,0,0,6,2.47c4.16,0,6.85-1.86,6.85-4.77,0-2.58-1.53-4.28-6.52-5.81-5.54-1.76-7.62-3.84-7.62-7.51,0-3.84,3.18-6.86,8.77-6.86a16.83,16.83,0,0,1,7.29,1.81l-1.1,2.53a10.67,10.67,0,0,0-6.74-2.53c-3.34,0-5.59,1.7-5.59,4.22s1.64,4,6.41,5.6c5.87,1.92,7.79,4.05,7.79,7.51,0,4.16-3.07,7.62-9.6,7.62a18.46,18.46,0,0,1-7.12-1.7Z"/><path d="M252.2,142.38a7.72,7.72,0,0,1-5.86,2.63c-3.18,0-5.92-1.7-5.92-7.18V121h-4.11v-1.92h4.11v-7.62l3-1v8.61h8V121h-8v17.27c0,3.18,1.59,4.44,3.45,4.44a6.07,6.07,0,0,0,4.5-2.14Z"/><path d="M256.37,110a2.51,2.51,0,0,1,2.41-2.69,2.71,2.71,0,0,1,0,5.38A2.51,2.51,0,0,1,256.37,110Zm.93,34.16V119.41l3-1v25.77Z"/><path d="M274.9,144.35l-9.54-25.27h3.13l8.33,22.58,8.45-22.58h2.24L278,144.35Z"/><path d="M306.87,144.19V140h-.22c-2.25,3-5.37,5-8.44,5-3.9,0-6.91-2.63-6.91-6.47,0-4.82,3.95-7.84,13.92-10.2l1.65-.38v-.66c0-5.48-2-7.24-5.21-7.24s-5.43,1.65-7.35,4.28l-1.64-2.19a12.84,12.84,0,0,1,9.32-3.9c6.14,0,7.84,3.68,7.84,9.76v16.18Zm0-14.37-1.43.33c-7.78,2-10.85,4.28-10.85,8,0,2.74,1.92,4.44,4.66,4.44s5.32-2,7.62-5.38Z"/><path d="M317.4,144.19V107l3-1v38.22Z"/><g class="cls-2"><path class="cls-3" d="M92.06,12.13c2.19-.6,4-1.69,3.78-3.88-.6,1.19-2.19,1.49-3.58,1.49-5.67,0-16.8-6-28.33-6-7,0-14.51,4.67-18.88,8.54C40.87,16,36.5,20.67,36.5,25.54c0,4.68,3.28,6.56,7,6.56a6,6,0,0,0,5.27-2.88,7.49,7.49,0,0,1-2.09-.3c-2.39-.79-4.28-2.68-4.28-7.15a12.92,12.92,0,0,1,3.78-9C49.22,9.64,54.19,9,57.67,9,69.2,9,74.47,12,82.82,12.82,79.14,14,70.19,31.31,65,39.66a156.36,156.36,0,0,1-17.2,22.56C38.49,72,27.55,78.32,18.91,78.32c-6.17,0-8.35-3-8.45-6.46a8.67,8.67,0,0,1,3.68-7.45,9,9,0,0,0-2.79-.4c-5.66.1-10,3.58-10,8,0,6.16,6.27,8.55,16.21,8.55S39,74.05,49.32,63.21a142.49,142.49,0,0,0,17.2-22.46c5.26-8.75,13-22.86,14.81-23.65C78.44,24.35,78,35.19,78.74,44.33c1.19,11.53,4.57,23.56,4.08,29.22,0,1.69-4.08,3.88-2.19,4.87,1.09.7,2.48-.6,2.88-1.29C95.34,55.06,100.21,47,107.76,35c8.45-13.52,17.5-25.75,27.44-25.75,3,0,6.06.8,8.05,3.28a5.51,5.51,0,0,0,.69-2.58c0-3.18-2.68-5.67-7.15-5.67-11.63,0-21.57,14.42-31.11,30.12-5.57,9.14-9.74,16.3-13.72,24.25,1.69-10.24,1.19-16.2.4-24.35C91.07,23.06,90.17,15.9,92.06,12.13Z"/><path class="cls-3" d="M135.1,38.07c0,2.68-3.88,11.33-8.15,18.88s-9,15.41-12,15.41c-1,0-1.69-.6-1.69-2,0-3.48,3.78-11.63,6.56-16.7,3.58-6.56,9.94-17,14-17A1.23,1.23,0,0,1,135.1,38.07Zm5.56,5.76c0-4.57-2.68-8.45-8.25-8.45-7.25,0-14.71,2.59-21.76,9.84-6.46,6.66-8.15,13.62-8.15,17.89,0,7.16,5.07,10.44,11.23,10.44,7.45,0,15.3-3.88,22.06-14.51C139.67,52.88,140.66,47.91,140.66,43.83Z"/><path class="cls-3" d="M160.84,50.49c6.06-7.85,9-11.33,11.13-11.33a.78.78,0,0,1,.9.89c0,3.09-5.07,10.24-6.76,10.24A8.91,8.91,0,0,0,172,52c4.77,0,10.84-4.27,10.84-10.83,0-3.58-2.69-5.47-6.66-5.47-5.67,0-10.34,6.36-15.31,13.32-.3.4-.7.2-.3-.3,1.69-2.28,3-5.27,3-7.45,0-3.18-2.18-5.57-6.66-5.57a14.42,14.42,0,0,0-13.21,9.74c2.28-3.18,4.67-5.56,6.56-5.56.79,0,1.19.49,1.19,1.29,0,2.18-4.18,7.85-7.75,13.81C141.16,59,140,62.82,140,65.8c0,4.87,3.58,8.35,10.93,7.75a2.38,2.38,0,0,1-1.39-2.48C149.61,66.39,156.07,56.85,160.84,50.49Z"/><path class="cls-3" d="M210.83,41l-5,8.25c-1.79,2.88-8.35,13.42-11.93,17.59-2.78,3.28-4.57,4.38-5.77,4.38a1.24,1.24,0,0,1-1.29-1.4c0-3.67,6-13,8.25-16.69C197.81,48.9,205.47,37,209.44,37,210.83,37,211.23,38.66,210.83,41Zm.8-.89c.89-3.58-1.89-4.68-4.77-4.68-7.36,0-14.71,3.28-22.46,11.73-5.27,5.67-8.05,12.53-8.05,17.59,0,5.77,2.88,8.75,8.54,8.75,3.88,0,6.27-1.89,9.05-5A59.26,59.26,0,0,0,198.61,62c.3-.4.5-.1.3.2a9.94,9.94,0,0,0-1,4.27c0,4.08,2.49,7.16,8.85,7.16,5.47,0,9.44-3.08,12.92-7.06,2.88-3.38,5.37-7.45,6.26-10.73A61.79,61.79,0,0,1,219,65.8c-3.28,3.78-6,5.27-7.76,5.27a1.83,1.83,0,0,1-2-2c0-1.59,1.2-4.18,2.79-7.06,3.08-5.56,6.46-11,9.44-15.7,5.27-8.25,15.11-23.46,21.27-31.61-1.39,0-3.08,4.37-7.16,4.37-2.08,0-4.77-.1-6.16-.1-2.78,0-3.78.8-7.06,5.17S214.71,35.09,211.63,40.06Z"/><path class="cls-3" d="M255.46,35.38c-5.56,0-11.92,4.38-16.89,9.15-4,3.78-7.66,8-10.34,10.93-4.37-.59-10.34,3.08-10.34,9.94,0,5.87,5.07,8.25,10.44,8.25a40.54,40.54,0,0,0,11.43-1.49,39.37,39.37,0,0,0,11.93-6.36c3.87-3.18,6.75-6.66,7.55-9.94-1.39,3-5.17,6.66-8.25,9.14a34.44,34.44,0,0,1-11.73,6.17c-.5.1-.59-.1-.1-.3A13.6,13.6,0,0,0,244,67.59a19.31,19.31,0,0,0,5.17-12.23c.3-5.76-.89-9.74-1-12.52-.1-3.18,1.29-5.37,3.58-5.37,1.88,0,2.68,2.59,2.68,6a7.48,7.48,0,0,1-.3,2.29c3.78-.1,7.06-2.48,7.06-5.66C261.23,37.27,258.74,35.38,255.46,35.38Zm-26,20.38c3.28-3.28,6-6.76,9.64-10.34,2.09-2.08,6-5.46,8.35-6.56.3-.1.4,0,.1.2-4.77,3.18-8.35,8.65-10.24,14.41s-2.68,10.94-4.47,14.81c-1.29,2.79-2.58,4.48-4.77,4.48s-3-1.49-3-3.78c0-5.47,4.17-10.14,7.06-10.54A4.66,4.66,0,0,0,229.42,55.76Z"/><path class="cls-3" d="M265.7,73.65c5.47,0,9.34-2.48,13.32-7.06a30.63,30.63,0,0,0,6.16-10.73,61.87,61.87,0,0,1-7,9.94c-3.28,3.77-6.06,5.37-7.85,5.37-2.38,0-2.58-2.19-2.58-3a15.29,15.29,0,0,1,1.89-6.46,184.22,184.22,0,0,1,13-21.17h3.57c1.89,0,2.29-.1,2.39-.59s-.2-.8-1.29-.8h-3.78c1.69-2.78,8.35-12.62,11.83-17-1.39,0-3.08,4.38-7.16,4.38-2.09,0-4.67-.1-6.06-.1-2.78,0-3.88.69-7.06,5.17-1.39,1.89-3.77,5.27-5.27,7.55h-5.76c-1,0-2.19,0-2.48.5s-.1.89,1,.89h6.26a161,161,0,0,0-10.44,16.8A17.91,17.91,0,0,0,256.26,66C256.46,70.57,259.84,73.65,265.7,73.65Z"/><path class="cls-3" d="M302.77,50.49c6.07-7.85,9.05-11.33,11.14-11.33a.78.78,0,0,1,.89.89c0,3.09-5.07,10.24-6.76,10.24A8.92,8.92,0,0,0,313.91,52c4.77,0,10.83-4.27,10.83-10.83,0-3.58-2.68-5.47-6.66-5.47-5.67,0-10.34,6.36-15.31,13.32-.3.4-.69.2-.3-.3,1.69-2.28,3-5.27,3-7.45,0-3.18-2.19-5.57-6.66-5.57a14.43,14.43,0,0,0-13.22,9.74c2.28-3.18,4.67-5.56,6.56-5.56.79,0,1.19.49,1.19,1.29,0,2.18-4.17,7.85-7.75,13.81-2.49,4.08-3.68,7.86-3.68,10.84,0,4.87,3.58,8.35,10.93,7.75a2.38,2.38,0,0,1-1.39-2.48C291.54,66.39,298,56.85,302.77,50.49Z"/><path class="cls-3" d="M352.77,41l-5,8.25c-1.79,2.88-8.35,13.42-11.93,17.59-2.78,3.28-4.57,4.38-5.76,4.38a1.24,1.24,0,0,1-1.3-1.4c0-3.77,6-13,8.25-16.69C339.75,48.9,347.6,37,351.38,37,352.77,37,353.16,38.66,352.77,41Zm-4.08,32.7c5.47,0,9.44-3.08,12.92-7.06,2.89-3.38,5.37-7.45,6.27-10.73a62.52,62.52,0,0,1-7,9.94c-3.28,3.77-6,5.27-7.76,5.27a1.82,1.82,0,0,1-2-2c0-1.59,1.09-4.08,2.78-7.06,3.18-5.66,10.34-17,15.9-25.14-1.09-.4-2.48,3.67-7.75,3.67-3.78,0-7-.2-8.35-.89.3-3.48-2.28-4.28-5-4.28-7.35,0-14.71,3.28-22.46,11.73-5.27,5.67-8.05,12.53-8.05,17.59,0,5.77,2.88,8.75,8.55,8.75,3.87,0,6.26-1.89,9-5A59.26,59.26,0,0,0,340.54,62c.3-.4.5-.1.3.2a10,10,0,0,0-1,4.27C339.85,70.57,342.33,73.65,348.69,73.65Z"/><path class="cls-3" d="M392.72,51.58c-4.47,6.17-6.56,10.34-6.56,14.42,0,4.37,2.69,7.65,8.45,7.65,5.47,0,9.44-3.08,12.92-7.06,2.88-3.38,5.37-7.45,6.26-10.73a61.79,61.79,0,0,1-7,9.94c-3.28,3.78-6.07,5.37-7.85,5.37a2,2,0,0,1-2.09-2.09c0-2.59,2.38-6.46,7.05-13.22,3.88-5.67,6.27-9.74,6.27-13.42,0-4.37-3.48-6.56-7.56-6.56-6.76,0-12.12,6.56-17.09,13.12-.3.3-.6.2-.3-.3,1.69-2.28,3-5.27,3-7.45,0-3.18-2.19-5.57-6.66-5.57a14.43,14.43,0,0,0-13.22,9.74c2.29-3.18,4.67-5.56,6.56-5.56.8,0,1.19.49,1.19,1.29,0,2.18-4.17,7.85-7.75,13.81-2.48,4.08-3.68,7.86-3.68,10.84,0,4.87,3.58,7.55,8.06,7.75-.8-.6.79-4.27,3.37-8.75a150.78,150.78,0,0,1,9.45-14.31c6.26-8.15,10.63-11.73,12.82-11.73a1,1,0,0,1,1.09,1.1C399.48,41.74,396.5,46.32,392.72,51.58Z"/><path class="cls-3" d="M444.61,41l-5,8.25c-1.79,2.88-8.35,13.42-11.93,17.59-2.78,3.28-4.57,4.38-5.77,4.38a1.24,1.24,0,0,1-1.29-1.4c0-3.67,6-13,8.25-16.69C431.59,48.9,439.24,37,443.21,37,444.61,37,445,38.66,444.61,41Zm.79-.89c.9-3.58-1.89-4.68-4.77-4.68-7.35,0-14.71,3.28-22.46,11.73-5.27,5.67-8.05,12.53-8.05,17.59,0,5.77,2.88,8.75,8.54,8.75,3.88,0,6.27-1.89,9-5A59.26,59.26,0,0,0,432.38,62c.3-.4.5-.1.3.2a9.94,9.94,0,0,0-1,4.27c0,4.08,2.49,7.16,8.85,7.16,5.47,0,9.44-3.08,12.92-7.06,2.88-3.38,5.37-7.45,6.26-10.73a61.79,61.79,0,0,1-6.95,9.94c-3.28,3.78-6,5.27-7.76,5.27a1.82,1.82,0,0,1-2-2c0-1.59,1.19-4.18,2.78-7.06,3.08-5.56,6.46-11,9.44-15.7,5.27-8.25,15.11-23.46,21.27-31.61-1.39,0-3.08,4.37-7.15,4.37-2.09,0-4.78-.1-6.17-.1-2.78,0-3.77.8-7.05,5.17S448.48,35.09,445.4,40.06Z"/></g><path class="cls-4" d="M92.36,34.29c.79,8.15,1.29,14.11-.4,24.35,4-8,8.15-15.11,13.72-24.25,9.54-15.7,19.48-30.12,31.11-30.12,4.47,0,7.15,2.49,7.15,5.67a5.63,5.63,0,0,1-.69,2.58c-2-2.48-5.07-3.28-8.05-3.28-9.94,0-19,12.23-27.44,25.75-7.55,12-12.42,20.07-24.25,42.14-.4.69-1.79,2-2.88,1.29-1.89-1,2.19-3.18,2.19-4.87.49-5.66-2.89-17.69-4.08-29.22-.79-9.14-.3-20,2.59-27.23-1.79.79-9.55,14.9-14.81,23.65a142.49,142.49,0,0,1-17.2,22.46C39,74.05,27.55,80.61,17.52,80.61S1.31,78.22,1.31,72.06c0-4.47,4.38-8,10-8a9,9,0,0,1,2.79.4,8.67,8.67,0,0,0-3.68,7.45c.1,3.48,2.28,6.46,8.45,6.46,8.64,0,19.58-6.36,28.92-16.1A156.36,156.36,0,0,0,65,39.66C70.19,31.31,79.14,14,82.82,12.82,74.47,12,69.2,9,57.67,9c-3.48,0-8.45.69-11.53,3.77a12.92,12.92,0,0,0-3.78,9c0,4.47,1.89,6.36,4.28,7.15a7.49,7.49,0,0,0,2.09.3,6,6,0,0,1-5.27,2.88c-3.68,0-7-1.88-7-6.56,0-4.87,4.37-9.54,8.55-13.22,4.37-3.87,11.82-8.54,18.88-8.54,11.53,0,22.66,6,28.33,6,1.39,0,3-.3,3.58-1.49.2,2.19-1.59,3.28-3.78,3.88C90.17,15.9,91.07,23.06,92.36,34.29Z"/><path class="cls-4" d="M135.79,59C129,69.67,121.18,73.55,113.73,73.55c-6.16,0-11.23-3.28-11.23-10.44,0-4.27,1.69-11.23,8.15-17.89,7-7.25,14.51-9.84,21.76-9.84,5.57,0,8.25,3.88,8.25,8.45C140.66,47.91,139.67,52.88,135.79,59Zm-2-22.36c-4.08,0-10.44,10.43-14,17-2.78,5.07-6.56,13.22-6.56,16.7,0,1.39.7,2,1.69,2,3,0,7.65-7.75,12-15.41s8.15-16.2,8.15-18.88A1.23,1.23,0,0,0,133.81,36.68Z"/><path class="cls-4" d="M149.51,71.07a2.38,2.38,0,0,0,1.39,2.48c-7.35.6-10.93-2.88-10.93-7.75,0-3,1.19-6.76,3.68-10.83,3.57-6,7.75-11.63,7.75-13.82,0-.8-.4-1.29-1.19-1.29-1.89,0-4.28,2.38-6.56,5.56a14.42,14.42,0,0,1,13.21-9.74c4.48,0,6.66,2.39,6.66,5.57,0,2.19-1.29,5.17-3,7.45-.4.5,0,.7.3.3,5-7,9.64-13.32,15.31-13.32,4,0,6.66,1.89,6.66,5.47C182.81,47.71,176.74,52,172,52a8.91,8.91,0,0,1-5.86-1.69c1.69,0,6.76-7.15,6.76-10.23,0-.8-.5-.9-.9-.9-2.08,0-5.07,3.48-11.13,11.33C156.07,56.85,149.61,66.39,149.51,71.07Z"/><path class="cls-4" d="M222.46,24.15c3.28-4.37,4.28-5.17,7.06-5.17,1.39,0,4.08.1,6.16.1,4.08,0,5.77-4.37,7.16-4.37-6.16,8.15-16,23.36-21.27,31.61-3,4.67-6.36,10.14-9.44,15.7-1.59,2.88-2.79,5.47-2.79,7.06a1.83,1.83,0,0,0,2,2c1.79,0,4.47-1.5,7.75-5.27a61.87,61.87,0,0,0,7-9.94c-.89,3.28-3.38,7.35-6.26,10.73-3.48,4-7.45,7.06-12.92,7.06-6.36,0-8.85-3.08-8.85-7.16a9.94,9.94,0,0,1,1-4.27c.2-.3,0-.6-.3-.2A60.64,60.64,0,0,1,194,68.48c-2.79,3.08-5.17,5-9,5-5.66,0-8.55-3-8.55-8.74,0-5.07,2.79-11.93,8.06-17.6,7.75-8.45,15.1-11.73,22.46-11.73,2.88,0,5.66,1.1,4.77,4.68C214.81,35.09,219.28,28.43,222.46,24.15ZM209.54,37c-4,0-11.63,11.93-14.31,16.11-2.29,3.67-8.25,13-8.25,16.69a1.24,1.24,0,0,0,1.29,1.4c1.2,0,3-1.1,5.77-4.38,3.58-4.17,10.14-14.71,11.92-17.59l5-8.25C211.33,38.66,210.93,37,209.54,37Z"/><path class="cls-4" d="M261.33,40.06c0,3.18-3.28,5.56-7.06,5.66a7.41,7.41,0,0,0,.3-2.28c0-3.38-.8-6-2.69-6-2.28,0-3.67,2.19-3.57,5.37.1,2.78,1.29,6.76,1,12.52a19.37,19.37,0,0,1-5.17,12.23,13.6,13.6,0,0,1-4.87,3.28c-.5.2-.4.39.1.3A34.44,34.44,0,0,0,251.09,65c3.08-2.48,6.86-6.16,8.25-9.14-.8,3.28-3.68,6.76-7.56,9.94a39.2,39.2,0,0,1-11.92,6.36,40.54,40.54,0,0,1-11.43,1.49c-5.37,0-10.44-2.39-10.44-8.25,0-6.86,6-10.53,10.34-9.94,2.68-2.88,6.36-7.15,10.33-10.93,5-4.77,11.34-9.15,16.9-9.15C258.84,35.38,261.33,37.27,261.33,40.06ZM232.2,58.44c-2.88.4-7,5.07-7,10.54,0,2.28.89,3.78,3,3.78s3.48-1.69,4.77-4.48c1.79-3.87,2.58-9.14,4.47-14.81s5.47-11.23,10.24-14.41c.3-.2.2-.3-.1-.2-2.38,1.1-6.26,4.48-8.35,6.56-3.68,3.58-6.36,7.06-9.64,10.34A4.62,4.62,0,0,1,232.2,58.44Z"/><path class="cls-4" d="M256.36,66a17.91,17.91,0,0,1,2.18-8.65A161,161,0,0,1,269,40.55h-6.26c-1.1,0-1.29-.4-1-.89s1.5-.5,2.49-.5H270c1.49-2.28,3.88-5.66,5.27-7.55,3.18-4.47,4.28-5.17,7.06-5.17,1.39,0,4,.1,6.06.1,4.08,0,5.77-4.38,7.16-4.38-3.48,4.38-10.14,14.22-11.83,17h3.78c1.09,0,1.39.3,1.29.8s-.5.59-2.39.59H282.8a186,186,0,0,0-13,21.17,15.41,15.41,0,0,0-1.88,6.46c0,.8.2,3,2.58,3,1.79,0,4.57-1.6,7.85-5.37a62.52,62.52,0,0,0,7-9.94,30.63,30.63,0,0,1-6.16,10.73c-4,4.58-7.85,7.06-13.32,7.06C259.93,73.65,256.56,70.57,256.36,66Z"/><path class="cls-4" d="M291.54,71.07a2.38,2.38,0,0,0,1.39,2.48c-7.35.6-10.93-2.88-10.93-7.75,0-3,1.19-6.76,3.68-10.83,3.57-6,7.75-11.63,7.75-13.82,0-.8-.4-1.29-1.19-1.29-1.89,0-4.28,2.38-6.56,5.56a14.43,14.43,0,0,1,13.22-9.74c4.47,0,6.65,2.39,6.65,5.57,0,2.19-1.29,5.17-3,7.45-.39.5,0,.7.3.3,5-7,9.64-13.32,15.31-13.32,4,0,6.66,1.89,6.66,5.47C324.84,47.71,318.77,52,314,52a8.91,8.91,0,0,1-5.86-1.69c1.69,0,6.76-7.15,6.76-10.23,0-.8-.5-.9-.9-.9-2.08,0-5.07,3.48-11.13,11.33C298.1,56.85,291.64,66.39,291.54,71.07Z"/><path class="cls-4" d="M340,66.49a9.94,9.94,0,0,1,1-4.27c.2-.3,0-.6-.3-.2a60.64,60.64,0,0,1-4.67,6.46c-2.79,3.08-5.17,5-9.05,5-5.66,0-8.54-3-8.54-8.74,0-5.07,2.78-11.93,8-17.6,7.75-8.45,15.1-11.73,22.46-11.73,2.68,0,5.27.8,5,4.28,1.39.69,4.57.89,8.35.89,5.26,0,6.66-4.07,7.75-3.67C364.49,45,357.34,56.36,354.16,62c-1.69,3-2.79,5.47-2.79,7.06a1.83,1.83,0,0,0,2,2c1.79,0,4.47-1.5,7.75-5.27a61.87,61.87,0,0,0,7-9.94c-.89,3.28-3.38,7.35-6.26,10.73-3.48,4-7.45,7.06-12.92,7.06C342.53,73.65,340,70.57,340,66.49ZM351.57,37c-3.77,0-11.63,11.93-14.31,16.11C335,56.75,329,66,329,69.77a1.24,1.24,0,0,0,1.29,1.4c1.2,0,3-1.1,5.77-4.38,3.58-4.17,10.14-14.71,11.92-17.59L353,41C353.36,38.66,353,37,351.57,37Z"/><path class="cls-4" d="M399.68,39.86a1,1,0,0,0-1.09-1.1c-2.19,0-6.56,3.58-12.83,11.73a150.71,150.71,0,0,0-9.44,14.31c-2.58,4.48-4.17,8.15-3.38,8.75-4.47-.2-8.05-2.88-8.05-7.75,0-3,1.19-6.76,3.68-10.83,3.58-6,7.75-11.63,7.75-13.82,0-.8-.4-1.29-1.19-1.29-1.89,0-4.27,2.38-6.56,5.56a14.43,14.43,0,0,1,13.22-9.74c4.47,0,6.66,2.39,6.66,5.57,0,2.19-1.29,5.17-3,7.45-.3.5,0,.6.29.3,5-6.56,10.34-13.12,17.1-13.12,4.07,0,7.55,2.19,7.55,6.56,0,3.68-2.38,7.75-6.26,13.42-4.67,6.76-7,10.63-7,13.22a2,2,0,0,0,2.08,2.09c1.79,0,4.57-1.6,7.85-5.37a61.87,61.87,0,0,0,7-9.94c-.89,3.28-3.38,7.35-6.26,10.73-3.48,4-7.45,7.06-12.92,7.06-5.77,0-8.45-3.28-8.45-7.65,0-4.08,2.09-8.25,6.56-14.42C396.7,46.32,399.68,41.74,399.68,39.86Z"/><path class="cls-4" d="M456.33,24.15c3.28-4.37,4.28-5.17,7.06-5.17,1.39,0,4.08.1,6.16.1,4.08,0,5.77-4.37,7.16-4.37-6.16,8.15-16,23.36-21.27,31.61-3,4.67-6.36,10.14-9.44,15.7-1.59,2.88-2.79,5.47-2.79,7.06a1.83,1.83,0,0,0,2,2c1.79,0,4.47-1.5,7.75-5.27a61.87,61.87,0,0,0,7-9.94c-.89,3.28-3.38,7.35-6.26,10.73-3.48,4-7.45,7.06-12.92,7.06-6.36,0-8.85-3.08-8.85-7.16a9.94,9.94,0,0,1,1-4.27c.2-.3,0-.6-.3-.2a60.64,60.64,0,0,1-4.67,6.46c-2.79,3.08-5.17,5-9.05,5-5.66,0-8.55-3-8.55-8.74,0-5.07,2.79-11.93,8.06-17.6,7.75-8.45,15.1-11.73,22.46-11.73,2.88,0,5.66,1.1,4.77,4.68C448.68,35.09,453.15,28.43,456.33,24.15ZM443.41,37c-4,0-11.63,11.93-14.31,16.11-2.29,3.67-8.25,13-8.25,16.69a1.24,1.24,0,0,0,1.29,1.4c1.2,0,3-1.1,5.77-4.38,3.58-4.17,10.14-14.71,11.92-17.59l5-8.25C445.2,38.66,444.8,37,443.41,37Z"/></svg>