<svg id="Layer_1" data-name="Layer 1" xmlns="http://www.w3.org/2000/svg" viewBox="0 0 475.74 144.41"><defs><style>.cls-1{fill:#fff;}</style></defs><title>logo1</title><path d="M17.2,80.17C6.34,80.17.84,77.23.84,71.42c0-4.61,4.4-8.16,10.23-8.26a9.07,9.07,0,0,1,2.85.41l.45.15L14,64a8.44,8.44,0,0,0-3.56,7.2c.12,4,3,6.19,8.16,6.19,8.33,0,19-6,28.59-15.94a155.68,155.68,0,0,0,17.07-22.4c1.31-2.12,2.88-4.83,4.53-7.7,4.51-7.82,9.57-16.6,12.55-18.7a67.26,67.26,0,0,1-8.27-1.61A61.89,61.89,0,0,0,57.15,8.89c-2.85,0-8.09.48-11.3,3.68a12.7,12.7,0,0,0-3.68,8.82c0,3.72,1.34,6,4.08,6.88a7.22,7.22,0,0,0,2,.29h.42l-.2.37a6.25,6.25,0,0,1-5.46,3c-3.47,0-7.17-1.78-7.17-6.78,0-5.17,4.9-10.09,8.58-13.34C49.1,7.67,56.53,3.25,63.37,3.25S76.86,5.33,82.24,7c3.77,1.17,7,2.18,9.31,2.18,1.22,0,2.78-.23,3.34-1.34l.39-.79.08.87c.18,1.95-1.11,3.33-3.83,4.09-1.73,3.61-.94,10.49.26,20.84l.11,1c.79,8.07,1.21,13.64-.15,22.72,3.78-7.42,7.79-14.27,12.94-22.72C113.93,18.6,124,3.74,135.85,3.74c4.33,0,7.36,2.42,7.36,5.89a5.82,5.82,0,0,1-.73,2.71l-.19.28-.21-.27c-2.1-2.61-5.41-3.16-7.82-3.16-9.79,0-18.8,12.25-27.07,25.49C99.52,46.88,94.65,55,83.07,76.58a3.25,3.25,0,0,1-2.4,1.62,1.48,1.48,0,0,1-.82-.24,1,1,0,0,1-.6-.73c-.12-.67.57-1.42,1.29-2.21s1.37-1.5,1.37-2.12c.28-3.16-.67-8.33-1.76-14.31-.83-4.56-1.77-9.72-2.29-14.73C77,33.74,77.81,24,80.09,17.6c-1.82,2.11-5.83,9-9.43,15.15-1.57,2.7-3.12,5.36-4.5,7.66A141.79,141.79,0,0,1,49,62.79C38.33,74,27,80.17,17.2,80.17Z"/><path class="cls-1" d="M63.37,3.5c11.47,0,22.55,5.93,28.18,5.93,1.39,0,3-.3,3.56-1.48.2,2.17-1.58,3.26-3.76,3.85-1.87,3.76-1,10.88.3,22.05.79,8.11,1.29,14-.39,24.22,3.95-7.91,8.1-15,13.64-24.12,9.49-15.62,19.38-30,30.95-30C140.29,4,143,6.46,143,9.63a5.47,5.47,0,0,1-.69,2.57c-2-2.47-5-3.26-8-3.26-9.88,0-18.88,12.16-27.28,25.6-7.52,12-12.36,20-24.13,41.92A3,3,0,0,1,80.67,78a1.25,1.25,0,0,1-.69-.2c-1.87-1,2.18-3.17,2.18-4.85.49-5.63-2.87-17.6-4-29.06-.79-9.1-.3-19.88,2.57-27.09C78.9,17.54,71.19,31.58,66,40.28A142,142,0,0,1,48.84,62.62C38.56,73.4,27.19,79.92,17.2,79.92S1.09,77.55,1.09,71.42c0-4.45,4.35-7.91,10-8a8.85,8.85,0,0,1,2.77.4,8.66,8.66,0,0,0-3.66,7.41c.1,3.46,2.28,6.43,8.41,6.43,8.6,0,19.47-6.33,28.77-16a155.18,155.18,0,0,0,17.1-22.44c5.14-8.31,14-25.51,17.7-26.69-8.31-.8-13.54-3.86-25-3.86-3.46,0-8.41.69-11.47,3.76a12.82,12.82,0,0,0-3.76,9c0,4.45,1.88,6.33,4.25,7.12a7.47,7.47,0,0,0,2.08.3A6,6,0,0,1,43,31.68c-3.66,0-6.92-1.88-6.92-6.53,0-4.84,4.35-9.49,8.5-13.15,4.35-3.85,11.77-8.5,18.78-8.5m0-.5C56.46,3,49,7.46,44.26,11.63c-3.72,3.28-8.67,8.24-8.67,13.52s3.83,7,7.42,7a6.48,6.48,0,0,0,5.67-3.13l.42-.74h-.85A6.79,6.79,0,0,1,46.31,28c-2.65-.88-3.89-3-3.89-6.64A12.42,12.42,0,0,1,46,12.75c3.14-3.14,8.31-3.61,11.12-3.61A62.09,62.09,0,0,1,73,11.29a69.55,69.55,0,0,0,7.68,1.54c-2.76,2.38-6.86,9.28-12.13,18.4-1.65,2.87-3.21,5.58-4.52,7.7A156.59,156.59,0,0,1,47,61.29c-9.53,9.93-20.15,15.86-28.41,15.86-6.39,0-7.83-3.23-7.91-5.94a8.22,8.22,0,0,1,3.46-7l.77-.57L14,63.33a9.29,9.29,0,0,0-2.93-.42C5.09,63,.59,66.68.59,71.42c0,6,5.59,9,16.61,9,9.9,0,21.26-6.2,32-17.45A141.39,141.39,0,0,0,66.37,40.53c1.39-2.29,3-5,4.51-7.65,3-5.08,6.48-11.11,8.53-14-2,6.43-2.62,15.53-1.8,25,.52,5,1.46,10.19,2.29,14.75,1.09,6,2,11.12,1.76,14.23,0,.57-.69,1.33-1.31,2-.76.83-1.48,1.62-1.34,2.41a1.25,1.25,0,0,0,.74.92,1.71,1.71,0,0,0,.92.26,3.54,3.54,0,0,0,2.62-1.74C94.86,55.11,99.74,47,107.4,34.81c8.24-13.18,17.19-25.37,26.86-25.37,2.36,0,5.59.53,7.62,3.07l.43.53.38-.56a6.06,6.06,0,0,0,.77-2.85c0-3.61-3.13-6.14-7.61-6.14-12,0-22.09,14.92-31.38,30.2-4.84,8-8.68,14.48-12.26,21.41,1.1-8.25.68-13.66-.06-21.3l-.11-1c-1.18-10.21-2-17-.33-20.6,2.77-.81,4.09-2.26,3.9-4.32l-.16-1.75-.79,1.57c-.49,1-2,1.21-3.11,1.21-2.24,0-5.48-1-9.23-2.17C76.91,5.08,70.19,3,63.37,3Z"/><path d="M112.91,73.15c-5.53,0-11.43-2.79-11.43-10.63,0-2.87.8-10.36,8.18-18,6.37-6.54,13.71-9.86,21.83-9.86,5.14,0,8.46,3.39,8.46,8.65,0,5-1.6,10-4.88,15.26C129,68.12,121.35,73.15,112.91,73.15Zm20-36.68c-2.91,0-7.91,6.12-13.72,16.78-3.13,5.7-6.5,13.29-6.5,16.49,0,.79.25,1.73,1.43,1.73,2.83,0,7.55-7.85,11.75-15.2,4.53-8,8.07-16.2,8.07-18.66C133.91,36.88,133.54,36.47,132.88,36.47Z"/><path class="cls-1" d="M131.49,34.94c5.54,0,8.21,3.85,8.21,8.4,0,4.06-1,9-4.85,15.13-6.72,10.58-14.53,14.43-21.94,14.43-6.13,0-11.18-3.26-11.18-10.38,0-4.25,1.68-11.17,8.11-17.79,7-7.22,14.44-9.79,21.65-9.79m-17.4,36.78c3,0,7.62-7.71,12-15.33s8.1-16.11,8.1-18.78a1.23,1.23,0,0,0-1.28-1.39c-4.06,0-10.38,10.38-13.94,16.91-2.77,5-6.53,13.15-6.53,16.61,0,1.38.69,2,1.68,2m17.4-37.28c-8.19,0-15.59,3.34-22,9.94-7.44,7.67-8.25,15.24-8.25,18.14,0,6.71,4.48,10.88,11.68,10.88,8.53,0,16.27-5.07,22.37-14.66,3.31-5.27,4.92-10.3,4.92-15.4,0-5.41-3.42-8.9-8.71-8.9Zm-17.4,36.78c-.29,0-1.18,0-1.18-1.48,0-3,3.25-10.52,6.47-16.37,5.77-10.58,10.69-16.65,13.5-16.65.53,0,.78.29.78.89,0,2.42-3.53,10.57-8,18.54-3,5.26-8.61,15.07-11.53,15.07Z"/><path d="M148.3,73.22c-6,0-9.54-3-9.54-8,0-3.12,1.31-7,3.69-10.91,1-1.7,2.08-3.35,3.1-5,2.46-3.85,4.58-7.18,4.58-8.66,0-.68-.32-1-.94-1-1.58,0-3.77,1.88-6.32,5.43L142,46.23l.38-1.37A14.62,14.62,0,0,1,155.81,35c4.24,0,6.88,2.22,6.88,5.79a12.75,12.75,0,0,1-1.9,5.86C165.1,40.65,169.61,35,175,35c4.31,0,6.88,2.13,6.88,5.69,0,6.83-6.42,11-11,11a9.18,9.18,0,0,1-6-1.74l-.53-.44H165c1.4,0,6.47-6.75,6.47-9.94,0-.53-.23-.63-.64-.63-1.93,0-4.79,3.29-10.87,11.17-4.15,5.53-11.12,15.52-11.22,20.32A2.11,2.11,0,0,0,150,72.67l1,.4-1.06.08C149.35,73.2,148.81,73.22,148.3,73.22Z"/><path class="cls-1" d="M175,35.23c4,0,6.63,1.88,6.63,5.44,0,6.53-6,10.78-10.78,10.78A8.88,8.88,0,0,1,165,49.77c1.68,0,6.72-7.12,6.72-10.18,0-.8-.49-.89-.89-.89-2.07,0-5,3.46-11.07,11.27C155,56.29,148.6,65.79,148.5,70.43a2.36,2.36,0,0,0,1.38,2.47c-.55,0-1.07.07-1.58.07-6.25,0-9.29-3.3-9.29-7.78,0-3,1.18-6.72,3.65-10.78,3.56-5.93,7.72-11.56,7.72-13.74a1.12,1.12,0,0,0-1.19-1.28c-1.88,0-4.25,2.37-6.53,5.53a14.38,14.38,0,0,1,13.15-9.69c4.45,0,6.63,2.38,6.63,5.54,0,2.18-1.29,5.14-3,7.42-.25.31-.18.5,0,.5a.43.43,0,0,0,.32-.21c4.94-6.92,9.59-13.25,15.22-13.25m0-.5c-4.83,0-8.94,4.42-12.82,9.59a10.31,10.31,0,0,0,.77-3.55c0-3.72-2.73-6-7.13-6a14.87,14.87,0,0,0-13.63,10.06l-.77,2.74,1.66-2.31c2.47-3.44,4.64-5.33,6.12-5.33.34,0,.69.09.69.78,0,1.41-2.21,4.86-4.54,8.52-1,1.6-2.08,3.26-3.1,5-2.41,3.94-3.73,7.86-3.73,11,0,5.11,3.75,8.28,9.79,8.28.52,0,1.07,0,1.62-.07l2.12-.17-2-.79c-.46-.18-1.07-.59-1.07-2,.07-3.44,4.14-10.8,11.17-20.16,5.91-7.66,8.85-11.07,10.67-11.07.31,0,.39,0,.39.39,0,2.93-5,9.68-6.22,9.68h-1.38l1.06.88a9.41,9.41,0,0,0,6.15,1.8c4.71,0,11.28-4.29,11.28-11.28,0-3.66-2.73-5.94-7.13-5.94Z"/><path d="M206.43,73.25c-7.87,0-9.05-4.61-9.05-7.37a10.18,10.18,0,0,1,.67-3.56A53.36,53.36,0,0,1,193.86,68c-2.87,3.18-5.29,5-9.18,5-5.72,0-8.75-3.09-8.75-9,0-5.45,3.17-12.39,8.07-17.67,7.26-7.9,14.63-11.74,22.53-11.74,1.49,0,3.48.28,4.52,1.61a3.21,3.21,0,0,1,.64,2.14c3.15-5,7.19-11,10.06-14.82,3.19-4.25,4.24-5.24,7.22-5.24.63,0,1.51,0,2.49,0,1.18,0,2.5,0,3.64,0,2.45,0,4-1.69,5.18-2.93.74-.79,1.32-1.42,1.94-1.42h.51l-.31.4c-5.74,7.6-14.67,21.28-21.14,31.43-3.78,5.91-6.85,11-9.39,15.61-1.17,2.13-2.74,5.16-2.74,6.89a1.57,1.57,0,0,0,1.73,1.73c1.94,0,4.68-1.88,7.52-5.15a61.39,61.39,0,0,0,6.9-9.85l.95-1.64-.49,1.83c-.86,3.14-3.21,7.17-6.28,10.77C216.58,69.46,212.48,73.25,206.43,73.25Zm2.67-36.48c-3.8,0-11.47,11.93-14,15.85l-.44.71c-2.52,4-7.76,12.43-7.76,15.82,0,.73.37,1.13,1,1.13,1.28,0,3.15-1.43,5.55-4.26s6.54-8.93,11.84-17.47l4.94-8.2a4.37,4.37,0,0,0-.35-3.22A1,1,0,0,0,209.1,36.77Z"/><path class="cls-1" d="M242.22,14.37c-6.13,8.11-15.92,23.24-21.16,31.44-3,4.65-6.32,10.09-9.39,15.63-1.58,2.86-2.77,5.43-2.77,7a1.82,1.82,0,0,0,2,2c1.78,0,4.45-1.48,7.71-5.24a61.21,61.21,0,0,0,6.92-9.89c-.89,3.27-3.36,7.32-6.22,10.68-3.47,4-7.42,7-12.86,7-6.33,0-8.8-3.06-8.8-7.12a10,10,0,0,1,1-4.25c.13-.19.09-.39,0-.39s-.16.06-.26.2a60.11,60.11,0,0,1-4.65,6.42c-2.77,3.07-5.14,4.94-9,4.94-5.63,0-8.5-3-8.5-8.7,0-5,2.77-11.86,8-17.5,7.71-8.4,15-11.66,22.34-11.66,2.87,0,5.64,1.09,4.75,4.65,3.06-5,7.51-11.57,10.67-15.82s4.26-5.14,7-5.14c1.39,0,4.06.09,6.13.09,4.06,0,5.74-4.35,7.12-4.35M187.94,70.53c1.19,0,3-1.09,5.74-4.35,3.56-4.15,10.08-14.63,11.86-17.5l5-8.2c.39-2.28,0-4-1.39-4-3.95,0-11.57,11.86-14.24,16-2.27,3.65-8.2,12.95-8.2,16.61a1.22,1.22,0,0,0,1.28,1.38m55.29-56.66h-1c-.73,0-1.34.67-2.12,1.5-1.18,1.27-2.66,2.85-5,2.85-1.13,0-2.46,0-3.64,0-1,0-1.86,0-2.49,0-3.07,0-4.22,1.08-7.42,5.34-2.75,3.7-6.57,9.32-9.65,14.19a3.32,3.32,0,0,0-.65-1.51c-1.11-1.42-3.18-1.71-4.72-1.71-8,0-15.41,3.87-22.71,11.83-5,5.4-8.14,12.23-8.14,17.83,0,6,3.11,9.2,9,9.2,4,0,6.45-1.87,9.37-5.1a45.79,45.79,0,0,0,3.3-4.38,9.93,9.93,0,0,0-.22,2.06c0,2.85,1.21,7.62,9.3,7.62,6.15,0,10.3-3.84,13.23-7.19,3.1-3.63,5.47-7.7,6.34-10.87l1-3.67-1.92,3.28a60.94,60.94,0,0,1-6.87,9.82c-2.79,3.21-5.46,5.06-7.33,5.06a1.33,1.33,0,0,1-1.48-1.48c0-1.67,1.55-4.67,2.71-6.77,2.54-4.59,5.6-9.69,9.38-15.6,5.3-8.3,15.09-23.42,21.13-31.4l.61-.81ZM187.94,70c-.52,0-.78-.29-.78-.88,0-3.32,5.41-12,7.72-15.69l.41-.66,0,0C202,42.32,206.67,37,209.1,37a.77.77,0,0,1,.63.28,4.14,4.14,0,0,1,.28,3l-4.9,8.12c-5.28,8.52-9.48,14.72-11.81,17.44-2.93,3.45-4.53,4.17-5.36,4.17Z"/><path d="M227.89,73.25c-5.14,0-10.64-2.22-10.64-8.45a9.92,9.92,0,0,1,9.6-10.2,5.92,5.92,0,0,1,.84,0c.68-.73,1.42-1.55,2.21-2.42,2.26-2.5,5.08-5.6,8-8.38,3.56-3.42,10.51-9.16,17-9.16,3.46,0,6,2.06,6,4.89,0,3.2-3.19,5.78-7.26,5.89h-.36l.11-.34a7,7,0,0,0,.29-2.19c0-1.71-.24-5.69-2.42-5.69a2.76,2.76,0,0,0-2.06.87,5.77,5.77,0,0,0-1.25,4.22,28.9,28.9,0,0,0,.38,3.25,44.12,44.12,0,0,1,.61,9.22,19.54,19.54,0,0,1-5.21,12.32A12.76,12.76,0,0,1,240,69.9a35,35,0,0,0,10.3-5.69c3-2.46,6.79-6.12,8.14-9l.47.16c-.75,3.1-3.38,6.56-7.6,10a39.34,39.34,0,0,1-11.95,6.37A40.71,40.71,0,0,1,227.89,73.25Zm1.54-18.15a5.18,5.18,0,0,1,2.44,2.68l.12.3-.31,0c-2.74.38-6.81,4.84-6.81,10.24,0,2.32.92,3.5,2.72,3.5,2.09,0,3.32-1.72,4.52-4.3a48.37,48.37,0,0,0,2.48-7.84c.57-2.2,1.16-4.48,2-6.87a29,29,0,0,1,8.31-13,51.34,51.34,0,0,0-6.12,5.21c-2,1.92-3.66,3.81-5.29,5.64C232.1,52.25,230.83,53.69,229.43,55.1Z"/><path class="cls-1" d="M254.88,34.94c3.26,0,5.73,1.88,5.73,4.65,0,3.16-3.26,5.53-7,5.63a7.34,7.34,0,0,0,.3-2.27c0-3.36-.79-5.94-2.67-5.94-2.28,0-3.66,2.18-3.56,5.34.1,2.77,1.28,6.73,1,12.46A19.26,19.26,0,0,1,243.51,67a13.47,13.47,0,0,1-4.85,3.26c-.4.17-.41.33-.13.33l.23,0a34,34,0,0,0,11.67-6.13c3.06-2.47,6.82-6.13,8.2-9.1-.79,3.27-3.65,6.73-7.51,9.89a39.15,39.15,0,0,1-11.86,6.33A40.23,40.23,0,0,1,227.89,73c-5.34,0-10.39-2.37-10.39-8.2a9.71,9.71,0,0,1,9.35-9.95,7.3,7.3,0,0,1,.94.06c2.67-2.87,6.32-7.12,10.28-10.88,4.94-4.74,11.27-9.09,16.81-9.09M227.59,72.11c2.17,0,3.46-1.68,4.74-4.45,1.78-3.85,2.58-9.09,4.45-14.73S242.22,41.76,247,38.6c.21-.15.22-.24.09-.24a.54.54,0,0,0-.19,0c-2.37,1.09-6.23,4.45-8.31,6.52-3.65,3.56-6.32,7-9.59,10.29a4.58,4.58,0,0,1,2.67,2.67c-2.86.39-7,5-7,10.48,0,2.27.89,3.75,3,3.75m27.29-37.67c-6.56,0-13.56,5.78-17.16,9.23-2.92,2.78-5.74,5.89-8,8.38-.76.84-1.47,1.63-2.13,2.33-.24,0-.49,0-.74,0A10.17,10.17,0,0,0,217,64.8c0,6.42,5.63,8.7,10.89,8.7A41.21,41.21,0,0,0,239.4,72a39.55,39.55,0,0,0,12-6.42c4.27-3.5,6.93-7,7.69-10.16l-.94-.33c-1.33,2.86-5,6.48-8.07,8.92a35.83,35.83,0,0,1-7.8,4.72,13.21,13.21,0,0,0,1.56-1.42,19.73,19.73,0,0,0,5.28-12.48,44.48,44.48,0,0,0-.61-9.26,28.86,28.86,0,0,1-.38-3.23,5.5,5.5,0,0,1,1.18-4,2.54,2.54,0,0,1,1.88-.79c1.36,0,2.17,2,2.17,5.44a7.17,7.17,0,0,1-.27,2.11l-.23.68.71,0c4.21-.11,7.51-2.81,7.51-6.13,0-3-2.62-5.15-6.23-5.15Zm-25,20.6c1.31-1.35,2.52-2.7,3.8-4.13,1.63-1.83,3.31-3.72,5.27-5.63.79-.79,1.87-1.79,3-2.78a31,31,0,0,0-5.62,10.28c-.8,2.39-1.39,4.67-2,6.88a48.4,48.4,0,0,1-2.47,7.79c-1.39,3-2.59,4.16-4.29,4.16-.61,0-2.47,0-2.47-3.25,0-5.18,4-9.63,6.59-10l.63-.09-.23-.59A5.49,5.49,0,0,0,229.84,55Z"/><path d="M265.06,73.25c-5.74,0-9.43-3-9.64-7.85a18,18,0,0,1,2.2-8.72,151.51,151.51,0,0,1,10.13-16.35H262c-.68,0-1.1-.15-1.28-.46a.77.77,0,0,1,.08-.81c.37-.61,1.6-.61,2.69-.61h5.6c1.44-2.2,3.74-5.48,5.17-7.42,3.14-4.41,4.28-5.24,7.22-5.24.63,0,1.49,0,2.44,0,1.16,0,2.45.06,3.59.06,2.45,0,4-1.7,5.18-2.93.74-.79,1.32-1.42,1.94-1.42h.52l-.32.4c-3.27,4.11-9.45,13.19-11.52,16.51h3.31c.73,0,1.17.12,1.39.4a.77.77,0,0,1,.14.69c-.14.72-.79.79-2.61.79H282.1a181.68,181.68,0,0,0-12.86,20.92,14.76,14.76,0,0,0-1.85,6.31c0,1,.3,2.72,2.32,2.72s4.72-1.91,7.62-5.25a61.75,61.75,0,0,0,6.89-9.85l1-1.64-.5,1.83a30.5,30.5,0,0,1-6.18,10.77C274.17,71.13,270.15,73.25,265.06,73.25Z"/><path class="cls-1" d="M294.62,21.79c-3.46,4.35-10.08,14.14-11.76,16.91h3.75c1.09,0,1.39.29,1.29.79s-.5.59-2.37.59H282a183.63,183.63,0,0,0-13,21.06,15.33,15.33,0,0,0-1.87,6.42c0,.8.19,3,2.57,3,1.78,0,4.54-1.58,7.81-5.34a62.5,62.5,0,0,0,6.92-9.89A30.57,30.57,0,0,1,278.31,66c-4,4.55-7.81,7-13.25,7-5.83,0-9.2-3.06-9.39-7.61a17.82,17.82,0,0,1,2.17-8.6,159.71,159.71,0,0,1,10.38-16.71H262c-1.08,0-1.28-.4-1-.89s1.48-.49,2.47-.49h5.73c1.48-2.28,3.86-5.64,5.24-7.52,3.17-4.45,4.25-5.14,7-5.14,1.39,0,4,.1,6,.1,4.06,0,5.74-4.35,7.12-4.35m1-.5h-1c-.73,0-1.34.66-2.12,1.5-1.18,1.27-2.66,2.85-5,2.85-1.13,0-2.44,0-3.58-.06-1,0-1.82,0-2.45,0-3,0-4.26.9-7.43,5.35-1.4,1.9-3.65,5.1-5.1,7.31h-5.46c-1.21,0-2.46,0-2.9.73a1,1,0,0,0-.09,1.06c.23.4.72.59,1.5.59h5.28a151.58,151.58,0,0,0-9.88,16,18.26,18.26,0,0,0-2.22,8.84c.21,5,4,8.09,9.89,8.09,5.17,0,9.24-2.15,13.63-7.19a30.66,30.66,0,0,0,6.23-10.87l1-3.67L284,55.05a61.58,61.58,0,0,1-6.87,9.82c-2.81,3.23-5.59,5.16-7.43,5.16s-2.07-1.34-2.07-2.47a14.54,14.54,0,0,1,1.82-6.2,182.75,182.75,0,0,1,12.76-20.78h3.31c1.66,0,2.66,0,2.86-1a1,1,0,0,0-.19-.89,1.94,1.94,0,0,0-1.59-.49h-2.85C286,34.62,291.87,26.05,295,22.1l.65-.81Z"/><path d="M290.47,73.22c-6,0-9.55-3-9.55-8,0-3.12,1.32-7,3.7-10.91,1-1.7,2.07-3.35,3.1-5,2.45-3.85,4.57-7.18,4.57-8.66,0-.68-.31-1-.93-1-1.59,0-3.77,1.88-6.33,5.43l-.83,1.16.39-1.37A14.6,14.6,0,0,1,298,35c4.24,0,6.87,2.22,6.87,5.79A12.72,12.72,0,0,1,303,46.63c4.31-6,8.82-11.65,14.2-11.65,4.31,0,6.88,2.13,6.88,5.69,0,6.83-6.43,11-11,11A9.18,9.18,0,0,1,307,50l-.54-.44h.7c1.4,0,6.47-6.75,6.47-9.94,0-.53-.24-.63-.64-.63-1.94,0-4.79,3.29-10.88,11.17C298,55.65,291,65.64,290.91,70.44a2.12,2.12,0,0,0,1.23,2.23l1,.4-1.06.08C291.51,73.2,291,73.22,290.47,73.22Z"/><path class="cls-1" d="M317.16,35.23c4,0,6.63,1.88,6.63,5.44,0,6.53-6,10.78-10.78,10.78a8.88,8.88,0,0,1-5.83-1.68c1.68,0,6.72-7.12,6.72-10.18,0-.8-.5-.89-.89-.89-2.08,0-5,3.46-11.07,11.27-4.75,6.32-11.18,15.82-11.28,20.46a2.36,2.36,0,0,0,1.39,2.47c-.55,0-1.08.07-1.58.07-6.25,0-9.3-3.3-9.3-7.78,0-3,1.19-6.72,3.66-10.78,3.56-5.93,7.71-11.56,7.71-13.74,0-.79-.39-1.28-1.18-1.28-1.88,0-4.26,2.37-6.53,5.53A14.37,14.37,0,0,1,298,35.23c4.45,0,6.62,2.38,6.62,5.54,0,2.18-1.28,5.14-3,7.42-.25.31-.19.5,0,.5a.45.45,0,0,0,.33-.21c4.94-6.92,9.59-13.25,15.22-13.25m0-.5c-4.84,0-8.94,4.42-12.82,9.59a10.27,10.27,0,0,0,.76-3.55c0-3.72-2.73-6-7.12-6a14.87,14.87,0,0,0-13.63,10.06l-.77,2.74,1.66-2.31c2.47-3.44,4.64-5.33,6.12-5.33.34,0,.68.09.68.78,0,1.41-2.2,4.86-4.53,8.52-1,1.6-2.08,3.26-3.11,5-2.4,3.94-3.73,7.86-3.73,11,0,5.11,3.76,8.28,9.8,8.28.52,0,1.06,0,1.62-.07l2.12-.17-2-.79c-.46-.18-1.07-.59-1.07-2,.08-3.44,4.15-10.8,11.18-20.16,5.91-7.66,8.85-11.07,10.67-11.07.31,0,.39,0,.39.39,0,2.93-5,9.68-6.22,9.68h-1.39l1.07.88A9.41,9.41,0,0,0,313,52c4.71,0,11.28-4.29,11.28-11.28,0-3.66-2.73-5.94-7.13-5.94Z"/><path d="M348.6,73.25c-7.87,0-9.05-4.61-9.05-7.37a10,10,0,0,1,.67-3.56A52.37,52.37,0,0,1,336,68c-2.87,3.18-5.3,5-9.18,5-5.73,0-8.75-3.09-8.75-9,0-5.45,3.17-12.39,8.07-17.67,7.25-7.9,14.62-11.74,22.53-11.74,2.05,0,3.47.45,4.32,1.38a3.86,3.86,0,0,1,.88,3c1.24.53,3.87.79,8.05.79a8.14,8.14,0,0,0,6.14-2.74c.57-.55,1-1,1.41-1a.6.6,0,0,1,.24,0l.31.11-.19.26c-5.5,8.06-12.59,19.27-15.8,25-1.84,3.25-2.74,5.5-2.74,6.89a1.57,1.57,0,0,0,1.73,1.73c1.94,0,4.68-1.88,7.52-5.15a62,62,0,0,0,6.9-9.85l.95-1.64-.5,1.83c-.85,3.14-3.2,7.17-6.28,10.77C358.75,69.46,354.65,73.25,348.6,73.25Zm2.67-36.48c-2.45,0-7.44,5.65-14,15.9l-.54.87c-2.47,4-7.62,12.19-7.62,15.61,0,.73.36,1.13,1,1.13,1.28,0,3.15-1.43,5.54-4.26s6.55-8.93,11.85-17.47l4.94-8.2a4.42,4.42,0,0,0-.35-3.22A1,1,0,0,0,351.27,36.77Z"/><path class="cls-1" d="M348.7,34.94c2.67,0,5.24.79,4.94,4.25,1.39.69,4.55.89,8.31.89,5,0,6.48-3.69,7.55-3.69a.41.41,0,0,1,.16,0c-5.54,8.11-12.66,19.38-15.82,25-1.68,3-2.77,5.43-2.77,7a1.82,1.82,0,0,0,2,2c1.78,0,4.45-1.48,7.71-5.24a61.85,61.85,0,0,0,6.92-9.89c-.89,3.27-3.36,7.32-6.23,10.68-3.46,4-7.41,7-12.85,7-6.33,0-8.8-3.06-8.8-7.12a9.86,9.86,0,0,1,1-4.25c.13-.19.09-.39,0-.39s-.16.06-.26.2a59.87,59.87,0,0,1-4.64,6.42c-2.77,3.07-5.15,4.94-9,4.94-5.64,0-8.5-3-8.5-8.7,0-5,2.76-11.86,8-17.5,7.72-8.4,15-11.66,22.35-11.66M330.11,70.53c1.19,0,3-1.09,5.74-4.35,3.55-4.15,10.08-14.63,11.86-17.5l4.94-8.2c.4-2.28,0-4-1.38-4-3.76,0-11.57,11.86-14.24,16-2.27,3.65-8.2,12.85-8.2,16.61a1.22,1.22,0,0,0,1.28,1.38M348.7,34.44c-8,0-15.41,3.87-22.71,11.83-5,5.4-8.14,12.23-8.14,17.83,0,6,3.11,9.2,9,9.2,4,0,6.44-1.87,9.37-5.1a46.2,46.2,0,0,0,3.3-4.38,9.93,9.93,0,0,0-.22,2.06c0,2.85,1.21,7.62,9.3,7.62,6.15,0,10.3-3.84,13.23-7.19,3.1-3.64,5.47-7.7,6.33-10.87l1-3.67-1.91,3.28a61.58,61.58,0,0,1-6.87,9.82c-2.79,3.21-5.47,5.06-7.33,5.06a1.33,1.33,0,0,1-1.48-1.48c0-1.34.89-3.56,2.7-6.77,3.22-5.72,10.3-16.93,15.8-25l.36-.53-.6-.22a.92.92,0,0,0-.33-.06c-.54,0-1,.43-1.58,1a7.93,7.93,0,0,1-6,2.67c-4,0-6.53-.23-7.79-.71a4.07,4.07,0,0,0-1-3c-.91-1-2.38-1.46-4.51-1.46ZM330.11,70c-.53,0-.78-.29-.78-.88,0-3.35,5.12-11.54,7.59-15.48l.54-.87C346.61,38.56,350.17,37,351.27,37a.77.77,0,0,1,.63.28,4.2,4.2,0,0,1,.28,3l-4.9,8.12C342,57,337.79,63.14,335.47,65.86c-2.93,3.45-4.53,4.17-5.36,4.17Z"/><path d="M394.27,73.25c-5.41,0-8.65-2.94-8.65-7.86,0-3.9,1.84-8,6.57-14.48,3.11-4.34,6.68-9.56,6.68-11.52a.74.74,0,0,0-.84-.84c-2.29,0-7,4.32-12.55,11.57a146.71,146.71,0,0,0-9.38,14.21c-3.49,6-3.77,8.12-3.43,8.37l.65.49-.81,0c-5-.22-8.24-3.34-8.24-8,0-3.12,1.31-7,3.69-10.91,1-1.7,2.08-3.35,3.1-5,2.45-3.85,4.58-7.18,4.58-8.66,0-.68-.32-1-.94-1-1.58,0-3.77,1.88-6.32,5.43l-.83,1.16.38-1.37A14.61,14.61,0,0,1,381.32,35c4.24,0,6.88,2.22,6.88,5.79a13.15,13.15,0,0,1-2.2,6.35c4.94-6.41,10-11.94,16.28-11.94,4.72,0,7.77,2.66,7.77,6.78,0,3.63-2.21,7.54-6.28,13.49-4.62,6.69-7,10.54-7,13a1.72,1.72,0,0,0,1.83,1.83c1.94,0,4.72-1.91,7.62-5.25a62.4,62.4,0,0,0,6.89-9.85l1-1.64-.5,1.83c-.86,3.14-3.21,7.17-6.28,10.77C404.42,69.46,400.32,73.25,394.27,73.25Z"/><path class="cls-1" d="M381.32,35.23c4.45,0,6.63,2.38,6.63,5.54,0,2.18-1.29,5.14-3,7.42-.18.31-.14.46,0,.46a.49.49,0,0,0,.3-.17c4.94-6.52,10.28-13,17-13,4.06,0,7.52,2.18,7.52,6.53,0,3.66-2.38,7.71-6.23,13.34-4.65,6.73-7,10.58-7,13.15a2,2,0,0,0,2.08,2.08c1.77,0,4.54-1.58,7.81-5.34a62.5,62.5,0,0,0,6.92-9.89c-.89,3.27-3.36,7.32-6.23,10.68-3.46,4-7.42,7-12.86,7-5.73,0-8.4-3.26-8.4-7.61,0-4,2.08-8.21,6.53-14.34,3.75-5.24,6.72-9.78,6.72-11.66A1,1,0,0,0,398,38.3c-2.17,0-6.52,3.56-12.75,11.67a145.33,145.33,0,0,0-9.39,14.23c-2.58,4.45-4.16,8.11-3.37,8.7-4.44-.19-8-2.86-8-7.71,0-3,1.18-6.72,3.65-10.78,3.56-5.93,7.72-11.56,7.72-13.74a1.12,1.12,0,0,0-1.19-1.28c-1.88,0-4.25,2.37-6.53,5.53a14.38,14.38,0,0,1,13.15-9.69m0-.5a14.87,14.87,0,0,0-13.63,10.06l-.77,2.74,1.66-2.31c2.47-3.44,4.64-5.33,6.12-5.33.34,0,.69.09.69.78,0,1.41-2.21,4.86-4.54,8.52-1,1.6-2.08,3.26-3.1,5C365.34,58.1,364,62,364,65.19c0,4.76,3.33,8,8.48,8.21l1.62.08-1.3-1c-.14-.26.17-2.28,3.5-8a148,148,0,0,1,9.36-14.18C393.85,39.63,397.2,38.8,398,38.8c.31,0,.59.07.59.59,0,1.91-3.78,7.4-6.63,11.37-4.76,6.56-6.62,10.67-6.62,14.63,0,5.08,3.33,8.11,8.9,8.11,6.15,0,10.3-3.84,13.23-7.19a31.06,31.06,0,0,0,6.34-10.87l1-3.67-1.92,3.28a60.85,60.85,0,0,1-6.86,9.82c-2.81,3.23-5.59,5.16-7.43,5.16a1.48,1.48,0,0,1-1.58-1.58c0-2.39,2.33-6.21,6.93-12.86,4.1-6,6.32-9.94,6.32-13.63,0-4.86-4-7-8-7-5.69,0-10.35,4.4-14.81,9.93a11.05,11.05,0,0,0,1-4.09c0-3.72-2.73-6-7.13-6Z"/><path d="M440,73.25c-7.87,0-9.05-4.61-9.05-7.37a10.18,10.18,0,0,1,.67-3.56A53.36,53.36,0,0,1,427.38,68c-2.87,3.18-5.3,5-9.18,5-5.73,0-8.75-3.09-8.75-9,0-5.45,3.17-12.39,8.07-17.67,7.26-7.9,14.62-11.74,22.53-11.74,1.49,0,3.48.28,4.52,1.61a3.21,3.21,0,0,1,.64,2.14c3.15-5,7.19-11,10.06-14.82,3.19-4.25,4.24-5.24,7.22-5.24.63,0,1.51,0,2.48,0,1.19,0,2.51,0,3.65,0,2.45,0,4-1.69,5.18-2.93.74-.79,1.32-1.42,1.94-1.42h.5l-.3.4c-6.05,8-15.84,23.13-21.15,31.43C451,51.86,448,57,445.41,61.56c-1.17,2.13-2.74,5.16-2.74,6.89a1.57,1.57,0,0,0,1.73,1.73c1.94,0,4.68-1.88,7.52-5.15a61.84,61.84,0,0,0,6.9-9.85l.95-1.64-.5,1.83c-.85,3.14-3.2,7.17-6.28,10.77C450.1,69.46,446,73.25,440,73.25Zm2.67-36.48c-3.8,0-11.48,11.94-14,15.86l-.44.71c-2.52,4-7.75,12.43-7.75,15.81,0,.73.37,1.13,1,1.13,1.28,0,3.15-1.43,5.55-4.26s6.54-8.93,11.84-17.47l4.94-8.2a4.37,4.37,0,0,0-.35-3.22A1,1,0,0,0,442.62,36.77Z"/><path class="cls-1" d="M475.74,14.37c-6.13,8.11-15.92,23.24-21.16,31.44-3,4.65-6.32,10.09-9.39,15.63-1.58,2.86-2.77,5.43-2.77,7a1.82,1.82,0,0,0,2,2c1.78,0,4.45-1.48,7.71-5.24A61.21,61.21,0,0,0,459,55.3c-.89,3.27-3.36,7.32-6.23,10.68-3.46,4-7.41,7-12.85,7-6.33,0-8.8-3.06-8.8-7.12a10,10,0,0,1,1-4.25c.13-.19.09-.39,0-.39s-.15.06-.26.2a59.87,59.87,0,0,1-4.64,6.42c-2.77,3.07-5.14,4.94-9,4.94-5.64,0-8.5-3-8.5-8.7,0-5,2.77-11.86,8-17.5,7.71-8.4,15-11.66,22.34-11.66,2.87,0,5.64,1.09,4.75,4.65,3.06-5,7.51-11.57,10.67-15.82s4.25-5.14,7-5.14c1.39,0,4.06.09,6.13.09,4.06,0,5.74-4.35,7.12-4.35M421.46,70.53c1.19,0,3-1.09,5.74-4.35,3.56-4.15,10.08-14.63,11.86-17.5l4.94-8.2c.4-2.28,0-4-1.38-4-3.95,0-11.57,11.86-14.24,16-2.27,3.65-8.2,12.95-8.2,16.61a1.22,1.22,0,0,0,1.28,1.38m55.29-56.66h-1c-.73,0-1.34.66-2.12,1.5-1.18,1.27-2.66,2.85-5,2.85-1.13,0-2.47,0-3.64,0-1,0-1.86,0-2.49,0-3.08,0-4.22,1.08-7.42,5.34-2.75,3.7-6.57,9.32-9.66,14.19a3.21,3.21,0,0,0-.65-1.51c-1.1-1.42-3.17-1.71-4.71-1.71-8,0-15.41,3.87-22.71,11.83-5,5.4-8.14,12.23-8.14,17.83,0,6,3.11,9.2,9,9.2,4,0,6.45-1.87,9.37-5.1a45.79,45.79,0,0,0,3.3-4.38,9.93,9.93,0,0,0-.22,2.06c0,2.85,1.21,7.62,9.3,7.62,6.15,0,10.3-3.84,13.23-7.19,3.1-3.63,5.47-7.7,6.33-10.87l1-3.67-1.91,3.28a60.94,60.94,0,0,1-6.87,9.82c-2.79,3.21-5.47,5.06-7.33,5.06a1.33,1.33,0,0,1-1.48-1.48c0-1.67,1.55-4.67,2.71-6.77,2.54-4.59,5.61-9.7,9.38-15.6,5.29-8.3,15.09-23.41,21.13-31.4l.61-.81ZM421.46,70c-.53,0-.78-.29-.78-.88,0-3.31,5.4-12,7.71-15.68l.42-.67,0,0C435.55,42.32,440.19,37,442.62,37a.77.77,0,0,1,.63.28,4.2,4.2,0,0,1,.28,3l-4.9,8.12c-5.29,8.52-9.48,14.72-11.81,17.44-2.93,3.45-4.53,4.17-5.36,4.17Z"/><path d="M182.83,141.67V106.9h20.84v3.19l-.3-.07a40.77,40.77,0,0,0-8.61-.7h-8.2v13.75h12.67v2.42H186.56v16.18Z"/><path class="cls-1" d="M203.42,107.15v2.63a40.85,40.85,0,0,0-8.66-.71h-8.45v14.25H199v1.92H186.31v16.17h-3.23V107.15h20.34m.5-.5H182.58v35.26h4.23V125.74h12.67v-2.92H186.81V109.57h7.95a40.32,40.32,0,0,1,8.56.7l.6.13v-3.75Z"/><path d="M213,142.49c-7.22,0-12.26-5.49-12.26-13.36,0-8.18,5.15-13.9,12.53-13.9a9.48,9.48,0,0,1,9.68,9.68,20.55,20.55,0,0,1-.17,2.67l0,.21H204.58c0,.35,0,.7,0,1.07,0,6.57,3.84,11.15,9.34,11.15a9.2,9.2,0,0,0,6.26-2.46l.22-.18,1.31,2.07-.17.14A12.6,12.6,0,0,1,213,142.49Zm6.27-17c-.08-5-2.51-7.94-6.55-7.94-3.68,0-6.81,3.18-7.86,7.94Z"/><path class="cls-1" d="M213.29,115.48a9.22,9.22,0,0,1,9.43,9.43,20.42,20.42,0,0,1-.16,2.63H204.35a11.65,11.65,0,0,0,0,1.32c0,6.47,3.78,11.4,9.59,11.4a9.47,9.47,0,0,0,6.42-2.52l1,1.65a12.35,12.35,0,0,1-8.33,2.85c-6.91,0-12-5.32-12-13.11s4.77-13.65,12.28-13.65m-8.72,10.25h15c0-5.75-3-8.44-6.8-8.44s-7.13,3.24-8.17,8.44M213.29,115c-7.53,0-12.78,5.82-12.78,14.15,0,7.89,5.26,13.61,12.51,13.61a12.84,12.84,0,0,0,8.65-3l.34-.28-.24-.37-1-1.65-.31-.48-.44.37a8.91,8.91,0,0,1-6.09,2.4c-5.35,0-9.09-4.48-9.09-10.9,0-.28,0-.55,0-.82H223l.06-.43a20.91,20.91,0,0,0,.17-2.7,9.73,9.73,0,0,0-9.93-9.93Zm-8.09,10.25c1.09-4.47,4.06-7.44,7.54-7.44,3.81,0,6.14,2.77,6.29,7.44Z"/><path d="M234.62,142.49a19,19,0,0,1-7.23-1.72l-.23-.11,1.39-3.1.25.21a9.55,9.55,0,0,0,5.87,2.41c4,0,6.61-1.78,6.61-4.52,0-2.17-1.08-3.95-6.35-5.57-5.61-1.78-7.8-4-7.8-7.75,0-4.25,3.63-7.11,9-7.11a17,17,0,0,1,7.4,1.84l.21.11-1.32,3-.25-.2a10.43,10.43,0,0,0-6.59-2.47c-3.2,0-5.35,1.6-5.35,4s1.52,3.78,6.25,5.36c5.72,1.87,8,4,8,7.75S241.88,142.49,234.62,142.49Z"/><path class="cls-1" d="M236.16,115.48a16.87,16.87,0,0,1,7.29,1.81l-1.1,2.52a10.72,10.72,0,0,0-6.74-2.52c-3.35,0-5.6,1.7-5.6,4.22s1.65,4,6.42,5.6c5.87,1.91,7.78,4,7.78,7.51,0,4.16-3.07,7.62-9.59,7.62a18.74,18.74,0,0,1-7.13-1.7l1.15-2.58a9.65,9.65,0,0,0,6,2.47c4.17,0,6.86-1.87,6.86-4.77,0-2.58-1.54-4.28-6.53-5.81-5.53-1.76-7.62-3.84-7.62-7.51,0-3.84,3.18-6.86,8.78-6.86m0-.5c-5.55,0-9.28,3-9.28,7.36,0,3.93,2.24,6.17,8,8,5.15,1.59,6.18,3.22,6.18,5.34,0,2.59-2.5,4.27-6.36,4.27a9.32,9.32,0,0,1-5.71-2.35l-.5-.42-.27.6L227,140.33l-.21.46.46.2a18.85,18.85,0,0,0,7.33,1.75c7.44,0,10.09-4.2,10.09-8.12s-2.27-6.08-8.13-8c-4.59-1.53-6.07-2.77-6.07-5.12s2.05-3.72,5.1-3.72a10.14,10.14,0,0,1,6.43,2.42l.51.4.26-.6,1.1-2.52.18-.42-.41-.22a17.35,17.35,0,0,0-7.52-1.87Z"/><path d="M257.05,142.49c-2.82,0-6.18-1.29-6.18-7.43V118.47h-4.11v-2.42h4.11V108.5l3.46-1.15v8.7h8v2.42h-8v17c0,2.67,1.17,4.19,3.21,4.19a5.77,5.77,0,0,0,4.31-2.06l.25-.26,1.11,2.29-.11.12A8,8,0,0,1,257.05,142.49Z"/><path class="cls-1" d="M254.08,107.7v8.6h8v1.92h-8v17.27c0,3.18,1.59,4.44,3.46,4.44A6,6,0,0,0,262,137.8l.88,1.81a7.72,7.72,0,0,1-5.86,2.63c-3.18,0-5.93-1.7-5.93-7.18V118.22H247V116.3h4.11v-7.62l3-1m.5-.7-.65.22-3,1-.35.11v7.48h-4.11v2.92h4.11v16.34c0,6.68,4,7.68,6.43,7.68a8.21,8.21,0,0,0,6.23-2.8l.23-.25-.15-.3-.88-1.81-.31-.65-.5.52a5.55,5.55,0,0,1-4.13,2c-1.91,0-3-1.39-3-3.94V118.72h8V115.8h-8V107Z"/><path d="M267.76,141.67V116.45l3.46-1.15v26.37Zm1.73-31.48a2.95,2.95,0,0,1,0-5.87,2.95,2.95,0,0,1,0,5.87Z"/><path class="cls-1" d="M269.49,104.57a2.7,2.7,0,0,1,0,5.37,2.7,2.7,0,0,1,0-5.37M271,115.65v25.76h-3V116.63l3-1m-1.48-11.58a3.2,3.2,0,1,0,2.91,3.19,3,3,0,0,0-2.91-3.19Zm2,10.88-.66.22-3,1-.34.11v25.64h4V115Z"/><polygon points="285.44 141.83 275.71 116.06 279.37 116.06 287.53 138.17 295.8 116.06 298.58 116.06 288.86 141.83 285.44 141.83"/><path class="cls-1" d="M298.22,116.3l-9.54,25.28h-3.07l-9.54-25.28h3.13l8.33,22.59L296,116.3h2.25m.72-.5h-3.31l-.12.33-8,21.33-7.86-21.33-.12-.33h-4.2l.25.68,9.54,25.28.13.32H289l.12-.32,9.54-25.28.25-.68Z"/><path d="M308.91,142.49c-4.14,0-7.15-2.83-7.15-6.72,0-5.05,4.09-8.07,14.11-10.44l1.46-.34v-.46c0-4.83-1.53-7-5-7-2.76,0-5.1,1.37-7.15,4.18l-.2.27-2-2.64.17-.16a13,13,0,0,1,9.49-4c7.13,0,8.09,5.06,8.09,10v16.43h-3.46v-4C314.94,140.7,311.81,142.49,308.91,142.49Zm7.3-14.87c-7.57,1.92-10.66,4.17-10.66,7.76,0,2.55,1.73,4.2,4.41,4.2,2.42,0,5-1.85,7.37-5.21v-7Z"/><path class="cls-1" d="M312.7,115.48c6.14,0,7.84,3.68,7.84,9.76v16.17h-3v-4.16h-.22c-2.25,3-5.38,5-8.45,5-3.89,0-6.9-2.63-6.9-6.47,0-4.83,3.94-7.84,13.92-10.2l1.65-.38v-.66c0-5.48-2-7.24-5.21-7.24s-5.43,1.65-7.35,4.28l-1.64-2.19a12.77,12.77,0,0,1,9.32-3.9M310,139.82c2.63,0,5.31-2,7.62-5.37v-7.4l-1.43.33c-7.78,2-10.85,4.28-10.85,8,0,2.75,1.91,4.44,4.66,4.44M312.7,115a13.41,13.41,0,0,0-9.67,4l-.32.31.27.36,1.64,2.19.41.54.4-.55c2-2.74,4.26-4.07,6.94-4.07,2.19,0,4.71.77,4.71,6.74v.26l-1.26.29c-10.17,2.41-14.31,5.5-14.31,10.69,0,4,3.11,7,7.4,7,2.8,0,5.79-1.61,8.17-4.35v3.52h4V125.24c0-5.07-1-10.26-8.34-10.26ZM310,139.32c-2.53,0-4.16-1.54-4.16-3.94,0-3.45,3-5.63,10.47-7.52l.81-.18v6.62c-2.27,3.24-4.79,5-7.12,5Z"/><polygon points="327.86 141.66 327.86 104.01 331.32 102.85 331.32 141.66 327.86 141.66"/><path class="cls-1" d="M331.07,103.2v38.21h-3V104.19l3-1m.5-.69-.66.22-3,1-.34.12v38.08h4v-39.4Z"/></svg>