<svg id="Layer_1" data-name="Layer 1" xmlns="http://www.w3.org/2000/svg" viewBox="0 0 32 32"><defs><style>.cls-1{fill:#263674;}.cls-2{fill:#07488e;}.cls-3{fill:#0468a9;}.cls-4,.cls-5{fill:none;}.cls-4{stroke:#1d1d1b;stroke-linejoin:round;}</style></defs><title>menu_select</title><path class="cls-1" d="M15.39,23l1.76,8.5a1.21,1.21,0,0,1-.64-.14s-.79-6.14-1.15-7c0,0-5.51,3-7,4.17s2.25-7,2.25-7L6.84,23.61l3.33-8L6.58,18.4,9.44,10,6.72,12.27l4-11.73c-.15,4.11-2.57,9.62-2.61,9.71S10,8.92,10.5,9s-2.24,7.1-2.28,7.21,2.19-1.79,2.85-1.79S9,21.4,9,21.5s2.73-1.7,2.88-1.15-2.91,6.09-2.29,6.28S14.25,23.48,15.39,23Z"/><path class="cls-2" d="M16.73,16.87c.05.73,3.83,3.93,3.83,3.93l-3.82.34.49,1.72a53.13,53.13,0,0,0,3.1,7.6,6.89,6.89,0,0,1-3.18,1h0L15.39,23c-1.14.52-5.27,3.85-5.84,3.67s2.45-5.72,2.29-6.28S9,21.46,9,21.5s2.78-7.12,2.11-7.11-2.8,1.75-2.85,1.79S11,9,10.5,9s-2.32,1.25-2.37,1.28,2.46-5.6,2.61-9.71a3.06,3.06,0,0,0,.1.47c.63,2.08,3.92,5.45,3.92,5.45s-2,.19-1.93,1,5.58,4.25,5.69,4.32c-.09,0-3.79,0-3.69.59s5,4.13,5.07,4.22C19.82,16.6,16.68,16.15,16.73,16.87Z"/><path class="cls-3" d="M27.57,22.16c-1.9-.15-8.48,1-8.48,1A18,18,0,0,0,22,29.47a18.48,18.48,0,0,1-1.68,1,53.13,53.13,0,0,1-3.1-7.6l-.49-1.72,3.82-.34s-3.78-3.2-3.83-3.93,3.09-.27,3.17-.26c-.12-.08-5-3.6-5.07-4.22s3.6-.59,3.69-.59c-.11-.07-5.65-3.5-5.69-4.32s1.93-1,1.93-1-3.83-3.93-4-5.92l9.6,7.83-3.52-.5L23.7,13.5,19.15,13l7.09,5.07-4.28.2S29.47,22.31,27.57,22.16Z"/><path class="cls-4" d="M18.52,11.8h0"/><path class="cls-4" d="M19.9,16.61h0"/><path class="cls-2" d="M17.15,31.46,15.39,23a.64.64,0,0,1,.24-.07C16.21,23,17.14,31.35,17.15,31.46Z"/><path class="cls-2" d="M10.84,1l4.55,22c-1.14.52-5.27,3.85-5.84,3.67s2.45-5.72,2.29-6.28S9,21.46,9,21.5s2.78-7.12,2.11-7.11-2.8,1.75-2.85,1.79S11,9,10.5,9s-2.32,1.25-2.37,1.28,2.46-5.6,2.61-9.71Z"/><path class="cls-5" d="M25.68,25.44h0"/><path class="cls-2" d="M-4.29,11.12c-.23-.36.33-.46.33-.46s2.52.92,4,1.56V12.1c-1.1-.43-2.39-1-3.7-1.44a3.58,3.58,0,0,0-.83-.12h0a58.06,58.06,0,0,0-10,2.52h0c1.32.09,2.65.15,4,.19h4.14l.72,0h1.3l.38,0,.37,0H-3l.24,0,.31,0,.25,0h0l.3,0,.24,0,.52,0h0A5.23,5.23,0,0,1-4.29,11.12Z"/><path class="cls-3" d="M0,12.21c-1.43-.63-3.92-1.57-3.92-1.57s-.63.09-.37.48A5.27,5.27,0,0,0-1.15,13h0c.39,0,.77-.09,1.15-.13Z"/></svg>