<svg id="Layer_4" data-name="Layer 4" xmlns="http://www.w3.org/2000/svg" viewBox="0 0 1417.32 645.37"><defs><style>.cls-1,.cls-5,.cls-6,.cls-7,.cls-8{fill:none;}.cls-1{stroke:#1d1d1b;stroke-linejoin:round;}.cls-2{fill:#263674;}.cls-3{fill:#07488e;}.cls-4{fill:#0468a9;}.cls-5{stroke:#07488e;}.cls-5,.cls-6,.cls-8{stroke-miterlimit:10;}.cls-6{stroke:#0468a9;}.cls-8{stroke:#263674;}</style></defs><title>musik_edit</title><path class="cls-1" d="M90.24,181.77h0"/><path class="cls-2" d="M1293.86,492.68l.19,51.08a7.62,7.62,0,0,1-3.58-1.54s2.71-36.36,1.62-41.82c0,0-35.33,11.07-45.5,15.83s21.15-37.53,21.15-37.53l-24,7.71,28.67-42.52-24,12.15,26.38-45.22-18.38,10,37-62.91c-5.69,23.53-26.14,52.48-26.48,52.95.34-.15,12.54-5.45,15.21-4.62s-21.29,38.34-21.64,38.9c.35-.19,14.72-7.72,18.55-7s-20.15,38-20.49,38.55c.4-.15,17.69-6.62,18-3.25s-24,31.69-20.59,33.54C1259,508.69,1286.65,494.31,1293.86,492.68Z"/><path class="cls-3" d="M1308.73,459.12c-.54,4.27,17.48,27.14,17.48,27.14l-22.42-2.47.82,10.49c.47,15.27,8.91,47.47,8.91,47.47-10.18,2.93-16.16,2.75-19.47,2h0l-.19-51.08c-7.21,1.63-34.89,16-38,14.32-3.38-1.85,20.86-30.13,20.59-33.54s-17.55,3.1-18,3.25c.34-.55,24.34-37.8,20.49-38.55s-18.2,6.8-18.55,7c.35-.56,24.33-38.06,21.64-38.9s-14.87,4.47-15.21,4.62c.34-.47,20.79-29.42,26.48-52.95a13.12,13.12,0,0,0,0,2.8c1.18,12.73,16.24,36,16.24,36s-11.56-1.2-12.34,3.62S1324.46,431.44,1325,432c-.51-.1-21.85-4.58-22-.92s23.72,29.66,24.3,30.3C1326.89,461.21,1309.27,454.91,1308.73,459.12Z"/><path class="cls-4" d="M1365,502.36c-10.77-3.12-50.07-4.13-50.07-4.13-.55,18.25,9.45,39.76,9.45,39.76-4.07,1.61-7.69,2.84-10.89,3.76,0,0-8.44-32.2-8.91-47.47l-.82-10.49,22.42,2.47s-18-22.87-17.48-27.14,18.16,2.09,18.6,2.24c-.59-.64-24.45-26.63-24.3-30.29s21.49.81,22,.92c-.57-.54-28.52-26.82-27.75-31.6s12.34-3.62,12.34-3.62-17.53-27.14-16.25-38.85l46.14,56.42-19.7-7,33.07,40.59-25.64-8.27,34.92,37.55-24.88-3.89S1375.8,505.48,1365,502.36Z"/><path class="cls-1" d="M1325,432h0"/><path class="cls-1" d="M1327.33,461.37h0"/><path class="cls-3" d="M1294.05,543.76l-.19-51.08a3.21,3.21,0,0,1,1.44-.11C1298.6,493.63,1294.11,543.15,1294.05,543.76Z"/><path class="cls-3" d="M1293.38,360.72l.48,132c-7.21,1.63-34.89,16-38,14.32-3.38-1.85,20.86-30.13,20.59-33.54s-17.55,3.1-18,3.25c.34-.55,24.34-37.8,20.49-38.55s-18.2,6.8-18.55,7c.35-.56,24.33-38.06,21.64-38.9s-14.87,4.47-15.21,4.62c.34-.47,20.79-29.42,26.48-52.95Z"/><path class="cls-2" d="M590.87,537l1.3,17.32a3.78,3.78,0,0,1-1.65-.34s.36-12.47-.26-14.27c0,0-15.6,5.59-20,7.73s8.6-13.83,8.6-13.83l-10.57,3.86,11.86-15.92-10.51,5.37,10.77-16.71-8,4.35,15.11-23.26c-2,8.28-10.49,19.16-10.63,19.34.15-.07,5.5-2.5,6.72-2.36s-8.65,14.11-8.8,14.32c.16-.08,6.43-3.38,8.17-3.33s-8.15,13.94-8.29,14.14c.18-.07,7.79-3.16,8-2s-10,12-8.45,12.45S587.67,537.91,590.87,537Z"/><path class="cls-3" d="M596.76,524.82c-.15,1.48,8.48,8.3,8.48,8.3l-10.12.33.62,3.52c.57,5.15,5.12,15.64,5.12,15.64-4.5,1.52-7.19,1.77-8.69,1.69h0L590.87,537c-3.2.93-15.28,7.24-16.71,6.83s8.65-11.31,8.45-12.45-7.8,2-8,2c.14-.2,10-14.08,8.29-14.14s-8,3.25-8.17,3.33c.15-.21,10-14.17,8.8-14.32s-6.57,2.29-6.72,2.36c.14-.18,8.64-11.06,10.63-19.34a4,4,0,0,0,.07,1c.83,4.26,8.15,11.39,8.15,11.39s-5.22.19-5.45,1.87,12.93,9.13,13.2,9.28c-.23,0-9.92-.42-9.9.83s11.35,8.83,11.63,9C605,524.59,596.9,523.37,596.76,524.82Z"/><path class="cls-4" d="M623.05,536.58c-4.9-.5-22.57,1.19-22.57,1.19.18,6.22,5.18,13,5.18,13-1.79.76-3.38,1.36-4.8,1.84,0,0-4.55-10.49-5.12-15.64l-.62-3.52,10.12-.32s-8.63-6.83-8.48-8.31,8.2-.23,8.4-.2c-.28-.19-11.61-7.77-11.63-9s9.67-.84,9.9-.83c-.27-.15-13.44-7.62-13.21-9.28s5.46-1.87,5.46-1.87-8.51-8.3-8.22-12.34L609.52,508l-9-1.36,15.81,12.05-11.71-1.47,16.57,10.93-11.26,0S628,537.08,623.05,536.58Z"/><path class="cls-1" d="M603.43,514.77h0"/><path class="cls-1" d="M605.16,524.62h0"/><path class="cls-3" d="M592.17,554.3,590.87,537a1.74,1.74,0,0,1,.65-.11C593,537.05,592.18,554.09,592.17,554.3Z"/><path class="cls-3" d="M587.53,492.23,590.87,537c-3.2.93-15.28,7.24-16.71,6.83s8.65-11.31,8.45-12.45-7.8,2-8,2c.14-.2,10-14.08,8.29-14.14s-8,3.25-8.17,3.33c.15-.21,10-14.17,8.8-14.32s-6.57,2.29-6.72,2.36c.14-.18,8.64-11.06,10.63-19.34Z"/><path class="cls-2" d="M1100.88,493.52l-3.44,10.76a1.44,1.44,0,0,1-.55-.53s3-7.49,3.14-8.7c0,0-7.26.31-9.45.73s6.44-6.68,6.44-6.68l-4.93.25,8.16-7.31-5.25,1.19,7.92-8-4.06,1.06,11.08-11.12c-2.65,4.63-8.38,9.54-8.47,9.62.07,0,2.68-.42,3.11-.1s-6.52,6.85-6.62,6.94c.08,0,3.23-.78,3.89-.4s-6.29,6.83-6.39,6.93c.08,0,3.7-.38,3.52.34s-6.56,5.3-6.06,5.88S1099.44,493.46,1100.88,493.52Z"/><path class="cls-3" d="M1105.89,487.32c-.39.86,1.38,6.7,1.38,6.7l-4-1.8-.56,2.26a77.87,77.87,0,0,0-1.59,10.48,6.94,6.94,0,0,1-3.72-.68h0l3.44-10.76c-1.44-.06-7.51,1.38-8,.85s5.88-5.15,6.06-5.88-3.44-.35-3.52-.34c.1-.1,7-6.56,6.39-6.93s-3.81.39-3.89.4c.1-.09,7.06-6.61,6.62-6.94s-3,.09-3.11.1c.09-.08,5.82-5,8.47-9.62a3.4,3.4,0,0,0-.19.59c-.65,2.75.54,8.51.54,8.51s-2-.91-2.52.06,2.9,8.08,3,8.22c-.09-.05-3.72-2.21-4-1.45s2.35,7.59,2.41,7.76C1109.09,488.79,1106.28,486.46,1105.89,487.32Z"/><path class="cls-4" d="M1113.32,499.62c-1.77-1.27-8.94-3.72-8.94-3.72a26,26,0,0,0-1,8.9c-.86.1-1.61.15-2.26.16a77.87,77.87,0,0,1,1.59-10.48l.56-2.26,4,1.8s-1.77-5.84-1.38-6.7,3.2,1.47,3.27,1.53c-.06-.17-2.69-7-2.41-7.76s3.9,1.4,4,1.45c-.07-.14-3.43-7.26-3-8.22s2.52-.06,2.52-.06-1.38-6.71-.35-9.1l4.66,14.5-3.15-2.6,3.33,10.42-4.16-3.21,3.88,9.89-4.32-2.24S1115.09,500.89,1113.32,499.62Z"/><path class="cls-1" d="M1110.74,482.54h0"/><path class="cls-1" d="M1109.16,488.85h0"/><path class="cls-3" d="M1097.44,504.28l3.44-10.76a.52.52,0,0,1,.27.07C1101.69,494,1097.5,504.15,1097.44,504.28Z"/><path class="cls-3" d="M1109.75,465.75l-8.87,27.77c-1.44-.06-7.51,1.38-8,.85s5.88-5.15,6.06-5.88-3.44-.35-3.52-.34c.1-.1,7-6.56,6.39-6.93s-3.81.39-3.89.4c.1-.09,7.06-6.61,6.62-6.94s-3,.09-3.11.1c.09-.08,5.82-5,8.47-9.62Z"/><path class="cls-2" d="M1088.2,494.76l-2.37,11a1.41,1.41,0,0,1-.6-.48s2.22-7.71,2.27-8.93c0,0-7.2.92-9.34,1.52s5.76-7.19,5.76-7.19l-4.89.66,7.41-8-5.11,1.62,7.11-8.64-3.94,1.4,9.94-12c-2.18,4.83-7.41,10.21-7.49,10.3s2.62-.65,3.09-.36-5.83,7.36-5.92,7.47c.08,0,3.14-1.06,3.83-.74s-5.59,7.34-5.68,7.45c.09,0,3.65-.7,3.55,0s-6,5.83-5.47,6.36S1086.76,494.82,1088.2,494.76Z"/><path class="cls-3" d="M1092.58,488.16c-.3.89,2,6.56,2,6.56l-4.12-1.46-.34,2.29a77.28,77.28,0,0,0-.55,10.58,7,7,0,0,1-3.77-.37h0l2.37-11c-1.44.06-7.35,2-7.85,1.51s5.36-5.62,5.47-6.36-3.46-.06-3.55,0c.09-.11,6.37-7.13,5.68-7.45s-3.75.71-3.83.74c.09-.11,6.39-7.18,5.92-7.47s-3,.34-3.09.36,5.31-5.47,7.49-10.3a3.26,3.26,0,0,0-.13.61c-.38,2.78,1.37,8.42,1.37,8.42s-2.13-.73-2.5.27,3.67,7.8,3.76,7.94c-.1,0-3.92-1.88-4.12-1.1s3.09,7.36,3.17,7.52C1095.91,489.36,1092.88,487.27,1092.58,488.16Z"/><path class="cls-4" d="M1101.18,499.78c-1.89-1.11-9.26-2.95-9.26-2.95a26,26,0,0,0-.09,8.94,21.63,21.63,0,0,1-2.23.36,77.28,77.28,0,0,1,.55-10.58l.34-2.29,4.12,1.46s-2.33-5.67-2-6.56,3.33,1.2,3.41,1.25c-.08-.16-3.37-6.74-3.17-7.52s4,1.06,4.12,1.1c-.09-.14-4.13-6.94-3.76-7.94s2.5-.27,2.5-.27-2-6.56-1.24-9l6.06,14.05-3.39-2.33,4.34,10.1-4.46-2.84,4.83,9.52-4.51-1.87S1103.07,500.9,1101.18,499.78Z"/><path class="cls-1" d="M1096.94,483h0"/><path class="cls-1" d="M1096,489.41h0"/><path class="cls-3" d="M1085.83,505.76l2.37-11a.58.58,0,0,1,.27,0C1089.05,495.16,1085.87,505.63,1085.83,505.76Z"/><path class="cls-3" d="M1094.31,466.36l-6.11,28.4c-1.44.06-7.35,2-7.85,1.51s5.36-5.62,5.47-6.36-3.46-.06-3.55,0c.09-.11,6.37-7.13,5.68-7.45s-3.75.71-3.83.74c.09-.11,6.39-7.18,5.92-7.47s-3,.34-3.09.36,5.31-5.47,7.49-10.3Z"/><path class="cls-2" d="M429.71,506.77l-17,81.75c-4-1.84-5.12-3.67-5.12-3.67s16.6-57.23,16.74-66.33c0,0-59.52,5.77-77.17,9.94s46.08-52.86,46.08-52.86l-40.42,4.22,59.65-58.3-42.06,11.31,56.95-63.42L395,379.22l79.67-88.11c-16.95,35.71-59,75.08-59.72,75.72.58-.11,21.62-4.47,25.56-2.23s-46.59,54.1-47.34,54.88c.62-.17,25.84-7.38,31.64-4.9s-44.67,54-45.41,54.71c.7-.11,30.17-4.6,29.44.87s-48.57,42.58-43.87,46.68C369.23,520.59,417.77,507,429.71,506.77Z"/><path class="cls-3" d="M464.55,458.14c-2.3,6.63,18.38,49.3,18.38,49.3l-34.54-11.53L446.13,513c-4.44,24.57-2,78.91-2,78.91-17.06,1.25-26.43-1.06-31.4-3.35h0l17-81.75c-11.94.18-60.48,13.82-64.79,10.07-4.7-4.1,43.14-41.13,43.87-46.68s-28.74-1-29.44-.87c.74-.75,51.23-52.21,45.41-54.71s-31,4.73-31.64,4.9c.75-.78,51.3-52.64,47.34-54.88s-25,2.12-25.56,2.23c.68-.64,42.77-40,59.72-75.72a22.84,22.84,0,0,0-.93,4.48c-2.46,20.75,13.4,63.14,13.4,63.14s-17.83-5.83-20.69,1.61,32.36,58.85,33.08,59.91c-.78-.34-32.94-14.71-34.41-8.91s27.37,55.44,28.06,56.66C492.5,467.61,466.82,451.58,464.55,458.14Z"/><path class="cls-4" d="M538.73,546.3c-15.94-8.63-77.6-23.53-77.6-23.53-7.06,29,1.43,66.78,1.43,66.78-7,1.2-13.1,1.94-18.47,2.34,0,0-2.4-54.35,2-78.92l2.26-17.06,34.53,11.53s-20.67-42.66-18.37-49.3,27.95,9.47,28.58,9.86c-.7-1.22-29.54-50.85-28.06-56.65s33.63,8.56,34.41,8.9c-.72-1.06-35.93-52.52-33.08-59.9s20.69-1.62,20.69-1.62-18.45-49.32-12.47-67.61L528.3,396.93,499.6,379,538,455.09,500.36,433.2l42.38,71.85L504.8,490.42S554.67,554.93,538.73,546.3Z"/><path class="cls-1" d="M499.48,420.25h0"/><path class="cls-1" d="M493.15,468h0"/><path class="cls-3" d="M412.69,588.52l17-81.75a5,5,0,0,1,2.31.32C436.87,509.9,413,587.56,412.69,588.52Z"/><path class="cls-3" d="M473.69,295.59l-44,211.18c-11.94.18-60.48,13.82-64.79,10.07-4.7-4.1,43.14-41.13,43.87-46.68s-28.74-1-29.44-.87c.74-.75,51.23-52.21,45.41-54.71s-31,4.73-31.64,4.9c.75-.78,51.3-52.64,47.34-54.88s-25,2.12-25.56,2.23c.68-.64,42.77-40,59.72-75.72Z"/><path class="cls-2" d="M213.87,485.83l5.31,88.35c-3.71-.94-5.08-2.56-5.08-2.56s.13-63-1.9-72.38c0,0-47.6,20.17-61.13,28.68s25.42-65.51,25.42-65.51l-32.26,14,35.3-74.37L147.6,423.77l31.87-79-24.33,17.85,44.73-109.87c-5.52,40.86-30.84,91.52-31.25,92.34.46-.26,16.73-9.78,20.51-8.42s-25.55,66.92-26,67.9c.47-.33,19.51-13.78,24.86-12.61s-24,66.3-24.42,67.25c.55-.27,23.73-12,24.42-6.13s-29.9,55.5-25.06,58.61C167.37,514.53,204.09,488.87,213.87,485.83Z"/><path class="cls-3" d="M231,427.37c-.33,7.39,26.76,46.43,26.76,46.43l-31.13-3.63,2.17,18.13c2.15,26.39,17,81.85,17,81.85-13.74,5.36-22,5.22-26.62,4h0l-5.31-88.35c-9.78,3-46.5,28.7-50.92,25.87-4.84-3.11,25.77-52.72,25.06-58.61s-23.87,5.86-24.42,6.13c.42-1,29.8-66.07,24.42-67.25s-24.39,12.28-24.86,12.61c.43-1,29.76-66.53,26-67.9s-20,8.16-20.51,8.42c.41-.82,25.73-51.48,31.25-92.34a29.5,29.5,0,0,0,.29,4.83c2.88,22,25.94,61.9,25.94,61.9s-16-1.75-16.64,6.61S250,379,250.82,380c-.72-.17-30.57-7.3-30.41-1s35.61,50.61,36.47,51.7C256.27,430.45,231.36,420.06,231,427.37Z"/><path class="cls-4" d="M312.88,500.54c-15.15-5.09-69.39-5.72-69.39-5.72,1,31.6,16.95,68.51,16.95,68.51a138.63,138.63,0,0,1-14.64,6.82s-14.81-55.45-17-81.85l-2.16-18.13,31.13,3.64S230.71,434.76,231,427.37s25.23,3.09,25.84,3.34c-.87-1.1-36.31-45.37-36.47-51.71s29.69.79,30.41,1c-.84-.92-42-45.57-41.37-53.86s16.65-6.6,16.65-6.6-26.84-46.45-26.23-66.74L269,349l-27.84-11.61,49.58,69.25L254.61,393.1l51.82,63.95-34.66-6S328,505.62,312.88,500.54Z"/><path class="cls-1" d="M250.82,380a0,0,0,0,0,0,0"/><path class="cls-1" d="M256.89,430.72h0"/><path class="cls-3" d="M219.18,574.18l-5.31-88.35a3.48,3.48,0,0,1,2-.22C220.5,487.34,219.2,573.13,219.18,574.18Z"/><path class="cls-3" d="M200.16,257.59l13.71,228.24c-9.78,3-46.5,28.7-50.92,25.87-4.84-3.11,25.77-52.72,25.06-58.61s-23.87,5.86-24.42,6.13c.42-1,29.8-66.07,24.42-67.25s-24.39,12.28-24.86,12.61c.43-1,29.76-66.53,26-67.9s-20,8.16-20.51,8.42c.41-.82,25.73-51.48,31.25-92.34Z"/><path class="cls-2" d="M1268.68,514.66c-15.15,0-336.21,52.32-348.74,54.37l-.21,0-.1,0h0c65.71-14.26,114.82-28.11,122.89-36.19,29.93-5.1,68-10.67,108.77-14.42h0C1189.52,515,1230.14,513.05,1268.68,514.66Z"/><path class="cls-2" d="M1357.93,496.85l-8.35,50.39a7.54,7.54,0,0,1-3.27-2.11s8.74-35.4,8.58-41c0,0-36.69,5-47.5,8s27.11-33.46,27.11-33.46l-24.91,3.59L1345,445.17l-25.74,8L1352.78,413l-19.79,6.8,47-55.85c-9.54,22.25-34.54,47.37-35,47.78.36-.09,13.27-3.27,15.77-2s-27.39,34.24-27.84,34.73c.38-.12,15.8-5.15,19.46-3.78s-26.21,34.1-26.65,34.57c.43-.08,18.56-3.56,18.25-.2s-28.93,27.24-25.91,29.63C1320.85,506.81,1350.54,497.26,1357.93,496.85Z"/><path class="cls-3" d="M1378.19,466.25c-1.25,4.11,12.7,29.67,12.7,29.67l-21.69-6.18-1,10.48c-2.09,15.13.85,48.29.85,48.29-10.52,1.19-16.39,0-19.52-1.26h0l8.35-50.39c-7.39.41-37.08,10-39.85,7.77-3-2.39,25.61-26.22,25.91-29.63s-17.82.12-18.25.2c.44-.47,30.32-33.19,26.65-34.57s-19.08,3.66-19.46,3.78c.45-.49,30.35-33.46,27.84-34.73s-15.41,1.92-15.77,2c.41-.41,25.41-25.53,35-47.78a14,14,0,0,0-.45,2.76c-1,12.75,10,38.26,10,38.26s-11.19-3.12-12.76,1.5,21.6,35.17,22.08,35.79c-.49-.19-20.79-8.16-21.54-4.58s18.43,33.2,18.89,33.93C1395.75,471.34,1379.42,462.18,1378.19,466.25Z"/><path class="cls-1" d="M1398.8,442.22h0"/><path class="cls-1" d="M1396.16,471.57h0"/><path class="cls-3" d="M1349.58,547.24l8.35-50.39a3,3,0,0,1,1.43.14C1362.44,498.58,1349.73,546.65,1349.58,547.24Z"/><path class="cls-3" d="M1379.5,366.66l-21.57,130.19c-7.39.41-37.08,10-39.85,7.77-3-2.39,25.61-26.22,25.91-29.63s-17.82.12-18.25.2c.44-.47,30.32-33.19,26.65-34.57s-19.08,3.66-19.46,3.78c.45-.49,30.35-33.46,27.84-34.73s-15.41,1.92-15.77,2c.41-.41,25.41-25.53,35-47.78Z"/><path class="cls-5" d="M953.78,550c-.42.08-.85.16-1.28.22"/><path class="cls-2" d="M786.59,504.57C677,522.5,548.41,573.14,546.41,573.93h0q-19.06-.64-37.86-1.55S705.89,504.26,786.59,504.57Z"/><path class="cls-3" d="M946.58,550.55c-23.17,1-39-5.17-39-5.17-32.4-14-106.91-38.53-106.91-38.53s-13.55,3.06-7.67,11.5c6.91,9.91,44.2,43.3,78,43.91l-.36,0q-6.23.75-12.47,1.45l-5.83.65-7.27.77q-.45.06-.9.09l-5.92.61q-3.84.39-7.69.75l-5.7.54-6.46.58-5.38.47c-3,.27-6,.52-9,.76s-6.23.5-9.36.73c-3.33.26-6.67.5-10,.73l-6.89.47-2.61.17c-1.65.11-3.3.22-5,.31q-3.57.24-7.15.44-8.7.52-17.41.95l-3.75.18-6.39.3-1.88.09-8.36.35q-8.44.34-16.86.61l-6.3.2c-2.84.08-5.67.17-8.51.24q-8.34.21-16.64.36l-5.55.09-6.94.1-7.83.09-3.32,0-8.43.05c-32.83.14-65.39-.4-97.44-1.49l-1,0h0c2-.79,130.57-51.43,240.18-69.36h0c8.06,0,15,.74,20.36,2.28,36.79,10.4,73.71,26.41,103,35.88C924.3,547.4,936.83,550.49,946.58,550.55Z"/><path class="cls-3" d="M104.5,372.67c-.74,11.08,33.79,71.73,33.79,71.73l-41.4-7.79L99,464c1.78,39.79,19.24,124.16,19.24,124.16-18.56,7-29.58,6.19-35.7,4.08v0l-3.41-133c-13.18,3.83-63.26,39.62-69,35C3.79,489.17,46.7,417,46,408.08s-32.11,7-32.85,7.38c.61-1.4,42.53-97,35.4-99.15s-33.08,16.62-33.72,17.07c.62-1.43,42.5-97.66,37.5-100s-27.1,10.74-27.72,11.1c.59-1.2,36.49-75.36,45.55-136.3a50.6,50.6,0,0,0,.19,7.28c2.93,33.22,32.05,94.88,32.05,94.88S81.06,206.51,79.91,219s51.88,82.51,53,84c-1-.3-40.49-13.23-40.54-3.71s45.42,78.65,46.53,80.36C138.05,379.2,105.23,361.73,104.5,372.67Z"/><path class="cls-4" d="M210.71,488.66c-20-8.77-92.39-13.77-92.39-13.77C118.4,522.4,138.1,579,138.1,579a171.41,171.41,0,0,1-19.83,9.14S100.81,503.79,99,464l-2.14-27.38,41.4,7.78s-34.53-60.65-33.79-71.72,33.55,6.52,34.36,6.95c-1.11-1.71-46.58-70.84-46.53-80.36s39.59,3.41,40.55,3.71c-1.09-1.44-54.11-71.56-53-84s22.48-8.67,22.48-8.67S68.51,138.61,70.16,108.19l88.3,149.71-36.68-19.52,63.3,107.69L137.39,323l66.52,99.9-46-11.63S230.72,497.42,210.71,488.66Z"/><path class="cls-1" d="M132.88,303h0"/><path class="cls-1" d="M138.88,379.64h0"/><path class="cls-3" d="M82.57,592.21l-3.41-133A4.09,4.09,0,0,1,81.8,459C87.94,461.93,82.64,590.63,82.57,592.21Z"/><path class="cls-3" d="M70.35,115.47l8.81,343.7c-13.18,3.83-63.26,39.62-69,35C3.79,489.17,46.7,417,46,408.08s-32.11,7-32.85,7.38c.61-1.4,42.53-97,35.4-99.15s-33.08,16.62-33.72,17.07c.62-1.43,42.5-97.66,37.5-100s-27.1,10.74-27.72,11.1c.59-1.2,36.49-75.36,45.55-136.3Z"/><path class="cls-4" d="M1151.27,518.47c-15.64,1.44-30.88,3.15-45.42,5-19.65,1-62.48-28.16-63.34-28.75,1.27-.09,2.5-.13,3.67-.13C1086.06,494.58,1133.61,513.22,1151.27,518.47Z"/><path class="cls-2" d="M1042.51,494.71c-18.67,5.08-62,27.61-62,27.61-40,17.75-27.26,27.26-26.77,27.62l-1.27.23c-10.35,1.58-25.09-1.77-42.57-7.44C909.93,542.73,1000.69,497.37,1042.51,494.71Z"/><path class="cls-3" d="M1105.85,523.46c-23.36,3-44.9,6.29-63.35,9.43h0l-.78.13-2.63.45-3.65.63q-6.92,1.2-13.13,2.35l-2.67.49-2.3.44-2.06.39-3.26.61-3.87.75-.17,0-1.3.25-.45.09-1.85.37-.21,0-1.22.24c-2.42.47-4.66.92-6.74,1.35l-1,.2-2.37.48-1.84.39-1.89.39-.91.19-.27.06-1,.22-.63.13-1,.22-3.66.79-.62.14-2.19.49q-12.47,2.49-25.06,4.73c-.49-.36-13.21-9.87,26.77-27.62,0,0,43.3-22.53,62-27.61C1043.37,495.3,1086.2,524.46,1105.85,523.46Z"/><line class="cls-5" x1="1151.28" y1="518.48" x2="1151.27" y2="518.48"/><path class="cls-4" d="M952.5,550.17q-40.25,7.16-81.51,12.09h0c-33.77-.61-70.93-34.09-78-43.91-6.64-9.26,8.64-12,8.64-12s73.54,25,105.94,39c0,0,15.83,6.13,39,5.17A36.08,36.08,0,0,0,952.5,550.17Z"/><path class="cls-6" d="M952.5,550.17q-3,.27-5.92.38"/><path class="cls-3" d="M1268.91,514.67,919.94,569c12.53-2,333.59-54.37,348.74-54.37Z"/><path class="cls-7" d="M546.4,573.93h0"/><path class="cls-6" d="M1042.51,494.71h0"/><path class="cls-6" d="M953.78,550h0"/><path class="cls-8" d="M1319.33,519.19l.14,0"/><path class="cls-5" d="M409.4,569.54c2.35.18,4.67.3,6.94.36L419,570c3.1,0,6.09,0,9-.12H428"/><path class="cls-2" d="M79.16,459.17c-13.18,3.83-63.26,39.62-69,35C3.79,489.17,46.7,417,46,408.08s-32.11,7-32.85,7.38c.61-1.4,42.53-97,35.4-99.15s-33.08,16.62-33.72,17.07c.62-1.43,42.5-97.66,37.5-100s-27.1,10.74-27.72,11.1c.59-1.21,36.49-75.36,45.55-136.3L5.89,269.8l33.21-25L0,344v12.38l36.8-25.54L0,410.74v23.38l30.23-12.91S12,457.1,0,485.29v28.64c23.68-12.88,76.37-34.75,76.37-34.75C78.7,493.47,75.89,588,75.89,588s1.77,2.53,6.68,4.22Z"/><path class="cls-4" d="M1041.71,533l-2.63.45-3.65.63q-6.92,1.2-13.13,2.35l-2.67.49-2.3.44-2.06.39-3.26.61-3.87.75-.17,0-1.3.25-.45.09-1.85.37-.21,0-1.22.24c-2.42.47-4.66.92-6.74,1.35l-1,.2-2.37.48-1.84.39-1.89.39-.91.19-.27.06-1,.22-.63.13-1,.22-3.66.79-.62.14-2.19.49q-12.47,2.49-25.06,4.73l-1.27.23q-40.26,7.16-81.53,12.09l-.36,0q-6.23.76-12.47,1.45l-5.83.65-7.27.77q-.45.06-.9.09l-5.92.61q-3.84.39-7.69.75l-5.7.54-6.46.58-5.38.47c-3,.27-6,.52-9,.76s-6.23.5-9.36.73c-3.33.26-6.67.5-10,.73l-6.89.47-2.61.17c-1.65.11-3.3.22-5,.31q-3.57.24-7.15.44-8.72.52-17.41.95l-3.75.18-6.39.3-1.88.09-8.36.35q-8.44.34-16.86.61l-6.3.2c-2.84.08-5.67.17-8.51.24q-8.34.21-16.64.36l-5.55.09-6.94.1-7.83.09-3.32,0-8.43.05c-32.83.14-65.39-.4-97.44-1.49l-1,0h0q-19.06-.64-37.86-1.55C242.74,559.66,21.22,511.9,0,507.22V618.44c68-3.43,430.7-20.71,516.82-2.65,95.12,19.94,501-58.23,525.67-82.89h0Z"/><path class="cls-4" d="M1377.8,505.84s24.46,4.8,39.52,9.22V501.29C1410.86,493,1404,485,1404,485l13.35,4.47V476.94l-17.63-26.83,17.63,9.17v-7.79L1397.77,417,1416,427.24,1380,363.9c-3.21,11.33,9.53,41,9.53,41s-11.19-3.12-12.77,1.51,21.62,35.16,22.09,35.79c-.49-.19-20.78-8.17-21.54-4.59s18.42,33.2,18.89,33.93c-.4-.22-16.73-9.37-18-5.31s12.7,29.68,12.7,29.68l-21.69-6.19-1,10.49c-2.09,15.13.85,48.28.85,48.28,3.32-.37,7.09-1,11.37-1.88C1380.47,546.63,1374.21,523.75,1377.8,505.84Z"/><path class="cls-4" d="M1417.32,536.94c-13.76-7.22-94-17.26-97.85-17.73,39.75,5.78,74.42,17,97.85,36.25Z"/><path class="cls-3" d="M1417.32,555.46c-23.43-19.26-58.1-30.47-97.85-36.25l-.14,0a498,498,0,0,0-50.42-4.52h-.23c-15.15,0-336.21,52.32-348.74,54.37l-.21,0-.1,0h-.08c-134.59,29.19-338.81,60.1-402.73,46.7C425.16,596.57,28.82,579.73,0,578.53v66.84H1417.32Z"/><polygon class="cls-2" points="172.67 438.51 169.77 592.43 141.3 579.18 144.03 434.41 172.67 438.51"/><polygon class="cls-2" points="170.71 417.57 144.33 418.24 144.42 413.81 170.71 417.57"/><polygon class="cls-2" points="172.61 441.76 170.16 571.83 141.69 558.57 143.88 442.49 172.61 441.76"/><polygon class="cls-4" points="242.96 439.11 240.17 587.43 169.77 592.43 172.67 438.51 242.96 439.11"/><polygon class="cls-2" points="383.78 428.2 380.97 577.31 352.5 564.05 355.14 424.11 383.78 428.2"/><polygon class="cls-4" points="454.08 428.8 451.37 572.3 380.97 577.3 383.78 428.19 454.08 428.8"/><polygon class="cls-3" points="381.43 553.06 380.97 577.3 240.17 587.43 240.63 563.17 381.43 553.06"/><polygon class="cls-3" points="384.08 412.23 383.63 436.48 335.53 437.71 242.94 440.07 243.4 415.82 384.08 412.23"/><polygon class="cls-3" points="453.96 434.69 383.63 436.48 384.08 412.22 453.7 410.45 453.96 434.69"/><polygon class="cls-2" points="173.06 417.9 172.61 441.76 143.88 442.49 144.33 418.24 170.71 417.57 173.06 417.9"/><polygon class="cls-3" points="243.4 415.71 242.95 439.96 194.85 441.19 172.61 441.76 173.06 417.9 170.71 417.57 243.4 415.71"/><polygon class="cls-4" points="355.49 554.92 240.63 563.17 240.75 556.37 330.44 548.91 355.49 554.92"/><polygon class="cls-3" points="381.43 553.06 355.49 554.92 330.44 548.91 240.75 556.37 240.82 552.85 333.5 545.62 381.43 553.06"/><polygon class="cls-2" points="383.63 436.48 381.43 553.06 333.5 545.62 335.53 437.71 383.63 436.48"/><polygon class="cls-3" points="335.53 437.71 333.5 545.62 240.82 552.85 242.94 440.07 335.53 437.71"/><line class="cls-5" x1="335.53" y1="437.71" x2="335.53" y2="437.7"/><circle class="cls-3" cx="207.1" cy="476.48" r="24.16"/><circle class="cls-3" cx="205.69" cy="545.19" r="24.16"/><ellipse class="cls-3" cx="418.27" cy="466.65" rx="23.27" ry="23.05" transform="translate(-56.18 876.05) rotate(-88.92)"/><ellipse class="cls-3" cx="416.91" cy="532.82" rx="23.27" ry="23.05" transform="translate(-123.67 939.62) rotate(-88.92)"/><polygon class="cls-2" points="453.7 410.45 384.08 412.22 384.08 412.23 243.4 415.82 243.4 415.71 170.71 417.57 144.42 413.81 408.02 408.09 453.7 410.45"/></svg>