<svg id="Layer_3" data-name="Layer 3" xmlns="http://www.w3.org/2000/svg" viewBox="0 0 1417.32 645.37"><defs><style>.cls-1,.cls-5,.cls-6,.cls-7,.cls-8{fill:none;}.cls-1{stroke:#1d1d1b;stroke-linejoin:round;}.cls-2{fill:#263674;}.cls-3{fill:#07488e;}.cls-4{fill:#0468a9;}.cls-5{stroke:#07488e;}.cls-5,.cls-6,.cls-8{stroke-miterlimit:10;}.cls-6{stroke:#0468a9;}.cls-8{stroke:#263674;}</style></defs><title>praktisk_edit</title><path class="cls-1" d="M93.9,180.71v0"/><path class="cls-2" d="M1293.6,494.11l.19,51a7.49,7.49,0,0,1-3.58-1.53s2.71-36.3,1.62-41.75c0,0-35.28,11.05-45.43,15.8s21.11-37.47,21.11-37.47l-23.92,7.7,28.62-42.45-24,12.13,26.33-45.16-18.34,10,36.91-62.81c-5.68,23.5-26.1,52.4-26.43,52.87.34-.15,12.52-5.44,15.19-4.61s-21.26,38.27-21.61,38.83c.35-.18,14.69-7.71,18.52-7s-20.11,37.94-20.46,38.48c.41-.15,17.67-6.61,17.93-3.24s-23.94,31.64-20.56,33.48C1258.76,510.1,1286.39,495.75,1293.6,494.11Z"/><path class="cls-3" d="M1308.44,460.61c-.54,4.26,17.45,27.1,17.45,27.1l-22.38-2.47.82,10.48c.46,15.24,8.89,47.39,8.89,47.39-10.16,2.92-16.14,2.74-19.43,2h0l-.19-51c-7.21,1.64-34.84,16-37.92,14.3-3.38-1.84,20.82-30.08,20.56-33.48s-17.52,3.09-17.93,3.24c.35-.54,24.3-37.73,20.46-38.48s-18.17,6.79-18.52,7c.35-.56,24.29-38,21.61-38.83s-14.85,4.46-15.19,4.61c.33-.47,20.75-29.37,26.43-52.87a14.47,14.47,0,0,0,0,2.79c1.18,12.71,16.22,36,16.22,36s-11.54-1.2-12.32,3.61,27.14,31,27.71,31.55c-.52-.11-21.82-4.57-22-.92s23.68,29.61,24.26,30.25C1326.58,462.7,1309,456.41,1308.44,460.61Z"/><path class="cls-4" d="M1364.65,503.78c-10.75-3.11-50-4.13-50-4.13-.55,18.23,9.44,39.7,9.44,39.7-4.07,1.61-7.68,2.84-10.88,3.76,0,0-8.42-32.15-8.89-47.39l-.82-10.48,22.38,2.47s-18-22.84-17.45-27.09,18.14,2.08,18.57,2.23c-.58-.64-24.41-26.59-24.26-30.25s21.45.82,22,.92c-.57-.54-28.48-26.78-27.71-31.55s12.32-3.6,12.32-3.6-17.5-27.11-16.23-38.79l46.07,56.33-19.67-7,33,40.52-25.6-8.26,34.86,37.49L1337,474.75S1375.41,506.89,1364.65,503.78Z"/><path class="cls-1" d="M1324.72,433.52h0"/><path class="cls-1" d="M1327,462.85h0"/><path class="cls-3" d="M1293.79,545.11l-.19-51a3.16,3.16,0,0,1,1.44-.1C1298.33,495.06,1293.84,544.51,1293.79,545.11Z"/><path class="cls-3" d="M1293.11,362.36l.49,131.75c-7.21,1.64-34.84,16-37.92,14.3-3.38-1.84,20.82-30.08,20.56-33.48s-17.52,3.09-17.93,3.24c.35-.54,24.3-37.73,20.46-38.48s-18.17,6.79-18.52,7c.35-.56,24.29-38,21.61-38.83s-14.85,4.46-15.19,4.61c.33-.47,20.75-29.37,26.43-52.87Z"/><path class="cls-2" d="M591.74,538.34l1.29,17.3a3.69,3.69,0,0,1-1.64-.34s.35-12.45-.26-14.25c0,0-15.58,5.58-20,7.72S579.69,535,579.69,535l-10.56,3.85L581,522.93l-10.49,5.36,10.75-16.69-8,4.34,15.09-23.22c-2,8.27-10.48,19.13-10.62,19.31.15-.07,5.49-2.5,6.71-2.35s-8.63,14.08-8.78,14.29c.16-.08,6.41-3.38,8.15-3.32s-8.13,13.91-8.28,14.11c.18-.07,7.78-3.15,8-2s-10,12-8.44,12.43S588.54,539.27,591.74,538.34Z"/><path class="cls-3" d="M597.61,526.21c-.14,1.47,8.47,8.29,8.47,8.29l-10.1.32.61,3.51c.57,5.15,5.12,15.62,5.12,15.62-4.5,1.52-7.18,1.77-8.68,1.69h0l-1.29-17.3c-3.2.93-15.27,7.23-16.69,6.82s8.64-11.29,8.44-12.43-7.8,2-8,2c.15-.2,10-14.06,8.28-14.11s-8,3.24-8.15,3.32c.15-.21,10-14.15,8.78-14.29s-6.56,2.28-6.71,2.35c.14-.18,8.63-11,10.62-19.31a4,4,0,0,0,.07.95c.83,4.25,8.13,11.37,8.13,11.37s-5.21.19-5.44,1.86S604,516,604.27,516.17c-.23,0-9.9-.42-9.88.83s11.33,8.82,11.61,9C605.8,526,597.75,524.75,597.61,526.21Z"/><path class="cls-4" d="M623.86,537.94c-4.9-.5-22.54,1.19-22.54,1.19.19,6.21,5.18,13,5.18,13-1.79.76-3.38,1.36-4.79,1.84,0,0-4.55-10.47-5.12-15.62l-.61-3.51,10.1-.32s-8.61-6.82-8.47-8.29,8.19-.23,8.39-.2c-.28-.19-11.59-7.76-11.61-9s9.65-.84,9.88-.83c-.26-.15-13.42-7.61-13.18-9.27s5.44-1.86,5.44-1.86-8.5-8.29-8.2-12.32l22,16.73-9-1.37,15.78,12-11.69-1.48L622,529.56l-11.24,0S628.77,538.44,623.86,537.94Z"/><path class="cls-1" d="M604.27,516.17h0"/><path class="cls-1" d="M606,526h0"/><path class="cls-3" d="M593,555.64l-1.29-17.3a2.2,2.2,0,0,1,.64-.11C593.88,538.42,593,555.43,593,555.64Z"/><path class="cls-3" d="M588.4,493.67l3.34,44.67c-3.2.93-15.27,7.23-16.69,6.82s8.64-11.29,8.44-12.43-7.8,2-8,2c.15-.2,10-14.06,8.28-14.11s-8,3.24-8.15,3.32c.15-.21,10-14.15,8.78-14.29s-6.56,2.28-6.71,2.35c.14-.18,8.63-11,10.62-19.31Z"/><path class="cls-2" d="M1100.92,495l-3.43,10.73a1.38,1.38,0,0,1-.55-.52s3-7.48,3.13-8.69c0,0-7.24.31-9.43.73s6.43-6.67,6.43-6.67l-4.93.25,8.15-7.29-5.24,1.18,7.91-8-4,1.05L1110,466.65c-2.64,4.61-8.36,9.52-8.46,9.6.08,0,2.68-.43,3.11-.1s-6.51,6.83-6.61,6.93c.08,0,3.22-.78,3.88-.41s-6.28,6.83-6.38,6.92c.09,0,3.7-.38,3.52.35s-6.55,5.28-6.06,5.86S1099.49,494.89,1100.92,495Z"/><path class="cls-3" d="M1105.93,488.76c-.39.87,1.37,6.7,1.37,6.7l-4-1.8-.56,2.25a77.24,77.24,0,0,0-1.58,10.47,6.82,6.82,0,0,1-3.72-.69h0l3.43-10.73c-1.43-.07-7.49,1.37-8,.84s5.88-5.13,6.06-5.86-3.43-.36-3.52-.35c.1-.09,7-6.54,6.38-6.92s-3.8.39-3.88.41c.1-.1,7-6.6,6.61-6.93s-3,.09-3.11.1c.1-.08,5.82-5,8.46-9.6a3,3,0,0,0-.19.58c-.65,2.74.54,8.5.54,8.5s-2-.92-2.51,0,2.89,8.07,3,8.22c-.08-.05-3.7-2.21-4-1.45s2.35,7.58,2.41,7.74C1109.12,490.24,1106.31,487.91,1105.93,488.76Z"/><path class="cls-4" d="M1113.34,501.05c-1.77-1.27-8.92-3.72-8.92-3.72a25.88,25.88,0,0,0-1,8.88,20,20,0,0,1-2.25.17,77.24,77.24,0,0,1,1.58-10.47l.56-2.25,4,1.8s-1.76-5.83-1.37-6.7,3.19,1.48,3.26,1.53c-.06-.16-2.68-7-2.41-7.74s3.9,1.4,4,1.45c-.06-.15-3.42-7.26-3-8.22s2.51,0,2.51,0-1.38-6.7-.35-9.08l4.65,14.47-3.14-2.6,3.32,10.4-4.15-3.2,3.87,9.88-4.31-2.24S1115.11,502.32,1113.34,501.05Z"/><path class="cls-1" d="M1110.76,484h0"/><path class="cls-1" d="M1109.19,490.3h0"/><path class="cls-3" d="M1097.49,505.69l3.43-10.73a.59.59,0,0,1,.27.06C1101.73,495.43,1097.55,505.57,1097.49,505.69Z"/><path class="cls-3" d="M1109.78,467.23,1100.92,495c-1.43-.07-7.49,1.37-8,.84s5.88-5.13,6.06-5.86-3.43-.36-3.52-.35c.1-.09,7-6.54,6.38-6.92s-3.8.39-3.88.41c.1-.1,7-6.6,6.61-6.93s-3,.09-3.11.1c.1-.08,5.82-5,8.46-9.6Z"/><path class="cls-2" d="M1088.26,496.2l-2.36,11a1.36,1.36,0,0,1-.6-.47s2.21-7.7,2.26-8.92c0,0-7.18.92-9.32,1.52s5.75-7.18,5.75-7.18l-4.88.66,7.4-7.95-5.1,1.62,7.09-8.62-3.93,1.39,9.92-12c-2.18,4.82-7.39,10.2-7.48,10.28.08,0,2.62-.65,3.09-.36s-5.81,7.35-5.91,7.46c.08,0,3.14-1.05,3.83-.73s-5.58,7.33-5.67,7.43c.08,0,3.64-.69,3.53,0s-6,5.82-5.45,6.36S1086.82,496.25,1088.26,496.2Z"/><path class="cls-3" d="M1092.64,489.6c-.3.9,2,6.55,2,6.55l-4.11-1.45-.34,2.28a77.15,77.15,0,0,0-.55,10.57,7.1,7.1,0,0,1-3.76-.37h0l2.36-11c-1.44.05-7.33,2-7.83,1.51s5.34-5.62,5.45-6.36-3.45-.06-3.53,0c.09-.1,6.36-7.11,5.67-7.43s-3.75.71-3.83.73c.1-.11,6.38-7.17,5.91-7.46s-3,.35-3.09.36c.09-.08,5.3-5.46,7.48-10.28a3.33,3.33,0,0,0-.13.6c-.37,2.79,1.37,8.42,1.37,8.42s-2.12-.74-2.49.27,3.66,7.79,3.75,7.93c-.1-.05-3.91-1.89-4.11-1.11s3.08,7.35,3.16,7.51C1096,490.8,1092.94,488.72,1092.64,489.6Z"/><path class="cls-4" d="M1101.22,501.21c-1.88-1.11-9.24-2.95-9.24-2.95a26,26,0,0,0-.09,8.93,21.63,21.63,0,0,1-2.23.36,77.15,77.15,0,0,1,.55-10.57l.34-2.28,4.11,1.45s-2.32-5.65-2-6.55,3.33,1.2,3.4,1.25c-.08-.16-3.36-6.73-3.16-7.51s4,1.06,4.11,1.11c-.09-.14-4.12-6.94-3.75-7.93s2.49-.27,2.49-.27-2-6.55-1.24-9l6,14-3.38-2.32,4.33,10.08-4.45-2.83,4.83,9.5-4.51-1.86S1103.11,502.32,1101.22,501.21Z"/><path class="cls-1" d="M1097,484.45h0"/><path class="cls-1" d="M1096,490.85h0"/><path class="cls-3" d="M1085.9,507.17l2.36-11a.54.54,0,0,1,.28,0C1089.11,496.6,1085.94,507.05,1085.9,507.17Z"/><path class="cls-3" d="M1094.36,467.83l-6.1,28.37c-1.44.05-7.33,2-7.83,1.51s5.34-5.62,5.45-6.36-3.45-.06-3.53,0c.09-.1,6.36-7.11,5.67-7.43s-3.75.71-3.83.73c.1-.11,6.38-7.17,5.91-7.46s-3,.35-3.09.36c.09-.08,5.3-5.46,7.48-10.28Z"/><path class="cls-2" d="M134.22,473.38l-6.8,104.45c-4.51-1.63-6-3.73-6-3.73s9.77-73.88,8.65-85.22c0,0-62.83,16.87-81.13,24.93s41.91-73.25,41.91-73.25L48.22,452.4l55.66-82.24-43.4,20.92,52.06-88.15L79.27,320.4l72.91-122.56C139,245,99.51,300.84,98.87,301.75c.61-.24,22.5-9.08,27-6.95s-42.28,74.89-43,76c.64-.32,26.6-13.39,33.14-11.25S75.83,433.91,75.15,435c.73-.24,31.61-10.64,31.6-3.71s-46,60.87-40.4,65.2C71.47,500.43,121.48,475.55,134.22,473.38Z"/><path class="cls-3" d="M164.69,407.22c-1.53,8.63,26.52,58.32,26.52,58.32l-38.53-8.71,0,21.59c-1.32,31.28,8.82,98.48,8.82,98.48-18.07,4.33-28.42,3-34,.94h0l6.8-104.45c-12.74,2.17-62.75,27.05-67.87,23.08-5.6-4.33,40.39-58.18,40.4-65.2s-30.87,3.47-31.6,3.71c.68-1.06,47.5-73.28,40.92-75.44s-32.5,10.93-33.14,11.25c.69-1.09,47.52-73.83,43-76s-26.42,6.71-27,6.95c.64-.91,40.16-56.74,53.31-103.91a34,34,0,0,0-.37,5.72c.27,26.21,23.13,76.35,23.13,76.35s-19.87-4.35-21.9,5.38,42.8,67.92,43.72,69.11c-.88-.29-37.27-12.92-38-5.46s37,64.48,37.9,65.89C195.9,414.45,166.21,398.69,164.69,407.22Z"/><path class="cls-4" d="M256.3,504.79C238.05,496.66,170,488.17,170,488.17,166.54,525.4,180.88,571,180.88,571a186.11,186.11,0,0,1-19.42,5.9s-10.14-67.19-8.82-98.48l0-21.58,38.53,8.71s-28.05-49.7-26.52-58.33,31.21,7.23,31.94,7.61c-.92-1.4-38.67-58.43-37.9-65.89s37.15,5.17,38,5.47c-.92-1.2-45.73-59.48-43.72-69.12s21.9-5.37,21.9-5.37-26.61-58.35-22.76-82.07l72.15,122.86L191.14,303.1l51.69,88.36-43.32-21.09,55.32,82.46-42.6-12S274.55,512.92,256.3,504.79Z"/><path class="cls-1" d="M196.76,354.41h0"/><path class="cls-1" d="M196.65,414.84h0"/><path class="cls-3" d="M127.42,577.83l6.8-104.45a4.61,4.61,0,0,1,2.52,0C142.31,476.1,127.6,576.6,127.42,577.83Z"/><path class="cls-3" d="M151.81,203.56,134.22,473.38c-12.74,2.17-62.75,27.05-67.87,23.08-5.6-4.33,40.39-58.18,40.4-65.2s-30.87,3.47-31.6,3.71c.68-1.06,47.5-73.28,40.92-75.44s-32.5,10.93-33.14,11.25c.69-1.09,47.52-73.83,43-76s-26.42,6.71-27,6.95c.64-.91,40.16-56.74,53.31-103.91Z"/><path class="cls-2" d="M1268.46,516.06c-15.13,0-335.68,52.24-348.19,54.28l-.2,0-.1,0h0c65.6-14.23,114.63-28.06,122.69-36.13,29.88-5.09,67.88-10.65,108.59-14.39h0C1189.42,516.36,1230,514.45,1268.46,516.06Z"/><path class="cls-2" d="M1357.56,498.28l-8.34,50.31a7.54,7.54,0,0,1-3.26-2.11s8.73-35.34,8.57-40.89c0,0-36.63,5-47.43,8s27.07-33.41,27.07-33.41l-24.87,3.59,35.31-37.07-25.7,7.95,33.51-40.12-19.76,6.79,46.89-55.75c-9.53,22.21-34.49,47.29-34.89,47.7.36-.09,13.24-3.27,15.74-2s-27.35,34.19-27.79,34.68c.38-.12,15.77-5.15,19.42-3.78s-26.17,34-26.6,34.52c.43-.08,18.52-3.56,18.22-.2s-28.89,27.2-25.87,29.58C1320.54,508.22,1350.18,498.69,1357.56,498.28Z"/><path class="cls-3" d="M1377.79,467.73c-1.24,4.1,12.68,29.63,12.68,29.63l-21.66-6.18-.94,10.47c-2.09,15.11.85,48.21.85,48.21-10.51,1.18-16.37,0-19.5-1.26h0l8.34-50.31c-7.38.41-37,9.94-39.78,7.76-3-2.38,25.56-26.18,25.87-29.58s-17.79.12-18.22.2c.43-.48,30.26-33.14,26.6-34.52s-19,3.66-19.42,3.78c.44-.49,30.3-33.41,27.79-34.68s-15.38,1.92-15.74,2c.4-.41,25.36-25.49,34.89-47.7a13.73,13.73,0,0,0-.45,2.75c-1,12.73,10,38.2,10,38.2s-11.18-3.12-12.75,1.5,21.57,35.11,22,35.73c-.48-.19-20.75-8.15-21.5-4.57s18.4,33.14,18.86,33.87C1395.32,472.81,1379,463.67,1377.79,467.73Z"/><path class="cls-1" d="M1398.37,443.73h0"/><path class="cls-1" d="M1395.73,473h0"/><path class="cls-3" d="M1349.22,548.59l8.34-50.31a3,3,0,0,1,1.43.14C1362.07,500,1349.38,548,1349.22,548.59Z"/><path class="cls-3" d="M1379.1,368.3l-21.54,130c-7.38.41-37,9.94-39.78,7.76-3-2.38,25.56-26.18,25.87-29.58s-17.79.12-18.22.2c.43-.48,30.26-33.14,26.6-34.52s-19,3.66-19.42,3.78c.44-.49,30.3-33.41,27.79-34.68s-15.38,1.92-15.74,2c.4-.41,25.36-25.49,34.89-47.7Z"/><path class="cls-5" d="M954.06,551.29c-.42.08-.85.16-1.28.22"/><path class="cls-2" d="M787.14,506c-109.44,17.9-237.8,68.46-239.8,69.25h0q-19-.65-37.8-1.55S706.57,505.68,787.14,506Z"/><path class="cls-3" d="M946.87,551.89c-23.13,1-38.94-5.16-38.94-5.16-32.34-14-106.73-38.47-106.73-38.47s-13.53,3.06-7.66,11.49c6.9,9.89,44.13,43.23,77.84,43.83l-.36,0q-6.21.75-12.45,1.45l-5.82.65-7.26.77c-.29,0-.59.07-.89.09l-5.91.61-7.68.75-5.69.54-6.45.58-5.37.47-9,.75q-4.66.39-9.34.73-5,.39-10,.73l-6.88.47-2.6.17c-1.65.11-3.3.22-4.95.31q-3.56.24-7.13.44-8.69.52-17.39,1c-1.25.07-2.49.13-3.74.18-2.13.11-4.25.21-6.38.3l-1.88.09-8.34.35q-8.43.35-16.84.61l-6.29.2-8.49.23q-8.33.21-16.62.36c-1.84,0-3.69.07-5.54.09l-6.93.1-7.81.09-3.32,0-8.41,0c-32.78.14-65.29-.4-97.29-1.48l-1,0h0c2-.79,130.36-51.35,239.8-69.25h0c8.05,0,14.93.74,20.33,2.27,36.73,10.39,73.59,26.37,102.79,35.83C924.63,548.75,937.14,551.83,946.87,551.89Z"/><path class="cls-4" d="M181.74,483.45c-20-8.75-92.24-13.75-92.24-13.75.08,47.44,19.74,104,19.74,104a171.6,171.6,0,0,1-19.79,9.12S72,498.56,70.24,458.84L68.1,431.5l41.34,7.77S75,378.72,75.7,367.66s33.5,6.51,34.3,6.94c-1.11-1.71-46.5-70.72-46.45-80.23s39.53,3.4,40.48,3.7c-1.08-1.43-54-71.44-52.88-83.82s22.45-8.66,22.45-8.66S39.77,134,41.41,103.6l88.17,149.47L93,233.58l63.2,107.51-47.61-23L175,417.79,129,406.18S201.72,492.2,181.74,483.45Z"/><path class="cls-1" d="M104,298.07s0,0,0,0"/><path class="cls-1" d="M110,374.61h0"/><path class="cls-3" d="M53.8,586.85,50.4,454a4.16,4.16,0,0,1,2.64-.18C59.16,456.77,53.87,585.26,53.8,586.85Z"/><path class="cls-4" d="M1042.64,534.26h0C1018,558.89,612.77,636.94,517.8,617S.14,579.76.14,579.76v-71.5s230.24,52.07,509.39,65.43q18.76.9,37.8,1.55h0l1,0c32,1.08,64.51,1.62,97.29,1.48l8.41,0,3.32,0,7.81-.09,6.93-.1,5.54-.09q8.29-.15,16.62-.36l8.49-.23,6.29-.2q8.41-.27,16.84-.61l8.34-.35,1.88-.09c2.13-.09,4.25-.19,6.38-.3,1.25,0,2.49-.11,3.74-.18q8.7-.44,17.39-1,3.57-.2,7.13-.44c1.65-.09,3.3-.2,4.95-.31l2.6-.17,6.88-.47q5-.35,10-.73,4.68-.35,9.34-.73l9-.75,5.37-.47,6.45-.58,5.69-.54,7.68-.75,5.91-.61c.3,0,.6-.05.89-.09l7.26-.77,5.82-.65q6.24-.69,12.45-1.45l.36,0q41.14-5,81.4-12.07l1.27-.23q12.57-2.24,25-4.72l2.19-.49.62-.14,3.65-.79,1-.22.63-.13,1-.21.27-.06.9-.19,1.89-.39,1.84-.39,2.36-.48,1-.2q3.12-.64,6.73-1.35l1.22-.24.21,0,1.85-.37.45-.09,1.29-.25.17,0,3.87-.75,3.25-.61,2.06-.39,2.3-.43,2.66-.49c4.13-.76,8.51-1.55,13.11-2.35l3.64-.63,2.63-.45Z"/><path class="cls-4" d="M1151.23,519.87c-15.61,1.43-30.83,3.14-45.34,5-19.62,1-62.38-28.12-63.24-28.71,1.27-.09,2.49-.13,3.66-.13C1086.13,496,1133.6,514.62,1151.23,519.87Z"/><path class="cls-2" d="M1042.65,496.14c-18.64,5.07-61.87,27.57-61.87,27.57-39.92,17.72-27.22,27.22-26.73,27.57l-1.27.23c-10.33,1.58-25-1.76-42.5-7.42C910.28,544.09,1000.9,498.8,1042.65,496.14Z"/><path class="cls-3" d="M1105.89,524.85c-23.33,3-44.83,6.28-63.25,9.41h0l-.78.13-2.63.45-3.64.63c-4.6.8-9,1.59-13.11,2.35l-2.66.49-2.3.43-2.06.39-3.25.61-3.87.75-.17,0-1.29.25-.45.09-1.85.37-.21,0-1.22.24q-3.61.71-6.73,1.35l-1,.2-2.36.48-1.84.39-1.89.39-.9.19-.27.06-1,.21-.63.13-1,.22-3.65.79-.62.14-2.19.49q-12.45,2.49-25,4.72c-.49-.35-13.19-9.85,26.73-27.57,0,0,43.23-22.5,61.87-27.57C1043.51,496.73,1086.27,525.85,1105.89,524.85Z"/><path class="cls-4" d="M1377.4,507.26s25.06,4.92,40,9.37v-13.2c-6.61-8.47-13.9-17-13.9-17l13.88,4.65V479.22l-18.14-27.61,18.11,9.43v-7.16l-20-35.31,18.22,10.21-36-63.23c-3.21,11.31,9.51,40.95,9.51,40.95s-11.17-3.11-12.74,1.5,21.57,35.11,22,35.73c-.49-.18-20.75-8.15-21.51-4.57s18.39,33.15,18.86,33.87c-.4-.22-16.7-9.36-17.93-5.3s12.68,29.63,12.68,29.63l-21.66-6.18-.94,10.47c-2.09,15.11.85,48.21.85,48.21,3.3-.37,7.07-1,11.35-1.88C1380.07,548,1373.81,525.14,1377.4,507.26Z"/><line class="cls-5" x1="1151.24" y1="519.87" x2="1151.23" y2="519.87"/><path class="cls-4" d="M952.78,551.51c-26.78,4.77-54,8.77-81.38,12.07h0c-33.71-.6-70.81-34-77.84-43.83-6.63-9.25,8.62-11.93,8.62-11.93s73.43,24.95,105.77,38.91c0,0,15.81,6.12,38.94,5.16A35.88,35.88,0,0,0,952.78,551.51Z"/><path class="cls-6" d="M952.78,551.51q-3,.27-5.91.38"/><path class="cls-3" d="M1268.69,516.07,920.27,570.34c12.51-2,333.06-54.28,348.19-54.28Z"/><path class="cls-7" d="M547.33,575.24h0"/><path class="cls-6" d="M1042.65,496.14h0"/><path class="cls-6" d="M954.06,551.29h0"/><path class="cls-4" d="M1417.46,538.64v18.64c-23.4-19.53-58.27-30.86-98.3-36.68C1323,521.08,1405.66,531.41,1417.46,538.64Z"/><path class="cls-8" d="M1319,520.58l.14,0"/><path class="cls-4" d="M486.31,567.1h0a151.44,151.44,0,0,1-35.88,5.6h-.07l-9.58,0h-2l-10.79.07.21-.58c.38-1,.74-2,1.1-3.06s.72-2,1.06-3c1-3,2-6,2.91-8.87q2.72-8.71,4.69-16.79c.23-.9.44-1.8.65-2.68.26-1.11.51-2.21.75-3.29.32-1.45.62-2.88.91-4.29,1-5.22,1.88-10.23,2.52-15,.16-1.27.32-2.52.45-3.76.39-3.36.67-6.62.86-9.77,0-.48.06-1,.08-1.43s.05-.88.06-1.32c.06-1.15.1-2.29.13-3.41,1.41-54-23.63-76.23-24-76.57v0l77,11.31C519.31,514.07,497.09,553.75,486.31,567.1Z"/><path class="cls-4" d="M428,572.84l-15.84.1c32.16-79.77,8.68-152.47,8.19-154C420.85,419.43,468.74,461.89,428,572.84Z"/><path class="cls-3" d="M291.72,553.06c-.65,12.08-7,22-15,24.74a13.84,13.84,0,0,1-5.31.77c-10.45-.56-18.29-12.88-17.51-27.52s9.88-26.07,20.33-25.52S292.49,538.41,291.72,553.06Z"/><path class="cls-2" d="M225.27,547.68s-35.64-93.4,26.66-135.09c.26-.18,2.92-.21,7.43-.15C258.77,412.79,213.24,439.34,225.27,547.68Z"/><path class="cls-3" d="M412.11,572.94l-43.25-5.85-9.09-1.22-30-4.06-29.12-3.94-7.41-1a37.08,37.08,0,0,0,.37-3.7c.86-16.1-7.76-29.64-19.24-30.25S252.86,534.85,252,551c0,.11,0,.23,0,.34l-26.72-3.61c-12-108.34,33.5-134.89,34.09-135.24h0c32.59.48,160.92,6.49,160.92,6.49v0C420.79,420.47,444.27,493.17,412.11,572.94Z"/><path class="cls-5" d="M300.68,557.56l-.06.31"/><path class="cls-2" d="M348.84,564.28a19.65,19.65,0,0,1-9.61,7.83l-5.31.77c-6.57-.35-12.1-5.35-15.12-12.65Z"/><path class="cls-2" d="M357.93,565.51c-2.81,3.81-5.53,4.7-5.53,4.7l-13.17,1.9a19.65,19.65,0,0,0,9.61-7.83Z"/><polygon class="cls-3" points="511.94 580.35 511.67 585.39 398.5 571.1 428.16 572.26 440.74 572.76 440.77 572.76 511.94 580.35"/><polygon class="cls-4" points="517.41 580.16 511.94 580.35 441.4 572.83 440.77 572.76 450.35 572.71 450.42 572.71 451.62 572.7 517.41 580.16"/><polygon class="cls-4" points="517.41 580.16 517.15 584.99 511.67 585.39 511.94 580.35 517.41 580.16"/><path class="cls-2" d="M300.62,557.87c-2.79,15.43-10.76,18-10.76,18l-13.17,1.9c8.07-2.76,14.38-12.66,15-24.74.77-14.65-7.06-27-17.52-27.53s-19.55,10.87-20.33,25.52l-1.88.24c0-.11,0-.23,0-.34.86-16.1,10.86-28.64,22.34-28s20.1,14.15,19.24,30.25a37.08,37.08,0,0,1-.37,3.7Z"/><path class="cls-4" d="M365.7,500.46v.22l-55.14-4.52,1.93-45.36,7.79.51-1.92,45.26Z"/><path class="cls-2" d="M368.14,454.54l-2.44,45.92-47.35-3.89,1.92-45.26C336.73,452.39,353.52,453.53,368.14,454.54Z"/><line class="cls-5" x1="377.93" y1="489.65" x2="377.95" y2="489.29"/><path class="cls-6" d="M259.37,412.45h0"/><polygon class="cls-4" points="365.69 500.68 365.6 502.38 319.84 498.62 325.02 497.35 365.69 500.68"/><polygon class="cls-4" points="325.02 497.35 319.84 498.62 310.46 497.86 310.55 496.16 325.02 497.35"/><path class="cls-2" d="M465,565.55a36.69,36.69,0,0,1-5.13,5.41l-29.55.18h-1.2A151.44,151.44,0,0,0,465,565.55Z"/><path class="cls-5" d="M410.55,570.85c2.35.18,4.67.3,6.93.36l2.66.06c3.09.05,6.08,0,8.95-.12h.07"/><path class="cls-5" d="M465.05,565.54h0"/><path class="cls-3" d="M1417.46,645.44V557.28c-23.4-19.53-58.27-30.86-98.3-36.68l-.14,0a499.08,499.08,0,0,0-50.33-4.51h-.23c-15.13,0-335.68,52.24-348.19,54.28l-.2,0-.1,0h-.08c-134.38,29.15-338.27,60-402.09,46.63C422.82,597.11.14,579.76.14,579.76v65.61H1417.32Z"/><path class="cls-3" d="M75.7,367.66c.73-10.93,33.5,6.51,34.3,6.93-1.1-1.7-46.51-70.72-46.45-80.23s39.53,3.4,40.48,3.71c-1.08-1.44-54-71.44-52.88-83.82s22.45-8.66,22.45-8.66S44.53,144,41.6,110.86a51.91,51.91,0,0,1-.19-7.27C34.18,152.23,9.83,209.3.05,230.85v6.5c6.77-3.74,19.88-10.48,23.56-8.76C26.69,230,12,267.16.06,295.73v23.51c7.58-4.59,16.14-9,19.77-7.86C24,312.66,11.38,345.9.08,373.52v30c8.29-3.07,16.85-5.1,17.21-.56.31,4-8.28,21-17.2,38.79v40.4c17.44-9.6,41.71-25.68,50.3-28.18l3.4,132.84h0c6.12,2.11,17.12,2.93,35.65-4.08,0,0-17.44-84.23-19.21-123.95l-2.13-27.34,41.33,7.78S75,378.71,75.7,367.66Z"/><path class="cls-3" d="M.05,237.35c6.77-3.74,19.88-10.48,23.56-8.76C26.69,230,12,267.16.06,295.73v23.51c7.58-4.59,16.14-9,19.77-7.86C24,312.66,11.38,345.9.08,373.52v30c8.29-3.07,16.85-5.1,17.21-.56.31,4-8.28,21-17.2,38.79v40.4c17.44-9.6,41.71-25.68,50.3-28.18L41.6,110.86l-.19-7.27C34.18,152.23,9.83,209.3.05,230.85Z"/><path class="cls-2" d="M23.61,228.59c-3.68-1.72-16.79,5-23.56,8.76V247.8L10.41,240,.06,266.26v29.47C12,267.16,26.69,230,23.61,228.59Z"/><path class="cls-2" d="M17.3,403c-.36-4.54-8.92-2.51-17.21.56v13.18l1.46-.62L.09,419v22.78C9,424,17.61,407,17.3,403Z"/><path class="cls-2" d="M19.84,311.38c-3.63-1.1-12.19,3.27-19.77,7.86v12.22l8-5.58-8,17.45v30.19C11.38,345.9,24,312.66,19.84,311.38Z"/><path class="cls-2" d="M50.4,454c-8.59,2.5-32.86,18.58-50.3,28.18v12.49C23.16,484.14,47.61,474,47.61,474c2.33,14.26-.47,108.64-.47,108.64s1.77,2.52,6.66,4.22Z"/><path class="cls-2" d="M0,207.62v23.23c9.78-21.55,34.13-78.62,41.36-127.26Z"/></svg>